<svg width="36" height="36" viewBox="0 0 36 36" fill="none" xmlns="http://www.w3.org/2000/svg">
<path d="M35.5937 11.6381C35.7133 11.4731 35.8063 11.2732 35.8662 11.0524C35.9261 10.8315 35.9515 10.5949 35.9406 10.3588C35.9297 10.1227 35.8829 9.89274 35.8032 9.68477C35.7236 9.4768 35.6131 9.29576 35.4793 9.15413C30.4002 3.92249 24.2797 1.111 18 1.125C11.7202 1.1103 5.59948 3.92186 0.520652 9.15413C0.38687 9.29576 0.276352 9.4768 0.196712 9.68477C0.117072 9.89274 0.0702033 10.1227 0.0593343 10.3588C0.0484653 10.5949 0.0738547 10.8315 0.133753 11.0524C0.193652 11.2732 0.286636 11.4731 0.406299 11.6381C0.614506 11.9286 0.888733 12.1051 1.18016 12.136C1.47159 12.1669 1.7613 12.0503 1.99771 11.8069C6.65555 7.04471 12.2558 4.48754 18 4.5C23.9725 4.5 29.4996 7.20675 34.0022 11.8035C34.4882 12.303 35.1672 12.2423 35.5937 11.6381Z" fill="black"/>
<path d="M30.4573 18.9146C30.9719 18.1856 30.9195 16.9639 30.3072 16.4003C26.644 13.0295 22.3681 11.2401 18 11.25C13.4616 11.25 9.23292 13.14 5.69274 16.4003C5.55111 16.5357 5.43271 16.7143 5.34622 16.9231C5.25973 17.1318 5.20737 17.3654 5.19297 17.6066C5.17857 17.8478 5.20251 18.0905 5.26302 18.3168C5.32354 18.5432 5.41909 18.7475 5.54265 18.9146C5.74564 19.1953 6.00993 19.3699 6.29218 19.4097C6.57442 19.4496 6.85784 19.3524 7.09595 19.134C10.3503 16.1811 14.1353 14.6159 18 14.625C21.8646 14.6159 25.6497 16.1811 28.904 19.134C29.3924 19.5795 30.0475 19.4985 30.4573 18.9146ZM25.2566 26.2823C25.795 25.5195 25.6974 24.2404 25.0184 23.751C22.8445 22.1837 20.4392 21.3694 18 21.375C15.4747 21.375 13.0876 22.2323 10.9816 23.751C10.3026 24.2404 10.2049 25.5195 10.7433 26.2823L10.7791 26.3329C11.1602 26.8729 11.7511 26.9741 12.2347 26.6366C14.0291 25.3907 16.0016 24.7453 18 24.75C20.0679 24.75 22.0262 25.4284 23.7653 26.64C24.2489 26.9775 24.8373 26.8763 25.2209 26.3329L25.2566 26.2823ZM20.5253 32.985C20.9922 32.3235 20.997 31.23 20.43 30.7575C19.695 30.1377 18.8553 29.8112 18 29.8125C17.1446 29.8112 16.305 30.1377 15.57 30.7575C15.003 31.23 15.0077 32.3235 15.4747 32.985L17.1566 35.3678C17.2673 35.5249 17.3987 35.6496 17.5434 35.7347C17.6882 35.8197 17.8433 35.8635 18 35.8635C18.1567 35.8635 18.3118 35.8197 18.4565 35.7347C18.6012 35.6496 18.7327 35.5249 18.8433 35.3678L20.5277 32.9816L20.5253 32.985Z" fill="black"/>
</svg>
