<svg width="36" height="36" viewBox="0 0 36 36" fill="none" xmlns="http://www.w3.org/2000/svg">
<g clip-path="url(#clip0)">
<path d="M26 4C26 7 22.418 10 18 10C13.582 10 10 7 10 4C10 -0.418 16 8.75443e-08 18 8.75443e-08C20 8.75443e-08 26 -0.418 26 4Z" fill="black"/>
<path d="M24.306 12H11.694C11.2206 11.9999 10.7625 12.1678 10.4012 12.4738C10.0399 12.7798 9.79891 13.204 9.72102 13.671L6.38802 33.671C6.34024 33.9575 6.35545 34.2511 6.43259 34.5311C6.50974 34.8112 6.64698 35.0711 6.83475 35.2928C7.02253 35.5144 7.25634 35.6925 7.51992 35.8146C7.7835 35.9368 8.07052 36 8.36102 36H27.639C27.9295 36 28.2166 35.9368 28.4801 35.8146C28.7437 35.6925 28.9775 35.5144 29.1653 35.2928C29.3531 35.0711 29.4903 34.8112 29.5675 34.5311C29.6446 34.2511 29.6598 33.9575 29.612 33.671L26.279 13.671C26.201 13.2041 25.9599 12.78 25.5986 12.4741C25.2374 12.1681 24.7794 12.0001 24.306 12Z" fill="black"/>
<path d="M19.344 14H12.542C12.3053 13.9999 12.0762 14.0839 11.8956 14.237C11.715 14.3901 11.5946 14.6024 11.556 14.836L8.55602 32.836C8.53187 32.9792 8.53924 33.1259 8.57763 33.2659C8.61602 33.4059 8.6845 33.5359 8.77828 33.6467C8.87206 33.7575 8.9889 33.8465 9.12063 33.9076C9.25237 33.9686 9.39583 34.0001 9.54102 34H19.968L19.344 14ZM24.445 14.836C24.4062 14.6025 24.2858 14.3903 24.1053 14.2373C23.9247 14.0842 23.6957 14.0001 23.459 14H21.046L21.955 34H26.46C26.6052 33.9999 26.7486 33.9683 26.8803 33.9072C27.012 33.8461 27.1288 33.7571 27.2226 33.6464C27.3164 33.5356 27.385 33.4057 27.4236 33.2658C27.4622 33.1259 27.4698 32.9792 27.446 32.836L24.445 14.836Z" fill="#F5F8FA"/>
<path d="M15 2.1C15.6627 2.1 16.2 1.83137 16.2 1.5C16.2 1.16863 15.6627 0.9 15 0.9C14.3372 0.9 13.8 1.16863 13.8 1.5C13.8 1.83137 14.3372 2.1 15 2.1Z" fill="black"/>
<path d="M21 2.1C21.6627 2.1 22.2 1.83137 22.2 1.5C22.2 1.16863 21.6627 0.9 21 0.9C20.3372 0.9 19.8 1.16863 19.8 1.5C19.8 1.83137 20.3372 2.1 21 2.1Z" fill="black"/>
<path d="M18 4.1C18.6627 4.1 19.2 3.83137 19.2 3.5C19.2 3.16863 18.6627 2.9 18 2.9C17.3372 2.9 16.8 3.16863 16.8 3.5C16.8 3.83137 17.3372 4.1 18 4.1Z" fill="black"/>
<path d="M25 12H11V9.528C11 8.684 11.684 8.266 12.528 8.266H23.472C24.316 8.266 25 8.684 25 9.528V12Z" fill="black"/>
<path d="M23.472 8H12.528C11.871 8 11.315 8.417 11.099 9H24.9C24.685 8.417 24.13 8 23.472 8ZM11 10H25V11H11V10ZM11 12H25V12.5H11V12Z" fill="black"/>
</g>
<defs>
<clipPath id="clip0">
<rect width="36" height="36" fill="white"/>
</clipPath>
</defs>
</svg>
