<svg width="36" height="36" viewBox="0 0 36 36" fill="none" xmlns="http://www.w3.org/2000/svg">
<path d="M34.7143 0.529419H1.28571C0.574554 0.529419 0 1.23916 0 2.11765V33.8824C0 34.7609 0.574554 35.4706 1.28571 35.4706H34.7143C35.4254 35.4706 36 34.7609 36 33.8824V2.11765C36 1.23916 35.4254 0.529419 34.7143 0.529419ZM2.89286 4.10295H33.1071V10.0588H2.89286V4.10295ZM33.1071 31.8971H2.89286V14.4265H33.1071V31.8971ZM23.5848 28.7206H30.2143C30.3911 28.7206 30.5357 28.5419 30.5357 28.3235V24.75C30.5357 24.5316 30.3911 24.3529 30.2143 24.3529H23.5848C23.408 24.3529 23.2634 24.5316 23.2634 24.75V28.3235C23.2634 28.5419 23.408 28.7206 23.5848 28.7206Z" fill="black"/>
</svg>
