<?xml version="1.0"?>
<svg xmlns="http://www.w3.org/2000/svg" xmlns:xlink="http://www.w3.org/1999/xlink" xmlns:svgjs="http://svgjs.com/svgjs" version="1.1" width="512" height="512" x="0" y="0" viewBox="0 0 74 74" style="enable-background:new 0 0 512 512" xml:space="preserve" class=""><g><path xmlns="http://www.w3.org/2000/svg" d="m33.341 54.636a2.99 2.99 0 0 1 -1.847-.636l-27.576-21.581a5 5 0 0 1 -.454-7.473l20.482-20.481a5 5 0 0 1 7.473.454l21.581 27.575a3 3 0 0 1 -.242 3.97l-17.295 17.294a3 3 0 0 1 -2.122.878zm-5.859-49.636a3 3 0 0 0 -2.122.879l-20.481 20.481a3 3 0 0 0 .272 4.484l27.575 21.58a1 1 0 0 0 1.323-.081l17.295-17.294a1 1 0 0 0 .081-1.323l-21.581-27.575a3 3 0 0 0 -2.18-1.145c-.064-.006-.122-.006-.182-.006z" fill="#000000" data-original="#000000" style=""/><path xmlns="http://www.w3.org/2000/svg" d="m44.818 58.812a12.958 12.958 0 0 1 -9.192-3.8l-2.126-2.123 18.389-18.389 2.121 2.121a12.994 12.994 0 0 1 -9.192 22.187zm-8.485-5.923.707.707a11 11 0 0 0 15.56-15.556l-.707-.707z" fill="#000000" data-original="#000000" style=""/><path xmlns="http://www.w3.org/2000/svg" d="m56 59h3v2h-3z" fill="#000000" data-original="#000000" style=""/><path xmlns="http://www.w3.org/2000/svg" d="m60.375 53h3v2h-3z" fill="#000000" data-original="#000000" style=""/><path xmlns="http://www.w3.org/2000/svg" d="m67.563 53.35h3v2h-3z" fill="#000000" data-original="#000000" style=""/><path xmlns="http://www.w3.org/2000/svg" d="m66.625 62.375h3v2h-3z" fill="#000000" data-original="#000000" style=""/><path xmlns="http://www.w3.org/2000/svg" d="m62.813 58h3v2h-3z" fill="#000000" data-original="#000000" style=""/><path xmlns="http://www.w3.org/2000/svg" d="m58.813 68.625h3v2h-3z" fill="#000000" data-original="#000000" style=""/><path xmlns="http://www.w3.org/2000/svg" d="m68 69h3v2h-3z" fill="#000000" data-original="#000000" style=""/><path xmlns="http://www.w3.org/2000/svg" d="m59.563 64h3v2h-3z" fill="#000000" data-original="#000000" style=""/><path xmlns="http://www.w3.org/2000/svg" d="m49.942 61h3v2h-3z" fill="#000000" data-original="#000000" style=""/><path xmlns="http://www.w3.org/2000/svg" d="m51.756 66h3v2h-3z" fill="#000000" data-original="#000000" style=""/><path xmlns="http://www.w3.org/2000/svg" d="m2.04 19.933h35.959v2h-35.959z" transform="matrix(.707 -.707 .707 .707 -8.938 20.287)" fill="#000000" data-original="#000000" style=""/><path xmlns="http://www.w3.org/2000/svg" d="m46.993 53.235h2v4.244h-2z" transform="matrix(.707 -.707 .707 .707 -25.086 50.144)" fill="#000000" data-original="#000000" style=""/><path xmlns="http://www.w3.org/2000/svg" d="m53.357 46.871h2v4.244h-2z" transform="matrix(.707 -.707 .707 .707 -18.722 52.792)" fill="#000000" data-original="#000000" style=""/><path xmlns="http://www.w3.org/2000/svg" d="m50.442 49.97h2v5.132h-2z" transform="matrix(.707 -.707 .707 .707 -22.082 51.767)" fill="#000000" data-original="#000000" style=""/><path xmlns="http://www.w3.org/2000/svg" d="m35.194 46.846h23.305v2h-23.305z" transform="matrix(.707 -.707 .707 .707 -20.111 47.139)" fill="#000000" data-original="#000000" style=""/></g></svg>
