<?xml version="1.0"?>
<svg xmlns="http://www.w3.org/2000/svg" xmlns:xlink="http://www.w3.org/1999/xlink" xmlns:svgjs="http://svgjs.com/svgjs" version="1.1" width="512" height="512" x="0" y="0" viewBox="0 0 512.01 512.01" style="enable-background:new 0 0 512 512" xml:space="preserve" class=""><g><g xmlns="http://www.w3.org/2000/svg"><path d="m508.495 358.379-241-288c-5.998-7.167-17.02-7.155-23.007-.001l-51.737 61.814-62.099-62.739c-7.727-7.806-20.985-4.921-24.753 5.412-112.117 307.426-105.569 288.561-105.848 291.91-.614 7.49 4.38 14.157 11.497 15.822 2.649.627-3.242.407 117.444.407v34h-37c-8.284 0-15 6.716-15 15s6.716 15 15 15h328c8.284 0 15-6.716 15-15s-6.716-15-15-15h-37v-34h114c12.698 0 19.665-14.871 11.503-24.625zm-382.519-251.005 47.436 47.925-115.04 137.447zm33.015 309.63v-48.004c0-34.722 18.728-66.993 48.875-84.22 29.684-16.963 66.566-16.963 96.25 0 30.147 17.227 48.875 49.498 48.875 84.22v48.004zm222.972-64c-5.004-39.199-28.168-74.39-62.962-94.271-38.867-22.211-87.154-22.209-126.02 0-34.793 19.881-57.958 55.071-62.962 94.271h-82.96c184.743-220.727 20.945-25.024 208.931-249.627l208.89 249.628c-8.497-.001-75.118-.001-82.917-.001z" fill="#000000" data-original="#000000" style="" class=""/></g></g></svg>
