<svg width="36" height="36" viewBox="0 0 36 36" fill="none" xmlns="http://www.w3.org/2000/svg">
<path d="M21.816 4L25.11 8H32.4V32H3.6V8H10.89L14.184 4H21.816ZM23.4 0H12.6L9.306 4H3.6C1.62 4 0 5.8 0 8V32C0 34.2 1.62 36 3.6 36H32.4C34.38 36 36 34.2 36 32V8C36 5.8 34.38 4 32.4 4H26.694L23.4 0ZM18 14C20.97 14 23.4 16.7 23.4 20C23.4 23.3 20.97 26 18 26C15.03 26 12.6 23.3 12.6 20C12.6 16.7 15.03 14 18 14ZM18 10C13.032 10 9 14.48 9 20C9 25.52 13.032 30 18 30C22.968 30 27 25.52 27 20C27 14.48 22.968 10 18 10Z" fill="black"/>
</svg>
