<svg width="36" height="34" viewBox="0 0 36 34" fill="none" xmlns="http://www.w3.org/2000/svg">
<path d="M35.3137 31.1024C33.3692 28.7853 32.316 25.85 32.3437 22.8252V10.2365C32.3437 4.65425 28.5587 0.111496 23.9062 0.111496H8.71875C4.06631 0.111496 0.28125 4.65425 0.28125 10.2365C0.28125 15.8187 4.06631 20.3615 8.71875 20.3615H13.7812V22.8252C13.7536 26.6549 15.0941 30.3687 17.5612 33.2979C17.7198 33.483 17.9165 33.6317 18.1378 33.7336C18.3592 33.8356 18.6 33.8884 18.8437 33.8885H34.0312C34.3541 33.8888 34.6704 33.7964 34.9423 33.6224C35.2143 33.4484 35.4307 33.1999 35.5657 32.9066C35.7007 32.6133 35.7487 32.2874 35.7041 31.9676C35.6594 31.6478 35.524 31.3475 35.3137 31.1024ZM8.71875 16.9882C5.92762 16.9882 3.65625 13.9591 3.65625 10.2382C3.65625 6.51725 5.92762 3.48818 8.71875 3.48818C11.5099 3.48818 13.7812 6.51556 13.7812 10.2382C13.7812 13.9608 11.5099 16.9882 8.71875 16.9882ZM19.6521 30.5118C18.0113 28.2867 17.1357 25.5898 17.1562 22.8252V11.0127C17.1562 10.9655 17.1326 10.925 17.1292 10.8777C17.1411 10.6651 17.1562 10.4542 17.1562 10.2365C17.1787 7.81203 16.4189 5.44492 14.9895 3.4865H23.9062C26.6974 3.4865 28.9687 6.51556 28.9687 10.2365V22.8252C28.9601 25.5031 29.6078 28.1423 30.8554 30.5118H19.6521ZM8.71875 8.12881C8.21784 8.19067 7.76095 8.4459 7.44566 8.84002C7.13036 9.23414 6.98164 9.73591 7.03125 10.2382C6.98164 10.7405 7.13036 11.2422 7.44566 11.6363C7.76095 12.0305 8.21784 12.2857 8.71875 12.3476C9.21966 12.2857 9.67655 12.0305 9.99184 11.6363C10.3071 11.2422 10.4559 10.7405 10.4062 10.2382C10.4559 9.73591 10.3071 9.23414 9.99184 8.84002C9.67655 8.4459 9.21966 8.19067 8.71875 8.12881Z" fill="black"/>
</svg>
