<svg width="36" height="36" viewBox="0 0 36 36" fill="none" xmlns="http://www.w3.org/2000/svg">
<path d="M24.3701 18.2425L24.5562 17.4984L23.8856 17.1258C22.1908 16.1843 21.25 14.5016 21.25 12.6V10.575C21.25 7.56766 21.9498 5.1266 23.0285 3.47088C24.1007 1.82522 25.504 1 27 1H27.45C27.6569 1 27.8639 1.07969 28.0118 1.21528C28.1467 1.339 28.25 1.52332 28.25 1.8V16.875C28.25 17.0958 28.2144 17.2351 28.1674 17.3407C28.1186 17.4507 28.0339 17.5769 27.8679 17.7429L27.4797 18.1311L27.5988 18.6669C28.0364 20.6362 28.25 22.8123 28.25 23.625V32.625C28.25 33.8727 27.1227 35 25.875 35C24.6273 35 23.5 33.8727 23.5 32.625V23.6653C23.5017 23.6452 23.504 23.617 23.5072 23.5813C23.5143 23.4998 23.5254 23.3791 23.5407 23.2253C23.5715 22.9174 23.6196 22.4779 23.6883 21.9555C23.8264 20.9064 24.0454 19.5414 24.3701 18.2425Z" fill="white" stroke="black" stroke-width="2"/>
<path d="M11.0951 15.5425L11.2989 14.7274L10.5311 14.3862C8.86075 13.6438 7.75 11.9727 7.75 10.125V1.8C7.75 1.67946 7.81763 1.48079 8 1.28968V7.875C8 8.43975 8.19261 8.98808 8.60227 9.39773C9.01192 9.80739 9.56025 10 10.125 10C10.6897 10 11.2381 9.80739 11.6477 9.39773C12.0574 8.98808 12.25 8.43975 12.25 7.875V1.125C12.25 1.06753 12.2595 1.03576 12.2642 1.02343C12.2653 1.0206 12.2662 1.01849 12.267 1.01698C12.2685 1.01624 12.2706 1.01529 12.2734 1.0142C12.2858 1.00946 12.3175 1 12.375 1C12.4325 1 12.4642 1.00946 12.4766 1.0142C12.4794 1.01529 12.4815 1.01624 12.483 1.01698C12.4838 1.01849 12.4847 1.0206 12.4858 1.02343C12.4905 1.03576 12.5 1.06753 12.5 1.125V7.875C12.5 8.43975 12.6926 8.98808 13.1023 9.39773C13.5119 9.80739 14.0603 10 14.625 10C15.1897 10 15.7381 9.80739 16.1477 9.39773C16.5574 8.98808 16.75 8.43975 16.75 7.875V1.28968C16.9324 1.48079 17 1.67946 17 1.8V10.125C17 11.9884 15.8711 13.6714 14.4028 14.4056L13.7099 14.752L13.8722 15.5095C14.5286 18.5725 14.75 22.5491 14.75 23.625V32.625C14.75 33.8727 13.6227 35 12.375 35C11.1273 35 10 33.8727 10 32.625V23.6501L10.0014 23.6236C10.0031 23.5899 10.0059 23.5391 10.0097 23.4729C10.0174 23.3404 10.0295 23.1459 10.0467 22.9007C10.0813 22.4101 10.1367 21.7181 10.2197 20.9154C10.3867 19.3014 10.6621 17.2746 11.0951 15.5425ZM12.2638 1.01875C12.2638 1.01875 12.264 1.01864 12.2643 1.01845L12.2638 1.01875Z" fill="white" stroke="black" stroke-width="2"/>
</svg>
