<svg width="36" height="36" viewBox="0 0 36 36" fill="none" xmlns="http://www.w3.org/2000/svg">
<path fill-rule="evenodd" clip-rule="evenodd" d="M33.75 3.6H2.25V32.4H33.75V3.6ZM2.25 0C1.65326 0 1.08097 0.379284 0.65901 1.05442C0.237053 1.72955 0 2.64522 0 3.6L0 32.4C0 33.3548 0.237053 34.2705 0.65901 34.9456C1.08097 35.6207 1.65326 36 2.25 36H33.75C34.3467 36 34.919 35.6207 35.341 34.9456C35.7629 34.2705 36 33.3548 36 32.4V3.6C36 2.64522 35.7629 1.72955 35.341 1.05442C34.919 0.379284 34.3467 0 33.75 0H2.25Z" fill="black"/>
<path d="M29.25 3.60001C29.25 5.50956 29.7241 7.34091 30.568 8.69117C31.4119 10.0414 32.5565 10.8 33.75 10.8V3.60001H29.25ZM6.75 3.60001C6.75 5.50956 6.27589 7.34091 5.43198 8.69117C4.58807 10.0414 3.44347 10.8 2.25 10.8V3.60001H6.75ZM29.25 32.4C29.25 30.4904 29.7241 28.6591 30.568 27.3088C31.4119 25.9586 32.5565 25.2 33.75 25.2V32.4H29.25ZM6.75 32.4C6.75 30.4904 6.27589 28.6591 5.43198 27.3088C4.58807 25.9586 3.44347 25.2 2.25 25.2V32.4H6.75ZM22.5 18C22.5 19.9096 22.0259 21.7409 21.182 23.0912C20.3381 24.4414 19.1935 25.2 18 25.2C16.8065 25.2 15.6619 24.4414 14.818 23.0912C13.9741 21.7409 13.5 19.9096 13.5 18C13.5 16.0904 13.9741 14.2591 14.818 12.9088C15.6619 11.5586 16.8065 10.8 18 10.8C19.1935 10.8 20.3381 11.5586 21.182 12.9088C22.0259 14.2591 22.5 16.0904 22.5 18Z" fill="black"/>
</svg>
