<svg width="232" height="15" viewBox="0 0 232 15" fill="none" xmlns="http://www.w3.org/2000/svg">
<path d="M2.276 13.118C2.276 13.37 2.186 13.58 2.006 13.748C1.826 13.916 1.616 14 1.376 14C1.112 14 0.896 13.916 0.728 13.748C0.572 13.58 0.494 13.37 0.494 13.118V2.264C0.494 2.024 0.578 1.82 0.746 1.652C0.914 1.484 1.13 1.4 1.394 1.4C1.634 1.4 1.838 1.484 2.006 1.652C2.186 1.82 2.276 2.024 2.276 2.264V13.118ZM9.84767 4.352C12.0077 4.352 13.0877 5.648 13.0877 8.24V13.136C13.0877 13.376 13.0037 13.58 12.8357 13.748C12.6797 13.916 12.4757 14 12.2237 14C11.9837 14 11.7797 13.916 11.6117 13.748C11.4557 13.58 11.3777 13.376 11.3777 13.136V8.258C11.3777 7.55 11.2157 6.986 10.8917 6.566C10.5677 6.146 10.0397 5.936 9.30767 5.936C8.82767 5.936 8.38967 6.044 7.99367 6.26C7.60967 6.464 7.30367 6.746 7.07567 7.106C6.85967 7.454 6.75167 7.838 6.75167 8.258V13.136C6.75167 13.376 6.66767 13.58 6.49967 13.748C6.34367 13.916 6.13967 14 5.88767 14C5.63567 14 5.43167 13.922 5.27567 13.766C5.11967 13.598 5.04167 13.388 5.04167 13.136V5.432C5.04167 5.192 5.11967 4.988 5.27567 4.82C5.44367 4.652 5.64767 4.568 5.88767 4.568C6.13967 4.568 6.34367 4.652 6.49967 4.82C6.66767 4.988 6.75167 5.192 6.75167 5.432V6.062C7.06367 5.582 7.49567 5.18 8.04767 4.856C8.61167 4.52 9.21167 4.352 9.84767 4.352ZM17.2613 13.136C17.2613 13.376 17.1773 13.58 17.0093 13.748C16.8533 13.916 16.6493 14 16.3973 14C16.1573 14 15.9533 13.916 15.7853 13.748C15.6293 13.58 15.5513 13.376 15.5513 13.136V5.342C15.5513 5.102 15.6293 4.898 15.7853 4.73C15.9533 4.562 16.1573 4.478 16.3973 4.478C16.6493 4.478 16.8533 4.562 17.0093 4.73C17.1773 4.898 17.2613 5.102 17.2613 5.342V13.136ZM16.3973 3.29C16.0493 3.29 15.7973 3.23 15.6413 3.11C15.4973 2.978 15.4253 2.774 15.4253 2.498V2.21C15.4253 1.922 15.5033 1.718 15.6593 1.598C15.8273 1.478 16.0793 1.418 16.4153 1.418C16.7513 1.418 16.9913 1.484 17.1353 1.616C17.2913 1.736 17.3693 1.934 17.3693 2.21V2.498C17.3693 2.786 17.2913 2.99 17.1353 3.11C16.9793 3.23 16.7333 3.29 16.3973 3.29ZM23.8234 4.352C24.7714 4.352 25.5574 4.502 26.1814 4.802C26.8174 5.102 27.1354 5.486 27.1354 5.954C27.1354 6.158 27.0694 6.344 26.9374 6.512C26.8054 6.668 26.6374 6.746 26.4334 6.746C26.2774 6.746 26.1514 6.722 26.0554 6.674C25.9714 6.626 25.8514 6.548 25.6954 6.44C25.6234 6.368 25.5094 6.284 25.3534 6.188C25.2094 6.116 25.0054 6.056 24.7414 6.008C24.4774 5.96 24.2374 5.936 24.0214 5.936C23.3974 5.936 22.8454 6.08 22.3654 6.368C21.8854 6.656 21.5134 7.058 21.2494 7.574C20.9854 8.078 20.8534 8.642 20.8534 9.266C20.8534 9.902 20.9794 10.472 21.2314 10.976C21.4954 11.48 21.8614 11.876 22.3294 12.164C22.7974 12.452 23.3314 12.596 23.9314 12.596C24.5554 12.596 25.0594 12.5 25.4434 12.308C25.5274 12.26 25.6414 12.182 25.7854 12.074C25.9054 11.978 26.0074 11.906 26.0914 11.858C26.1874 11.81 26.3014 11.786 26.4334 11.786C26.6734 11.786 26.8594 11.864 26.9914 12.02C27.1354 12.164 27.2074 12.356 27.2074 12.596C27.2074 12.848 27.0454 13.1 26.7214 13.352C26.4094 13.592 25.9834 13.79 25.4434 13.946C24.9154 14.102 24.3454 14.18 23.7334 14.18C22.8214 14.18 22.0174 13.97 21.3214 13.55C20.6254 13.118 20.0854 12.53 19.7014 11.786C19.3294 11.03 19.1434 10.19 19.1434 9.266C19.1434 8.342 19.3414 7.508 19.7374 6.764C20.1334 6.008 20.6854 5.42 21.3934 5C22.1014 4.568 22.9114 4.352 23.8234 4.352ZM30.5855 13.136C30.5855 13.376 30.5015 13.58 30.3335 13.748C30.1775 13.916 29.9735 14 29.7215 14C29.4815 14 29.2775 13.916 29.1095 13.748C28.9535 13.58 28.8755 13.376 28.8755 13.136V5.342C28.8755 5.102 28.9535 4.898 29.1095 4.73C29.2775 4.562 29.4815 4.478 29.7215 4.478C29.9735 4.478 30.1775 4.562 30.3335 4.73C30.5015 4.898 30.5855 5.102 30.5855 5.342V13.136ZM29.7215 3.29C29.3735 3.29 29.1215 3.23 28.9655 3.11C28.8215 2.978 28.7495 2.774 28.7495 2.498V2.21C28.7495 1.922 28.8275 1.718 28.9835 1.598C29.1515 1.478 29.4035 1.418 29.7395 1.418C30.0755 1.418 30.3155 1.484 30.4595 1.616C30.6155 1.736 30.6935 1.934 30.6935 2.21V2.498C30.6935 2.786 30.6155 2.99 30.4595 3.11C30.3035 3.23 30.0575 3.29 29.7215 3.29ZM40.6936 4.442C40.9456 4.442 41.1496 4.526 41.3056 4.694C41.4736 4.85 41.5576 5.06 41.5576 5.324V13.136C41.5576 13.376 41.4736 13.58 41.3056 13.748C41.1496 13.916 40.9456 14 40.6936 14C40.4416 14 40.2376 13.922 40.0816 13.766C39.9256 13.598 39.8476 13.388 39.8476 13.136V12.668C39.5356 13.088 39.1096 13.448 38.5696 13.748C38.0296 14.036 37.4476 14.18 36.8236 14.18C36.0076 14.18 35.2636 13.97 34.5916 13.55C33.9316 13.13 33.4096 12.548 33.0256 11.804C32.6536 11.048 32.4676 10.202 32.4676 9.266C32.4676 8.33 32.6536 7.49 33.0256 6.746C33.4096 5.99 33.9316 5.402 34.5916 4.982C35.2516 4.562 35.9776 4.352 36.7696 4.352C37.4056 4.352 37.9936 4.484 38.5336 4.748C39.0856 5.012 39.5236 5.348 39.8476 5.756V5.324C39.8476 5.072 39.9256 4.862 40.0816 4.694C40.2376 4.526 40.4416 4.442 40.6936 4.442ZM37.0216 12.596C37.5856 12.596 38.0836 12.452 38.5156 12.164C38.9596 11.876 39.3016 11.48 39.5416 10.976C39.7936 10.472 39.9196 9.902 39.9196 9.266C39.9196 8.642 39.7936 8.078 39.5416 7.574C39.3016 7.07 38.9596 6.674 38.5156 6.386C38.0836 6.086 37.5856 5.936 37.0216 5.936C36.4576 5.936 35.9536 6.08 35.5096 6.368C35.0776 6.656 34.7356 7.052 34.4836 7.556C34.2436 8.06 34.1236 8.63 34.1236 9.266C34.1236 9.902 34.2436 10.472 34.4836 10.976C34.7356 11.48 35.0776 11.876 35.5096 12.164C35.9536 12.452 36.4576 12.596 37.0216 12.596ZM48.7983 4.352C49.1103 4.352 49.3803 4.436 49.6083 4.604C49.8363 4.76 49.9503 4.958 49.9503 5.198C49.9503 5.486 49.8723 5.708 49.7163 5.864C49.5723 6.008 49.3923 6.08 49.1763 6.08C49.0683 6.08 48.9063 6.044 48.6903 5.972C48.4383 5.888 48.2403 5.846 48.0963 5.846C47.7243 5.846 47.3583 5.978 46.9983 6.242C46.6503 6.494 46.3623 6.848 46.1343 7.304C45.9183 7.748 45.8103 8.246 45.8103 8.798V13.136C45.8103 13.376 45.7263 13.58 45.5583 13.748C45.4023 13.916 45.1983 14 44.9463 14C44.6943 14 44.4903 13.922 44.3343 13.766C44.1783 13.598 44.1003 13.388 44.1003 13.136V5.432C44.1003 5.192 44.1783 4.988 44.3343 4.82C44.5023 4.652 44.7063 4.568 44.9463 4.568C45.1983 4.568 45.4023 4.652 45.5583 4.82C45.7263 4.988 45.8103 5.192 45.8103 5.432V6.35C46.0743 5.762 46.4703 5.288 46.9983 4.928C47.5263 4.556 48.1263 4.364 48.7983 4.352ZM55.988 12.524C55.88 12.356 55.826 12.194 55.826 12.038C55.826 11.798 55.952 11.594 56.204 11.426C56.324 11.342 56.462 11.3 56.618 11.3C56.834 11.3 57.032 11.39 57.212 11.57C57.572 11.978 57.956 12.284 58.364 12.488C58.784 12.692 59.282 12.794 59.858 12.794C60.314 12.782 60.716 12.68 61.064 12.488C61.412 12.284 61.586 11.96 61.586 11.516C61.586 11.108 61.406 10.796 61.046 10.58C60.698 10.364 60.182 10.166 59.498 9.986C58.826 9.806 58.268 9.62 57.824 9.428C57.38 9.224 57.002 8.936 56.69 8.564C56.39 8.18 56.24 7.682 56.24 7.07C56.24 6.53 56.39 6.056 56.69 5.648C57.002 5.24 57.41 4.922 57.914 4.694C58.43 4.466 58.988 4.352 59.588 4.352C60.164 4.352 60.734 4.46 61.298 4.676C61.874 4.892 62.342 5.222 62.702 5.666C62.846 5.834 62.918 6.008 62.918 6.188C62.918 6.38 62.822 6.566 62.63 6.746C62.51 6.854 62.36 6.908 62.18 6.908C61.964 6.908 61.79 6.836 61.658 6.692C61.406 6.404 61.094 6.182 60.722 6.026C60.362 5.87 59.96 5.792 59.516 5.792C59.06 5.792 58.67 5.888 58.346 6.08C58.034 6.26 57.878 6.572 57.878 7.016C57.89 7.436 58.07 7.748 58.418 7.952C58.778 8.156 59.324 8.354 60.056 8.546C60.692 8.714 61.22 8.894 61.64 9.086C62.06 9.278 62.414 9.566 62.702 9.95C62.99 10.322 63.134 10.814 63.134 11.426C63.134 11.99 62.972 12.482 62.648 12.902C62.324 13.31 61.898 13.628 61.37 13.856C60.854 14.072 60.302 14.18 59.714 14.18C58.958 14.18 58.256 14.048 57.608 13.784C56.972 13.52 56.432 13.1 55.988 12.524ZM73.3861 8.924C73.3741 9.14 73.2841 9.326 73.1161 9.482C72.9481 9.626 72.7501 9.698 72.5221 9.698H66.1861C66.2701 10.574 66.6001 11.276 67.1761 11.804C67.7641 12.332 68.4781 12.596 69.3181 12.596C69.8941 12.596 70.3621 12.512 70.7221 12.344C71.0821 12.176 71.4001 11.96 71.6761 11.696C71.8561 11.588 72.0301 11.534 72.1981 11.534C72.4021 11.534 72.5701 11.606 72.7021 11.75C72.8461 11.894 72.9181 12.062 72.9181 12.254C72.9181 12.506 72.7981 12.734 72.5581 12.938C72.2101 13.286 71.7481 13.58 71.1721 13.82C70.5961 14.06 70.0081 14.18 69.4081 14.18C68.4361 14.18 67.5781 13.976 66.8341 13.568C66.1021 13.16 65.5321 12.59 65.1241 11.858C64.7281 11.126 64.5301 10.298 64.5301 9.374C64.5301 8.366 64.7341 7.484 65.1421 6.728C65.5621 5.96 66.1081 5.372 66.7801 4.964C67.4641 4.556 68.1961 4.352 68.9761 4.352C69.7441 4.352 70.4641 4.55 71.1361 4.946C71.8081 5.342 72.3481 5.888 72.7561 6.584C73.1641 7.28 73.3741 8.06 73.3861 8.924ZM68.9761 5.936C68.3041 5.936 67.7221 6.128 67.2301 6.512C66.7381 6.884 66.4141 7.466 66.2581 8.258H71.5681V8.114C71.5081 7.478 71.2201 6.956 70.7041 6.548C70.2001 6.14 69.6241 5.936 68.9761 5.936ZM74.8318 12.524C74.7238 12.356 74.6698 12.194 74.6698 12.038C74.6698 11.798 74.7958 11.594 75.0478 11.426C75.1678 11.342 75.3058 11.3 75.4618 11.3C75.6778 11.3 75.8758 11.39 76.0558 11.57C76.4158 11.978 76.7998 12.284 77.2078 12.488C77.6278 12.692 78.1258 12.794 78.7018 12.794C79.1578 12.782 79.5598 12.68 79.9078 12.488C80.2558 12.284 80.4298 11.96 80.4298 11.516C80.4298 11.108 80.2498 10.796 79.8898 10.58C79.5418 10.364 79.0258 10.166 78.3418 9.986C77.6698 9.806 77.1118 9.62 76.6678 9.428C76.2238 9.224 75.8458 8.936 75.5338 8.564C75.2338 8.18 75.0838 7.682 75.0838 7.07C75.0838 6.53 75.2338 6.056 75.5338 5.648C75.8458 5.24 76.2538 4.922 76.7578 4.694C77.2738 4.466 77.8318 4.352 78.4318 4.352C79.0078 4.352 79.5778 4.46 80.1418 4.676C80.7178 4.892 81.1858 5.222 81.5458 5.666C81.6898 5.834 81.7618 6.008 81.7618 6.188C81.7618 6.38 81.6658 6.566 81.4738 6.746C81.3538 6.854 81.2038 6.908 81.0238 6.908C80.8078 6.908 80.6338 6.836 80.5018 6.692C80.2498 6.404 79.9378 6.182 79.5658 6.026C79.2058 5.87 78.8038 5.792 78.3598 5.792C77.9038 5.792 77.5138 5.888 77.1898 6.08C76.8778 6.26 76.7218 6.572 76.7218 7.016C76.7338 7.436 76.9138 7.748 77.2618 7.952C77.6218 8.156 78.1678 8.354 78.8998 8.546C79.5358 8.714 80.0638 8.894 80.4838 9.086C80.9038 9.278 81.2578 9.566 81.5458 9.95C81.8338 10.322 81.9778 10.814 81.9778 11.426C81.9778 11.99 81.8158 12.482 81.4918 12.902C81.1678 13.31 80.7418 13.628 80.2138 13.856C79.6978 14.072 79.1458 14.18 78.5578 14.18C77.8018 14.18 77.0998 14.048 76.4518 13.784C75.8158 13.52 75.2758 13.1 74.8318 12.524ZM85.5699 13.136C85.5699 13.376 85.4859 13.58 85.3179 13.748C85.1619 13.916 84.9579 14 84.7059 14C84.4659 14 84.2619 13.916 84.0939 13.748C83.9379 13.58 83.8599 13.376 83.8599 13.136V5.342C83.8599 5.102 83.9379 4.898 84.0939 4.73C84.2619 4.562 84.4659 4.478 84.7059 4.478C84.9579 4.478 85.1619 4.562 85.3179 4.73C85.4859 4.898 85.5699 5.102 85.5699 5.342V13.136ZM84.7059 3.29C84.3579 3.29 84.1059 3.23 83.9499 3.11C83.8059 2.978 83.7339 2.774 83.7339 2.498V2.21C83.7339 1.922 83.8119 1.718 83.9679 1.598C84.1359 1.478 84.3879 1.418 84.7239 1.418C85.0599 1.418 85.2999 1.484 85.4439 1.616C85.5999 1.736 85.6779 1.934 85.6779 2.21V2.498C85.6779 2.786 85.5999 2.99 85.4439 3.11C85.2879 3.23 85.0419 3.29 84.7059 3.29ZM96.956 9.284C96.956 10.22 96.746 11.06 96.326 11.804C95.906 12.548 95.33 13.13 94.598 13.55C93.878 13.97 93.08 14.18 92.204 14.18C91.328 14.18 90.524 13.97 89.792 13.55C89.072 13.13 88.502 12.548 88.082 11.804C87.662 11.06 87.452 10.22 87.452 9.284C87.452 8.348 87.662 7.502 88.082 6.746C88.502 5.99 89.072 5.402 89.792 4.982C90.524 4.562 91.328 4.352 92.204 4.352C93.08 4.352 93.878 4.562 94.598 4.982C95.33 5.402 95.906 5.99 96.326 6.746C96.746 7.502 96.956 8.348 96.956 9.284ZM95.246 9.284C95.246 8.636 95.108 8.06 94.832 7.556C94.568 7.04 94.202 6.644 93.734 6.368C93.278 6.08 92.768 5.936 92.204 5.936C91.64 5.936 91.124 6.08 90.656 6.368C90.2 6.644 89.834 7.04 89.558 7.556C89.294 8.06 89.162 8.636 89.162 9.284C89.162 9.92 89.294 10.49 89.558 10.994C89.834 11.498 90.2 11.894 90.656 12.182C91.124 12.458 91.64 12.596 92.204 12.596C92.768 12.596 93.278 12.458 93.734 12.182C94.202 11.894 94.568 11.498 94.832 10.994C95.108 10.49 95.246 9.92 95.246 9.284ZM92.168 3.848C92.072 3.848 91.97 3.806 91.862 3.722C91.754 3.638 91.706 3.524 91.718 3.38C91.718 3.284 91.754 3.176 91.826 3.056L92.888 1.274C92.984 1.106 93.098 0.968 93.23 0.86C93.374 0.752 93.536 0.698 93.716 0.698C93.98 0.698 94.178 0.769999 94.31 0.913999C94.454 1.046 94.52 1.226 94.508 1.454C94.508 1.67 94.418 1.88 94.238 2.084L92.888 3.56C92.696 3.752 92.456 3.848 92.168 3.848ZM103.75 4.352C105.91 4.352 106.99 5.648 106.99 8.24V13.136C106.99 13.376 106.906 13.58 106.738 13.748C106.582 13.916 106.378 14 106.126 14C105.886 14 105.682 13.916 105.514 13.748C105.358 13.58 105.28 13.376 105.28 13.136V8.258C105.28 7.55 105.118 6.986 104.794 6.566C104.47 6.146 103.942 5.936 103.21 5.936C102.73 5.936 102.292 6.044 101.896 6.26C101.512 6.464 101.206 6.746 100.978 7.106C100.762 7.454 100.654 7.838 100.654 8.258V13.136C100.654 13.376 100.57 13.58 100.402 13.748C100.246 13.916 100.042 14 99.79 14C99.538 14 99.334 13.922 99.178 13.766C99.022 13.598 98.944 13.388 98.944 13.136V5.432C98.944 5.192 99.022 4.988 99.178 4.82C99.346 4.652 99.55 4.568 99.79 4.568C100.042 4.568 100.246 4.652 100.402 4.82C100.57 4.988 100.654 5.192 100.654 5.432V6.062C100.966 5.582 101.398 5.18 101.95 4.856C102.514 4.52 103.114 4.352 103.75 4.352ZM118.64 4.352C119.588 4.352 120.374 4.502 120.998 4.802C121.634 5.102 121.952 5.486 121.952 5.954C121.952 6.158 121.886 6.344 121.754 6.512C121.622 6.668 121.454 6.746 121.25 6.746C121.094 6.746 120.968 6.722 120.872 6.674C120.788 6.626 120.668 6.548 120.512 6.44C120.44 6.368 120.326 6.284 120.17 6.188C120.026 6.116 119.822 6.056 119.558 6.008C119.294 5.96 119.054 5.936 118.838 5.936C118.214 5.936 117.662 6.08 117.182 6.368C116.702 6.656 116.33 7.058 116.066 7.574C115.802 8.078 115.67 8.642 115.67 9.266C115.67 9.902 115.796 10.472 116.048 10.976C116.312 11.48 116.678 11.876 117.146 12.164C117.614 12.452 118.148 12.596 118.748 12.596C119.372 12.596 119.876 12.5 120.26 12.308C120.344 12.26 120.458 12.182 120.602 12.074C120.722 11.978 120.824 11.906 120.908 11.858C121.004 11.81 121.118 11.786 121.25 11.786C121.49 11.786 121.676 11.864 121.808 12.02C121.952 12.164 122.024 12.356 122.024 12.596C122.024 12.848 121.862 13.1 121.538 13.352C121.226 13.592 120.8 13.79 120.26 13.946C119.732 14.102 119.162 14.18 118.55 14.18C117.638 14.18 116.834 13.97 116.138 13.55C115.442 13.118 114.902 12.53 114.518 11.786C114.146 11.03 113.96 10.19 113.96 9.266C113.96 8.342 114.158 7.508 114.554 6.764C114.95 6.008 115.502 5.42 116.21 5C116.918 4.568 117.728 4.352 118.64 4.352ZM132.71 9.284C132.71 10.22 132.5 11.06 132.08 11.804C131.66 12.548 131.084 13.13 130.352 13.55C129.632 13.97 128.834 14.18 127.958 14.18C127.082 14.18 126.278 13.97 125.546 13.55C124.826 13.13 124.256 12.548 123.836 11.804C123.416 11.06 123.206 10.22 123.206 9.284C123.206 8.348 123.416 7.502 123.836 6.746C124.256 5.99 124.826 5.402 125.546 4.982C126.278 4.562 127.082 4.352 127.958 4.352C128.834 4.352 129.632 4.562 130.352 4.982C131.084 5.402 131.66 5.99 132.08 6.746C132.5 7.502 132.71 8.348 132.71 9.284ZM131 9.284C131 8.636 130.862 8.06 130.586 7.556C130.322 7.04 129.956 6.644 129.488 6.368C129.032 6.08 128.522 5.936 127.958 5.936C127.394 5.936 126.878 6.08 126.41 6.368C125.954 6.644 125.588 7.04 125.312 7.556C125.048 8.06 124.916 8.636 124.916 9.284C124.916 9.92 125.048 10.49 125.312 10.994C125.588 11.498 125.954 11.894 126.41 12.182C126.878 12.458 127.394 12.596 127.958 12.596C128.522 12.596 129.032 12.458 129.488 12.182C129.956 11.894 130.322 11.498 130.586 10.994C130.862 10.49 131 9.92 131 9.284ZM139.504 4.352C141.664 4.352 142.744 5.648 142.744 8.24V13.136C142.744 13.376 142.66 13.58 142.492 13.748C142.336 13.916 142.132 14 141.88 14C141.64 14 141.436 13.916 141.268 13.748C141.112 13.58 141.034 13.376 141.034 13.136V8.258C141.034 7.55 140.872 6.986 140.548 6.566C140.224 6.146 139.696 5.936 138.964 5.936C138.484 5.936 138.046 6.044 137.65 6.26C137.266 6.464 136.96 6.746 136.732 7.106C136.516 7.454 136.408 7.838 136.408 8.258V13.136C136.408 13.376 136.324 13.58 136.156 13.748C136 13.916 135.796 14 135.544 14C135.292 14 135.088 13.922 134.932 13.766C134.776 13.598 134.698 13.388 134.698 13.136V5.432C134.698 5.192 134.776 4.988 134.932 4.82C135.1 4.652 135.304 4.568 135.544 4.568C135.796 4.568 136 4.652 136.156 4.82C136.324 4.988 136.408 5.192 136.408 5.432V6.062C136.72 5.582 137.152 5.18 137.704 4.856C138.268 4.52 138.868 4.352 139.504 4.352ZM152.27 3.056V6.782H156.698C156.95 6.782 157.154 6.86 157.31 7.016C157.478 7.172 157.562 7.376 157.562 7.628C157.562 7.844 157.478 8.03 157.31 8.186C157.154 8.342 156.95 8.42 156.698 8.42H152.27V13.136C152.27 13.376 152.18 13.58 152 13.748C151.832 13.916 151.628 14 151.388 14C151.136 14 150.926 13.916 150.758 13.748C150.59 13.58 150.506 13.376 150.506 13.136V2.264C150.506 2.024 150.59 1.82 150.758 1.652C150.926 1.484 151.13 1.4 151.37 1.4H157.508C157.76 1.4 157.964 1.478 158.12 1.634C158.288 1.79 158.372 1.994 158.372 2.246C158.372 2.462 158.288 2.654 158.12 2.822C157.952 2.978 157.748 3.056 157.508 3.056H152.27ZM167.748 4.442C168 4.442 168.204 4.526 168.36 4.694C168.528 4.85 168.612 5.06 168.612 5.324V13.136C168.612 13.376 168.528 13.58 168.36 13.748C168.204 13.916 168 14 167.748 14C167.496 14 167.292 13.922 167.136 13.766C166.98 13.598 166.902 13.388 166.902 13.136V12.668C166.59 13.088 166.164 13.448 165.624 13.748C165.084 14.036 164.502 14.18 163.878 14.18C163.062 14.18 162.318 13.97 161.646 13.55C160.986 13.13 160.464 12.548 160.08 11.804C159.708 11.048 159.522 10.202 159.522 9.266C159.522 8.33 159.708 7.49 160.08 6.746C160.464 5.99 160.986 5.402 161.646 4.982C162.306 4.562 163.032 4.352 163.824 4.352C164.46 4.352 165.048 4.484 165.588 4.748C166.14 5.012 166.578 5.348 166.902 5.756V5.324C166.902 5.072 166.98 4.862 167.136 4.694C167.292 4.526 167.496 4.442 167.748 4.442ZM164.076 12.596C164.64 12.596 165.138 12.452 165.57 12.164C166.014 11.876 166.356 11.48 166.596 10.976C166.848 10.472 166.974 9.902 166.974 9.266C166.974 8.642 166.848 8.078 166.596 7.574C166.356 7.07 166.014 6.674 165.57 6.386C165.138 6.086 164.64 5.936 164.076 5.936C163.512 5.936 163.008 6.08 162.564 6.368C162.132 6.656 161.79 7.052 161.538 7.556C161.298 8.06 161.178 8.63 161.178 9.266C161.178 9.902 161.298 10.472 161.538 10.976C161.79 11.48 162.132 11.876 162.564 12.164C163.008 12.452 163.512 12.596 164.076 12.596ZM175.259 4.352C176.207 4.352 176.993 4.502 177.617 4.802C178.253 5.102 178.571 5.486 178.571 5.954C178.571 6.158 178.505 6.344 178.373 6.512C178.241 6.668 178.073 6.746 177.869 6.746C177.713 6.746 177.587 6.722 177.491 6.674C177.407 6.626 177.287 6.548 177.131 6.44C177.059 6.368 176.945 6.284 176.789 6.188C176.645 6.116 176.441 6.056 176.177 6.008C175.913 5.96 175.673 5.936 175.457 5.936C174.833 5.936 174.281 6.08 173.801 6.368C173.321 6.656 172.949 7.058 172.685 7.574C172.421 8.078 172.289 8.642 172.289 9.266C172.289 9.902 172.415 10.472 172.667 10.976C172.931 11.48 173.297 11.876 173.765 12.164C174.233 12.452 174.767 12.596 175.367 12.596C175.991 12.596 176.495 12.5 176.879 12.308C176.963 12.26 177.077 12.182 177.221 12.074C177.341 11.978 177.443 11.906 177.527 11.858C177.623 11.81 177.737 11.786 177.869 11.786C178.109 11.786 178.295 11.864 178.427 12.02C178.571 12.164 178.643 12.356 178.643 12.596C178.643 12.848 178.481 13.1 178.157 13.352C177.845 13.592 177.419 13.79 176.879 13.946C176.351 14.102 175.781 14.18 175.169 14.18C174.257 14.18 173.453 13.97 172.757 13.55C172.061 13.118 171.521 12.53 171.137 11.786C170.765 11.03 170.579 10.19 170.579 9.266C170.579 8.342 170.777 7.508 171.173 6.764C171.569 6.008 172.121 5.42 172.829 5C173.537 4.568 174.347 4.352 175.259 4.352ZM188.681 8.924C188.669 9.14 188.579 9.326 188.411 9.482C188.243 9.626 188.045 9.698 187.817 9.698H181.481C181.565 10.574 181.895 11.276 182.471 11.804C183.059 12.332 183.773 12.596 184.613 12.596C185.189 12.596 185.657 12.512 186.017 12.344C186.377 12.176 186.695 11.96 186.971 11.696C187.151 11.588 187.325 11.534 187.493 11.534C187.697 11.534 187.865 11.606 187.997 11.75C188.141 11.894 188.213 12.062 188.213 12.254C188.213 12.506 188.093 12.734 187.853 12.938C187.505 13.286 187.043 13.58 186.467 13.82C185.891 14.06 185.303 14.18 184.703 14.18C183.731 14.18 182.873 13.976 182.129 13.568C181.397 13.16 180.827 12.59 180.419 11.858C180.023 11.126 179.825 10.298 179.825 9.374C179.825 8.366 180.029 7.484 180.437 6.728C180.857 5.96 181.403 5.372 182.075 4.964C182.759 4.556 183.491 4.352 184.271 4.352C185.039 4.352 185.759 4.55 186.431 4.946C187.103 5.342 187.643 5.888 188.051 6.584C188.459 7.28 188.669 8.06 188.681 8.924ZM184.271 5.936C183.599 5.936 183.017 6.128 182.525 6.512C182.033 6.884 181.709 7.466 181.553 8.258H186.863V8.114C186.803 7.478 186.515 6.956 185.999 6.548C185.495 6.14 184.919 5.936 184.271 5.936ZM195.401 4.352C196.217 4.352 196.955 4.562 197.615 4.982C198.275 5.402 198.791 5.984 199.163 6.728C199.547 7.472 199.739 8.312 199.739 9.248C199.739 10.184 199.547 11.03 199.163 11.786C198.791 12.542 198.275 13.13 197.615 13.55C196.955 13.97 196.229 14.18 195.437 14.18C194.813 14.18 194.231 14.042 193.691 13.766C193.151 13.49 192.713 13.148 192.377 12.74V13.262C192.377 13.502 192.293 13.706 192.125 13.874C191.969 14.042 191.765 14.126 191.513 14.126C191.273 14.126 191.069 14.048 190.901 13.892C190.745 13.724 190.667 13.514 190.667 13.262V1.544C190.667 1.292 190.745 1.088 190.901 0.932C191.057 0.764 191.261 0.68 191.513 0.68C191.765 0.68 191.969 0.764 192.125 0.932C192.293 1.1 192.377 1.304 192.377 1.544V5.936C192.665 5.504 193.085 5.132 193.637 4.82C194.189 4.508 194.777 4.352 195.401 4.352ZM195.203 12.596C195.755 12.596 196.253 12.452 196.697 12.164C197.141 11.864 197.483 11.462 197.723 10.958C197.975 10.442 198.101 9.872 198.101 9.248C198.101 8.624 197.975 8.06 197.723 7.556C197.483 7.052 197.141 6.656 196.697 6.368C196.253 6.08 195.755 5.936 195.203 5.936C194.639 5.936 194.135 6.08 193.691 6.368C193.247 6.656 192.899 7.052 192.647 7.556C192.407 8.048 192.287 8.612 192.287 9.248C192.287 9.884 192.407 10.454 192.647 10.958C192.899 11.462 193.247 11.864 193.691 12.164C194.135 12.452 194.639 12.596 195.203 12.596ZM210.651 9.284C210.651 10.22 210.441 11.06 210.021 11.804C209.601 12.548 209.025 13.13 208.293 13.55C207.573 13.97 206.775 14.18 205.899 14.18C205.023 14.18 204.219 13.97 203.487 13.55C202.767 13.13 202.197 12.548 201.777 11.804C201.357 11.06 201.147 10.22 201.147 9.284C201.147 8.348 201.357 7.502 201.777 6.746C202.197 5.99 202.767 5.402 203.487 4.982C204.219 4.562 205.023 4.352 205.899 4.352C206.775 4.352 207.573 4.562 208.293 4.982C209.025 5.402 209.601 5.99 210.021 6.746C210.441 7.502 210.651 8.348 210.651 9.284ZM208.941 9.284C208.941 8.636 208.803 8.06 208.527 7.556C208.263 7.04 207.897 6.644 207.429 6.368C206.973 6.08 206.463 5.936 205.899 5.936C205.335 5.936 204.819 6.08 204.351 6.368C203.895 6.644 203.529 7.04 203.253 7.556C202.989 8.06 202.857 8.636 202.857 9.284C202.857 9.92 202.989 10.49 203.253 10.994C203.529 11.498 203.895 11.894 204.351 12.182C204.819 12.458 205.335 12.596 205.899 12.596C206.463 12.596 206.973 12.458 207.429 12.182C207.897 11.894 208.263 11.498 208.527 10.994C208.803 10.49 208.941 9.92 208.941 9.284ZM221.567 9.284C221.567 10.22 221.357 11.06 220.937 11.804C220.517 12.548 219.941 13.13 219.209 13.55C218.489 13.97 217.691 14.18 216.815 14.18C215.939 14.18 215.135 13.97 214.403 13.55C213.683 13.13 213.113 12.548 212.693 11.804C212.273 11.06 212.063 10.22 212.063 9.284C212.063 8.348 212.273 7.502 212.693 6.746C213.113 5.99 213.683 5.402 214.403 4.982C215.135 4.562 215.939 4.352 216.815 4.352C217.691 4.352 218.489 4.562 219.209 4.982C219.941 5.402 220.517 5.99 220.937 6.746C221.357 7.502 221.567 8.348 221.567 9.284ZM219.857 9.284C219.857 8.636 219.719 8.06 219.443 7.556C219.179 7.04 218.813 6.644 218.345 6.368C217.889 6.08 217.379 5.936 216.815 5.936C216.251 5.936 215.735 6.08 215.267 6.368C214.811 6.644 214.445 7.04 214.169 7.556C213.905 8.06 213.773 8.636 213.773 9.284C213.773 9.92 213.905 10.49 214.169 10.994C214.445 11.498 214.811 11.894 215.267 12.182C215.735 12.458 216.251 12.596 216.815 12.596C217.379 12.596 217.889 12.458 218.345 12.182C218.813 11.894 219.179 11.498 219.443 10.994C219.719 10.49 219.857 9.92 219.857 9.284ZM231.259 12.506C231.439 12.698 231.529 12.908 231.529 13.136C231.529 13.376 231.433 13.58 231.241 13.748C231.061 13.904 230.869 13.982 230.665 13.982C230.401 13.982 230.191 13.886 230.035 13.694L226.489 9.932L225.409 10.904V13.136C225.409 13.376 225.325 13.58 225.157 13.748C225.001 13.916 224.803 14 224.563 14C224.311 14 224.101 13.916 223.933 13.748C223.777 13.58 223.699 13.376 223.699 13.136V1.544C223.699 1.304 223.777 1.1 223.933 0.932C224.101 0.764 224.311 0.68 224.563 0.68C224.803 0.68 225.001 0.764 225.157 0.932C225.325 1.1 225.409 1.304 225.409 1.544V8.852L229.819 4.802C230.023 4.622 230.233 4.532 230.449 4.532C230.653 4.532 230.839 4.622 231.007 4.802C231.175 4.97 231.259 5.15 231.259 5.342C231.259 5.582 231.145 5.798 230.917 5.99L227.803 8.762L231.259 12.506Z" fill="#7C878E"/>
</svg>
