<svg width="27" height="22" viewBox="0 0 27 22" fill="none" xmlns="http://www.w3.org/2000/svg">
<path fill-rule="evenodd" clip-rule="evenodd" d="M22.2812 1.48867C22.7185 1.04609 23.3089 0.797001 23.9247 0.795267C24.5405 0.793532 25.1323 1.03929 25.572 1.4794C26.0117 1.91952 26.2641 2.51863 26.2746 3.14721C26.2851 3.77579 26.0529 4.38333 25.6281 4.83848L13.1531 20.7581C12.9387 20.9938 12.6799 21.183 12.3922 21.3144C12.1046 21.4457 11.7939 21.5164 11.4789 21.5224C11.1638 21.5284 10.8508 21.4694 10.5586 21.349C10.2663 21.2287 10.0009 21.0494 9.77807 20.8219L1.51244 12.3804C1.28217 12.1613 1.09748 11.8971 0.969378 11.6036C0.841278 11.3101 0.772397 10.9933 0.766844 10.672C0.761292 10.3507 0.819182 10.0316 0.93706 9.73369C1.05494 9.43575 1.23039 9.16511 1.45295 8.9379C1.67551 8.71069 1.94061 8.53157 2.23245 8.41123C2.52429 8.29089 2.83688 8.23179 3.15158 8.23746C3.46627 8.24312 3.77663 8.31344 4.06413 8.44422C4.35162 8.575 4.61037 8.76355 4.82494 8.99863L11.3687 15.6759L22.2218 1.55886C22.2412 1.53414 22.2621 1.5107 22.2843 1.48867H22.2812Z" fill="#32C755"/>
</svg>
