<svg width="160" height="50" viewBox="0 0 160 50" fill="none" xmlns="http://www.w3.org/2000/svg">
<rect width="160" height="50" rx="10" fill="#32C755"/>
<path d="M34.92 15C35.94 15 36.91 15.31 37.83 15.93C38.75 16.53 39.49 17.35 40.05 18.39C40.61 19.41 40.89 20.53 40.89 21.75C40.89 22.95 40.61 24.07 40.05 25.11C39.49 26.15 38.75 26.98 37.83 27.6C36.91 28.2 35.94 28.5 34.92 28.5H29.7V34.17C29.7 34.71 29.54 35.15 29.22 35.49C28.9 35.83 28.48 36 27.96 36C27.46 36 27.05 35.83 26.73 35.49C26.41 35.13 26.25 34.69 26.25 34.17V16.83C26.25 16.31 26.42 15.88 26.76 15.54C27.12 15.18 27.56 15 28.08 15H34.92ZM34.92 25.08C35.3 25.08 35.67 24.92 36.03 24.6C36.41 24.28 36.71 23.87 36.93 23.37C37.17 22.85 37.29 22.31 37.29 21.75C37.29 21.19 37.17 20.66 36.93 20.16C36.71 19.64 36.41 19.23 36.03 18.93C35.67 18.61 35.3 18.45 34.92 18.45H29.7V25.08H34.92ZM56.8697 19.65C57.3897 19.65 57.8197 19.82 58.1597 20.16C58.4997 20.5 58.6697 20.94 58.6697 21.48V34.17C58.6697 34.69 58.4997 35.13 58.1597 35.49C57.8197 35.83 57.3897 36 56.8697 36C56.3497 36 55.9197 35.83 55.5797 35.49C55.2597 35.15 55.0897 34.72 55.0697 34.2C54.5697 34.78 53.8897 35.28 53.0297 35.7C52.1897 36.1 51.2997 36.3 50.3597 36.3C48.9797 36.3 47.7297 35.95 46.6097 35.25C45.4897 34.53 44.5997 33.54 43.9397 32.28C43.2997 31.02 42.9797 29.59 42.9797 27.99C42.9797 26.39 43.2997 24.96 43.9397 23.7C44.5797 22.42 45.4497 21.43 46.5497 20.73C47.6697 20.01 48.8997 19.65 50.2397 19.65C51.1997 19.65 52.0997 19.83 52.9397 20.19C53.7797 20.53 54.4897 20.97 55.0697 21.51V21.48C55.0697 20.96 55.2397 20.53 55.5797 20.19C55.9197 19.83 56.3497 19.65 56.8697 19.65ZM50.8097 33C52.1097 33 53.1697 32.53 53.9897 31.59C54.8097 30.63 55.2197 29.43 55.2197 27.99C55.2197 26.55 54.8097 25.35 53.9897 24.39C53.1697 23.43 52.1097 22.95 50.8097 22.95C49.5297 22.95 48.4797 23.43 47.6597 24.39C46.8397 25.35 46.4297 26.55 46.4297 27.99C46.4297 29.43 46.8297 30.63 47.6297 31.59C48.4497 32.53 49.5097 33 50.8097 33ZM75.8611 19.65C76.3811 19.65 76.8111 19.82 77.1511 20.16C77.4911 20.5 77.6611 20.94 77.6611 21.48V34.83C77.6611 37.27 76.9011 39.07 75.3811 40.23C73.8811 41.41 71.9711 42 69.6511 42C69.0511 42 68.2211 41.9 67.1611 41.7C66.1211 41.5 65.3811 41.3 64.9411 41.1C63.9611 40.68 63.4711 40.1 63.4711 39.36C63.4711 39.22 63.5011 39.06 63.5611 38.88C63.6811 38.44 63.8811 38.1 64.1611 37.86C64.4611 37.64 64.7811 37.53 65.1211 37.53C65.3211 37.53 65.5111 37.56 65.6911 37.62C65.7711 37.64 66.2611 37.82 67.1611 38.16C68.0811 38.52 68.9111 38.7 69.6511 38.7C71.1311 38.7 72.2311 38.4 72.9511 37.8C73.6911 37.22 74.0611 36.39 74.0611 35.31V33.87C73.6211 34.49 72.9511 35.05 72.0511 35.55C71.1711 36.05 70.2211 36.3 69.2011 36.3C67.8011 36.3 66.5211 35.95 65.3611 35.25C64.2211 34.53 63.3211 33.54 62.6611 32.28C62.0011 31.02 61.6711 29.59 61.6711 27.99C61.6711 26.39 61.9911 24.96 62.6311 23.7C63.2911 22.42 64.1811 21.43 65.3011 20.73C66.4411 20.01 67.7011 19.65 69.0811 19.65C70.1011 19.65 71.0511 19.86 71.9311 20.28C72.8111 20.7 73.5211 21.21 74.0611 21.81V21.48C74.0611 20.96 74.2311 20.53 74.5711 20.19C74.9111 19.83 75.3411 19.65 75.8611 19.65ZM69.6511 33C70.9911 33 72.0811 32.53 72.9211 31.59C73.7811 30.63 74.2111 29.43 74.2111 27.99C74.2111 26.55 73.7811 25.35 72.9211 24.39C72.0811 23.43 70.9911 22.95 69.6511 22.95C68.3111 22.95 67.2211 23.43 66.3811 24.39C65.5411 25.35 65.1211 26.55 65.1211 27.99C65.1211 29.43 65.5411 30.63 66.3811 31.59C67.2211 32.53 68.3111 33 69.6511 33ZM94.399 19.65C94.919 19.65 95.349 19.82 95.689 20.16C96.029 20.5 96.199 20.94 96.199 21.48V34.17C96.199 34.69 96.029 35.13 95.689 35.49C95.349 35.83 94.919 36 94.399 36C93.879 36 93.449 35.83 93.109 35.49C92.789 35.15 92.619 34.72 92.599 34.2C92.099 34.78 91.419 35.28 90.559 35.7C89.719 36.1 88.829 36.3 87.889 36.3C86.509 36.3 85.259 35.95 84.139 35.25C83.019 34.53 82.129 33.54 81.469 32.28C80.829 31.02 80.509 29.59 80.509 27.99C80.509 26.39 80.829 24.96 81.469 23.7C82.109 22.42 82.979 21.43 84.079 20.73C85.199 20.01 86.429 19.65 87.769 19.65C88.729 19.65 89.629 19.83 90.469 20.19C91.309 20.53 92.019 20.97 92.599 21.51V21.48C92.599 20.96 92.769 20.53 93.109 20.19C93.449 19.83 93.879 19.65 94.399 19.65ZM88.339 33C89.639 33 90.699 32.53 91.519 31.59C92.339 30.63 92.749 29.43 92.749 27.99C92.749 26.55 92.339 25.35 91.519 24.39C90.699 23.43 89.639 22.95 88.339 22.95C87.059 22.95 86.009 23.43 85.189 24.39C84.369 25.35 83.959 26.55 83.959 27.99C83.959 29.43 84.359 30.63 85.159 31.59C85.979 32.53 87.039 33 88.339 33ZM113.09 13.8C113.61 13.8 114.04 13.97 114.38 14.31C114.72 14.65 114.89 15.09 114.89 15.63V34.17C114.89 34.69 114.72 35.13 114.38 35.49C114.04 35.83 113.61 36 113.09 36C112.57 36 112.14 35.83 111.8 35.49C111.48 35.15 111.31 34.72 111.29 34.2C110.79 34.78 110.11 35.28 109.25 35.7C108.41 36.1 107.52 36.3 106.58 36.3C105.2 36.3 103.95 35.95 102.83 35.25C101.71 34.53 100.82 33.54 100.16 32.28C99.5204 31.02 99.2004 29.59 99.2004 27.99C99.2004 26.39 99.5204 24.96 100.16 23.7C100.8 22.42 101.67 21.43 102.77 20.73C103.89 20.01 105.12 19.65 106.46 19.65C107.42 19.65 108.32 19.83 109.16 20.19C110 20.53 110.71 20.97 111.29 21.51V15.63C111.29 15.11 111.46 14.68 111.8 14.34C112.14 13.98 112.57 13.8 113.09 13.8ZM107.03 33C108.33 33 109.39 32.53 110.21 31.59C111.03 30.63 111.44 29.43 111.44 27.99C111.44 26.55 111.03 25.35 110.21 24.39C109.39 23.43 108.33 22.95 107.03 22.95C105.75 22.95 104.7 23.43 103.88 24.39C103.06 25.35 102.65 26.55 102.65 27.99C102.65 29.43 103.05 30.63 103.85 31.59C104.67 32.53 105.73 33 107.03 33ZM134.212 27.99C134.212 29.59 133.852 31.03 133.132 32.31C132.412 33.57 131.422 34.55 130.162 35.25C128.922 35.95 127.552 36.3 126.052 36.3C124.532 36.3 123.152 35.95 121.912 35.25C120.672 34.55 119.692 33.57 118.972 32.31C118.252 31.03 117.892 29.59 117.892 27.99C117.892 26.39 118.252 24.96 118.972 23.7C119.692 22.42 120.672 21.43 121.912 20.73C123.152 20.01 124.532 19.65 126.052 19.65C127.552 19.65 128.922 20.01 130.162 20.73C131.422 21.43 132.412 22.42 133.132 23.7C133.852 24.96 134.212 26.39 134.212 27.99ZM130.612 27.99C130.612 27.01 130.402 26.14 129.982 25.38C129.582 24.6 129.032 24 128.332 23.58C127.652 23.16 126.892 22.95 126.052 22.95C125.212 22.95 124.442 23.16 123.742 23.58C123.062 24 122.512 24.6 122.092 25.38C121.692 26.14 121.492 27.01 121.492 27.99C121.492 28.97 121.692 29.84 122.092 30.6C122.512 31.36 123.062 31.95 123.742 32.37C124.442 32.79 125.212 33 126.052 33C126.892 33 127.652 32.79 128.332 32.37C129.032 31.95 129.582 31.36 129.982 30.6C130.402 29.84 130.612 28.97 130.612 27.99Z" fill="white"/>
</svg>
