<svg width="24" height="24" viewBox="0 0 24 24" fill="none" xmlns="http://www.w3.org/2000/svg">
<path d="M3.24891 20.7561L3.24894 20.7561L3.24389 20.7511C2.10292 19.6262 1.21819 18.3214 0.588454 16.8329L3.90746 13.5139C4.02127 14.1376 4.20939 14.7454 4.47147 15.3366C4.881 16.2604 5.45232 17.088 6.18216 17.8178C6.912 18.5477 7.73963 19.119 8.66344 19.5285C9.25465 19.7906 9.86244 19.9787 10.4861 20.0925L7.16706 23.4115C5.67864 22.7818 4.37381 21.8971 3.24891 20.7561ZM20.7561 20.7511L20.7561 20.7511L20.7511 20.7561C19.6262 21.8971 18.3214 22.7818 16.8329 23.4115L13.5139 20.0925C14.1376 19.9787 14.7454 19.7906 15.3366 19.5285C16.2604 19.119 17.088 18.5477 17.8178 17.8178C18.5477 17.088 19.119 16.2604 19.5285 15.3366C19.7906 14.7454 19.9787 14.1376 20.0925 13.5139L23.4115 16.8329C22.7818 18.3214 21.8971 19.6262 20.7561 20.7511ZM20.7511 3.24389L20.7511 3.24393L20.7561 3.24891C21.8971 4.37381 22.7818 5.67864 23.4115 7.16706L20.0925 10.4861C19.9787 9.86244 19.7906 9.25465 19.5285 8.66344C19.119 7.73963 18.5477 6.912 17.8178 6.18216C17.088 5.45232 16.2604 4.881 15.3366 4.47147C14.7454 4.20939 14.1376 4.02127 13.5139 3.90746L16.8329 0.588454C18.3214 1.21819 19.6262 2.10292 20.7511 3.24389ZM3.24389 3.24891L3.24393 3.24894L3.24891 3.24389C4.37381 2.10292 5.67864 1.21819 7.16706 0.588454L10.4861 3.90746C9.86244 4.02127 9.25465 4.20939 8.66344 4.47147C7.73963 4.881 6.912 5.45232 6.18216 6.18216C5.45232 6.912 4.881 7.73963 4.47147 8.66344C4.20939 9.25465 4.02127 9.86244 3.90746 10.4861L0.588454 7.16706C1.21819 5.67864 2.10292 4.37381 3.24389 3.24891Z" fill="#9B26B6" stroke="#9B26B6"/>
</svg>
