<svg width="188" height="58" viewBox="0 0 188 58" fill="none" xmlns="http://www.w3.org/2000/svg">
<g filter="url(#filter0_d)">
<rect x="4" width="180" height="50" rx="10" fill="#9B26B6"/>
<path d="M54.8704 32.1846C55.1131 32.3339 55.2998 32.5299 55.4304 32.7726C55.5798 33.0152 55.6544 33.2672 55.6544 33.5286C55.6544 33.8646 55.5424 34.1726 55.3184 34.4526C55.0384 34.7886 54.6091 34.9566 54.0304 34.9566C53.5824 34.9566 53.1718 34.8539 52.7984 34.6486C51.4544 33.8832 50.7824 32.3246 50.7824 29.9726C50.7824 29.3006 50.5584 28.7686 50.1104 28.3766C49.6811 27.9846 49.0558 27.7886 48.2344 27.7886H42.9984V33.2206C42.9984 33.7246 42.8584 34.1352 42.5784 34.4526C42.3171 34.7699 41.9624 34.9286 41.5144 34.9286C40.9731 34.9286 40.4971 34.7699 40.0864 34.4526C39.6944 34.1166 39.4984 33.7059 39.4984 33.2206V17.0366C39.4984 16.5512 39.6571 16.1499 39.9744 15.8326C40.3104 15.4966 40.7211 15.3286 41.2064 15.3286H49.2704C50.2411 15.3286 51.1558 15.5899 52.0144 16.1126C52.8731 16.6352 53.5544 17.3539 54.0584 18.2686C54.5811 19.1832 54.8424 20.2099 54.8424 21.3486C54.8424 22.2819 54.5904 23.1966 54.0864 24.0926C53.5824 24.9699 52.9291 25.6699 52.1264 26.1926C53.3024 27.0139 53.9464 28.1152 54.0584 29.4966C54.1144 29.7952 54.1424 30.0846 54.1424 30.3646C54.2171 30.9432 54.2918 31.3632 54.3664 31.6246C54.4411 31.8672 54.6091 32.0539 54.8704 32.1846ZM49.1304 24.9046C49.4664 24.9046 49.7931 24.7459 50.1104 24.4286C50.4278 24.1112 50.6891 23.6912 50.8944 23.1686C51.0998 22.6272 51.2024 22.0486 51.2024 21.4326C51.2024 20.9099 51.0998 20.4339 50.8944 20.0046C50.6891 19.5566 50.4278 19.2019 50.1104 18.9406C49.7931 18.6792 49.4664 18.5486 49.1304 18.5486H42.9984V24.9046H49.1304ZM71.7444 27.0886C71.7257 27.5366 71.5484 27.9006 71.2124 28.1806C70.8764 28.4606 70.4844 28.6006 70.0364 28.6006H60.7964C61.0204 29.7019 61.5337 30.5699 62.3364 31.2046C63.139 31.8206 64.0444 32.1286 65.0524 32.1286C65.8177 32.1286 66.415 32.0632 66.8444 31.9326C67.2737 31.7832 67.6097 31.6339 67.8524 31.4846C68.1137 31.3166 68.291 31.2046 68.3844 31.1486C68.7204 30.9806 69.0377 30.8966 69.3364 30.8966C69.7284 30.8966 70.0644 31.0366 70.3444 31.3166C70.6244 31.5966 70.7644 31.9232 70.7644 32.2966C70.7644 32.8006 70.503 33.2579 69.9804 33.6686C69.4577 34.0979 68.7577 34.4619 67.8804 34.7606C67.003 35.0592 66.1164 35.2086 65.2204 35.2086C63.6524 35.2086 62.2804 34.8819 61.1044 34.2286C59.947 33.5752 59.051 32.6792 58.4164 31.5406C57.7817 30.3832 57.4644 29.0859 57.4644 27.6486C57.4644 26.0432 57.8004 24.6339 58.4724 23.4206C59.1444 22.2072 60.031 21.2832 61.1324 20.6486C62.2337 19.9952 63.4097 19.6686 64.6604 19.6686C65.8924 19.6686 67.0497 20.0046 68.1324 20.6766C69.2337 21.3486 70.111 22.2539 70.7644 23.3926C71.4177 24.5312 71.7444 25.7632 71.7444 27.0886ZM64.6604 22.7486C62.495 22.7486 61.2164 23.7659 60.8244 25.8006H68.1604V25.6046C68.0857 24.8206 67.703 24.1486 67.0124 23.5886C66.3217 23.0286 65.5377 22.7486 64.6604 22.7486ZM86.8138 19.6686C87.2992 19.6686 87.7005 19.8272 88.0178 20.1446C88.3352 20.4619 88.4938 20.8726 88.4938 21.3766V33.8366C88.4938 36.1139 87.7845 37.7939 86.3658 38.8766C84.9658 39.9779 83.1832 40.5286 81.0178 40.5286C80.4578 40.5286 79.6832 40.4352 78.6938 40.2486C77.7232 40.0619 77.0325 39.8752 76.6218 39.6886C75.7072 39.2966 75.2498 38.7552 75.2498 38.0646C75.2498 37.9339 75.2778 37.7846 75.3338 37.6166C75.4458 37.2059 75.6325 36.8886 75.8938 36.6646C76.1738 36.4592 76.4725 36.3566 76.7898 36.3566C76.9765 36.3566 77.1538 36.3846 77.3218 36.4406C77.3965 36.4592 77.8538 36.6272 78.6938 36.9446C79.5525 37.2806 80.3272 37.4486 81.0178 37.4486C82.3992 37.4486 83.4258 37.1686 84.0978 36.6086C84.7885 36.0672 85.1338 35.2926 85.1338 34.2846V32.9406C84.7232 33.5192 84.0978 34.0419 83.2578 34.5086C82.4365 34.9752 81.5498 35.2086 80.5978 35.2086C79.2912 35.2086 78.0965 34.8819 77.0138 34.2286C75.9498 33.5566 75.1098 32.6326 74.4938 31.4566C73.8778 30.2806 73.5698 28.9459 73.5698 27.4526C73.5698 25.9592 73.8685 24.6246 74.4658 23.4486C75.0818 22.2539 75.9125 21.3299 76.9578 20.6766C78.0218 20.0046 79.1978 19.6686 80.4858 19.6686C81.4378 19.6686 82.3245 19.8646 83.1458 20.2566C83.9672 20.6486 84.6298 21.1246 85.1338 21.6846V21.3766C85.1338 20.8912 85.2925 20.4899 85.6098 20.1726C85.9272 19.8366 86.3285 19.6686 86.8138 19.6686ZM81.0178 32.1286C82.2685 32.1286 83.2858 31.6899 84.0698 30.8126C84.8725 29.9166 85.2738 28.7966 85.2738 27.4526C85.2738 26.1086 84.8725 24.9886 84.0698 24.0926C83.2858 23.1966 82.2685 22.7486 81.0178 22.7486C79.7672 22.7486 78.7498 23.1966 77.9658 24.0926C77.1818 24.9886 76.7898 26.1086 76.7898 27.4526C76.7898 28.7966 77.1818 29.9166 77.9658 30.8126C78.7498 31.6899 79.7672 32.1286 81.0178 32.1286ZM95.2926 33.2206C95.2926 33.7059 95.1339 34.1166 94.8166 34.4526C94.4993 34.7699 94.0979 34.9286 93.6126 34.9286C93.1273 34.9286 92.7259 34.7699 92.4086 34.4526C92.0913 34.1166 91.9326 33.7059 91.9326 33.2206V21.6566C91.9326 21.1712 92.0913 20.7699 92.4086 20.4526C92.7259 20.1166 93.1273 19.9486 93.6126 19.9486C94.0979 19.9486 94.4993 20.1166 94.8166 20.4526C95.1339 20.7699 95.2926 21.1712 95.2926 21.6566V33.2206ZM93.5846 18.1286C92.9499 18.1286 92.5019 18.0259 92.2406 17.8206C91.9793 17.6152 91.8486 17.2512 91.8486 16.7286V16.1966C91.8486 15.6739 91.9886 15.3099 92.2686 15.1046C92.5486 14.8992 92.9966 14.7966 93.6126 14.7966C94.2659 14.7966 94.7233 14.8992 94.9846 15.1046C95.2459 15.3099 95.3766 15.6739 95.3766 16.1966V16.7286C95.3766 17.2699 95.2366 17.6432 94.9566 17.8486C94.6953 18.0352 94.2379 18.1286 93.5846 18.1286ZM97.8778 32.6046C97.7098 32.3806 97.6258 32.1006 97.6258 31.7646C97.6258 31.2792 97.8684 30.8686 98.3538 30.5326C98.6151 30.3646 98.8858 30.2806 99.1658 30.2806C99.5578 30.2806 99.9311 30.4579 100.286 30.8126C100.846 31.3912 101.424 31.8206 102.022 32.1006C102.638 32.3806 103.375 32.5206 104.234 32.5206C105.69 32.4646 106.418 31.9139 106.418 30.8686C106.418 30.3272 106.166 29.9166 105.662 29.6366C105.176 29.3566 104.411 29.0766 103.366 28.7966C102.283 28.4979 101.396 28.1992 100.706 27.9006C100.034 27.6019 99.4458 27.1539 98.9418 26.5566C98.4564 25.9406 98.2138 25.1192 98.2138 24.0926C98.2138 23.1966 98.4658 22.4219 98.9698 21.7686C99.4924 21.0966 100.164 20.5832 100.986 20.2286C101.826 19.8552 102.712 19.6686 103.646 19.6686C104.598 19.6686 105.55 19.8459 106.502 20.2006C107.454 20.5552 108.2 21.0779 108.742 21.7686C108.984 22.0672 109.106 22.4032 109.106 22.7766C109.106 23.2059 108.928 23.5606 108.574 23.8406C108.312 24.0459 108.014 24.1486 107.678 24.1486C107.267 24.1486 106.931 24.0179 106.67 23.7566C106.334 23.3459 105.895 23.0192 105.354 22.7766C104.831 22.5339 104.234 22.4126 103.562 22.4126C102.143 22.4126 101.434 22.9259 101.434 23.9526C101.434 24.3632 101.564 24.6992 101.826 24.9606C102.087 25.2032 102.414 25.3992 102.806 25.5486C103.216 25.6792 103.786 25.8472 104.514 26.0526C105.522 26.3326 106.362 26.6219 107.034 26.9206C107.706 27.2192 108.275 27.6766 108.742 28.2926C109.208 28.9086 109.442 29.7206 109.442 30.7286C109.442 31.6432 109.171 32.4459 108.63 33.1366C108.088 33.8086 107.388 34.3219 106.53 34.6766C105.69 35.0312 104.822 35.2086 103.926 35.2086C102.694 35.2086 101.546 35.0032 100.482 34.5926C99.4178 34.1819 98.5498 33.5192 97.8778 32.6046ZM119.478 31.7646C119.739 31.7646 119.972 31.8952 120.178 32.1566C120.402 32.3992 120.514 32.7259 120.514 33.1366C120.514 33.6406 120.234 34.0699 119.674 34.4246C119.132 34.7606 118.516 34.9286 117.826 34.9286C116.668 34.9286 115.688 34.6859 114.886 34.2006C114.102 33.6966 113.71 32.6419 113.71 31.0366V23.3086H112.422C111.974 23.3086 111.6 23.1592 111.302 22.8606C111.003 22.5619 110.854 22.1886 110.854 21.7406C110.854 21.3112 111.003 20.9566 111.302 20.6766C111.6 20.3779 111.974 20.2286 112.422 20.2286H113.71V18.4366C113.71 17.9512 113.868 17.5499 114.186 17.2326C114.522 16.8966 114.932 16.7286 115.418 16.7286C115.884 16.7286 116.276 16.8966 116.594 17.2326C116.911 17.5499 117.07 17.9512 117.07 18.4366V20.2286H119.058C119.506 20.2286 119.879 20.3779 120.178 20.6766C120.476 20.9752 120.626 21.3486 120.626 21.7966C120.626 22.2259 120.476 22.5899 120.178 22.8886C119.879 23.1686 119.506 23.3086 119.058 23.3086H117.07V30.8966C117.07 31.2886 117.172 31.5779 117.378 31.7646C117.583 31.9326 117.863 32.0166 118.218 32.0166C118.367 32.0166 118.572 31.9792 118.834 31.9046C119.058 31.8112 119.272 31.7646 119.478 31.7646ZM131.495 19.6686C132.055 19.6686 132.521 19.8272 132.895 20.1446C133.287 20.4619 133.483 20.8352 133.483 21.2646C133.483 21.8432 133.333 22.2819 133.035 22.5806C132.736 22.8606 132.381 23.0006 131.971 23.0006C131.691 23.0006 131.373 22.9352 131.019 22.8046C130.963 22.7859 130.832 22.7486 130.627 22.6926C130.44 22.6366 130.235 22.6086 130.011 22.6086C129.525 22.6086 129.059 22.7579 128.611 23.0566C128.163 23.3552 127.789 23.8126 127.491 24.4286C127.211 25.0259 127.071 25.7446 127.071 26.5846V33.2206C127.071 33.7059 126.912 34.1166 126.595 34.4526C126.277 34.7699 125.876 34.9286 125.391 34.9286C124.905 34.9286 124.504 34.7699 124.187 34.4526C123.869 34.1166 123.711 33.7059 123.711 33.2206V21.6566C123.711 21.1712 123.869 20.7699 124.187 20.4526C124.504 20.1166 124.905 19.9486 125.391 19.9486C125.876 19.9486 126.277 20.1166 126.595 20.4526C126.912 20.7699 127.071 21.1712 127.071 21.6566V22.0206C127.5 21.2552 128.116 20.6766 128.919 20.2846C129.721 19.8739 130.58 19.6686 131.495 19.6686ZM149.614 27.4526C149.614 28.9459 149.278 30.2899 148.606 31.4846C147.934 32.6606 147.01 33.5752 145.834 34.2286C144.677 34.8819 143.398 35.2086 141.998 35.2086C140.58 35.2086 139.292 34.8819 138.134 34.2286C136.977 33.5752 136.062 32.6606 135.39 31.4846C134.718 30.2899 134.382 28.9459 134.382 27.4526C134.382 25.9592 134.718 24.6246 135.39 23.4486C136.062 22.2539 136.977 21.3299 138.134 20.6766C139.292 20.0046 140.58 19.6686 141.998 19.6686C143.398 19.6686 144.677 20.0046 145.834 20.6766C147.01 21.3299 147.934 22.2539 148.606 23.4486C149.278 24.6246 149.614 25.9592 149.614 27.4526ZM146.254 27.4526C146.254 26.5379 146.058 25.7259 145.666 25.0166C145.293 24.2886 144.78 23.7286 144.126 23.3366C143.492 22.9446 142.782 22.7486 141.998 22.7486C141.214 22.7486 140.496 22.9446 139.842 23.3366C139.208 23.7286 138.694 24.2886 138.302 25.0166C137.929 25.7259 137.742 26.5379 137.742 27.4526C137.742 28.3672 137.929 29.1792 138.302 29.8886C138.694 30.5979 139.208 31.1486 139.842 31.5406C140.496 31.9326 141.214 32.1286 141.998 32.1286C142.782 32.1286 143.492 31.9326 144.126 31.5406C144.78 31.1486 145.293 30.5979 145.666 29.8886C146.058 29.1792 146.254 28.3672 146.254 27.4526Z" fill="#E6D9EF"/>
</g>
<defs>
<filter id="filter0_d" x="0" y="0" width="188" height="58" filterUnits="userSpaceOnUse" color-interpolation-filters="sRGB">
<feFlood flood-opacity="0" result="BackgroundImageFix"/>
<feColorMatrix in="SourceAlpha" type="matrix" values="0 0 0 0 0 0 0 0 0 0 0 0 0 0 0 0 0 0 127 0"/>
<feOffset dy="4"/>
<feGaussianBlur stdDeviation="2"/>
<feColorMatrix type="matrix" values="0 0 0 0 0 0 0 0 0 0 0 0 0 0 0 0 0 0 0.25 0"/>
<feBlend mode="normal" in2="BackgroundImageFix" result="effect1_dropShadow"/>
<feBlend mode="normal" in="SourceGraphic" in2="effect1_dropShadow" result="shape"/>
</filter>
</defs>
</svg>
