<svg width="512" height="512" viewBox="0 0 512 512" fill="none" xmlns="http://www.w3.org/2000/svg">
<g clip-path="url(#clip0)">
<path d="M288 448H202.667C196.779 448 192 443.221 192 437.333C192 431.445 196.779 426.667 202.667 426.667H288C305.643 426.667 320 412.309 320 394.667V288C320 282.112 324.779 277.333 330.667 277.333C336.555 277.333 341.333 282.112 341.333 288V394.667C341.333 424.064 317.419 448 288 448Z" fill="black"/>
<path d="M501.333 234.667H288C282.112 234.667 277.333 229.888 277.333 224C277.333 218.112 282.112 213.333 288 213.333H501.333C507.221 213.333 512 218.112 512 224C512 229.888 507.221 234.667 501.333 234.667Z" fill="black"/>
<path d="M170.667 512C165.973 512 161.387 511.211 157.056 509.675L29.2693 467.072C11.776 461.248 0 444.992 0 426.667V42.6667C0 19.136 19.136 0 42.6667 0C47.4027 0 52.0107 0.789333 56.2987 2.34667L184.064 44.928C201.557 50.7307 213.333 66.9867 213.333 85.3333V469.333C213.333 492.864 194.197 512 170.667 512ZM42.6667 21.3333C30.8907 21.3333 21.3333 30.912 21.3333 42.6667V426.667C21.3333 435.797 27.2213 443.904 36.0107 446.848L164.011 489.515C178.005 494.485 192 483.285 192 469.333V85.3333C192 76.1813 186.112 68.0747 177.323 65.1733L49.3227 22.5067C47.1253 21.7173 44.8853 21.3333 42.6667 21.3333Z" fill="black"/>
<path d="M330.667 170.667C324.779 170.667 320 165.888 320 160V53.3333C320 35.6907 305.643 21.3333 288 21.3333H42.6667C36.7787 21.3333 32 16.5547 32 10.6667C32 4.77867 36.7787 0 42.6667 0H288C317.419 0 341.333 23.936 341.333 53.3333V160C341.333 165.888 336.555 170.667 330.667 170.667Z" fill="black"/>
<path d="M416 320C413.269 320 410.539 318.955 408.448 316.885C404.288 312.725 404.288 305.963 408.448 301.803L486.229 224.021L408.448 146.24C404.288 142.08 404.288 135.317 408.448 131.157C412.608 126.997 419.371 126.997 423.531 131.157L508.864 216.491C513.024 220.651 513.024 227.413 508.864 231.573L423.531 316.907C421.461 318.955 418.731 320 416 320Z" fill="black"/>
</g>
<defs>
<clipPath id="clip0">
<rect width="512" height="512" fill="white"/>
</clipPath>
</defs>
</svg>
