<svg width="24" height="24" viewBox="0 0 24 24" fill="none" xmlns="http://www.w3.org/2000/svg">
<ellipse cx="11.5516" cy="12.5" rx="11.5516" ry="11.5" fill="#9B26B5"/>
<path d="M12.7483 18.78C12.7483 19.1267 12.635 19.42 12.4083 19.66C12.1816 19.8867 11.895 20 11.5483 20C11.2016 20 10.915 19.8867 10.6883 19.66C10.4616 19.42 10.3483 19.1267 10.3483 18.78V10.52C10.3483 10.1733 10.4616 9.88667 10.6883 9.66C10.915 9.42 11.2016 9.3 11.5483 9.3C11.895 9.3 12.1816 9.42 12.4083 9.66C12.635 9.88667 12.7483 10.1733 12.7483 10.52V18.78ZM11.5283 8C11.075 8 10.755 7.92667 10.5683 7.78C10.3816 7.63333 10.2883 7.37333 10.2883 7V6.62C10.2883 6.24667 10.3883 5.98667 10.5883 5.84C10.7883 5.69333 11.1083 5.62 11.5483 5.62C12.015 5.62 12.3416 5.69333 12.5283 5.84C12.715 5.98667 12.8083 6.24667 12.8083 6.62V7C12.8083 7.38667 12.7083 7.65333 12.5083 7.8C12.3216 7.93333 11.995 8 11.5283 8Z" fill="white"/>
</svg>
