<svg width="125" height="125" viewBox="0 0 125 125" fill="none" xmlns="http://www.w3.org/2000/svg">
<circle cx="62.5" cy="62.5" r="62.5" fill="#9B26B5"/>
<path d="M49.7157 25.426C50.1157 25.426 50.4597 25.57 50.7477 25.858C51.0517 26.13 51.2037 26.474 51.2037 26.89V40.786C51.2037 41.202 51.0677 41.554 50.7957 41.842C50.5237 42.114 50.1637 42.25 49.7157 42.25C49.2677 42.25 48.8997 42.114 48.6117 41.842C48.3397 41.57 48.2037 41.218 48.2037 40.786V31.114L44.2437 37.162C44.0837 37.354 43.8997 37.514 43.6917 37.642C43.4837 37.754 43.2677 37.802 43.0437 37.786C42.8357 37.802 42.6277 37.754 42.4197 37.642C42.2117 37.514 42.0277 37.354 41.8677 37.162L37.9077 30.898V40.786C37.9077 41.218 37.7797 41.57 37.5237 41.842C37.2677 42.114 36.9317 42.25 36.5157 42.25C36.1157 42.25 35.7877 42.114 35.5317 41.842C35.2757 41.554 35.1477 41.202 35.1477 40.786V26.89C35.1477 26.49 35.2917 26.146 35.5797 25.858C35.8837 25.57 36.2437 25.426 36.6597 25.426C36.8997 25.426 37.1397 25.49 37.3797 25.618C37.6197 25.73 37.8037 25.882 37.9317 26.074L43.1637 34.114L48.5397 26.074C48.6677 25.882 48.8357 25.73 49.0437 25.618C49.2677 25.49 49.4917 25.426 49.7157 25.426ZM66.0917 35.53C66.0757 35.914 65.9237 36.226 65.6357 36.466C65.3477 36.706 65.0117 36.826 64.6277 36.826H56.7077C56.8997 37.77 57.3397 38.514 58.0277 39.058C58.7157 39.586 59.4917 39.85 60.3557 39.85C61.0117 39.85 61.5237 39.794 61.8917 39.682C62.2597 39.554 62.5477 39.426 62.7557 39.298C62.9797 39.154 63.1317 39.058 63.2117 39.01C63.4997 38.866 63.7717 38.794 64.0277 38.794C64.3637 38.794 64.6517 38.914 64.8917 39.154C65.1317 39.394 65.2517 39.674 65.2517 39.994C65.2517 40.426 65.0277 40.818 64.5797 41.17C64.1317 41.538 63.5317 41.85 62.7797 42.106C62.0277 42.362 61.2677 42.49 60.4997 42.49C59.1557 42.49 57.9797 42.21 56.9717 41.65C55.9797 41.09 55.2117 40.322 54.6677 39.346C54.1237 38.354 53.8517 37.242 53.8517 36.01C53.8517 34.634 54.1397 33.426 54.7157 32.386C55.2917 31.346 56.0517 30.554 56.9957 30.01C57.9397 29.45 58.9477 29.17 60.0197 29.17C61.0757 29.17 62.0677 29.458 62.9957 30.034C63.9397 30.61 64.6917 31.386 65.2517 32.362C65.8117 33.338 66.0917 34.394 66.0917 35.53ZM60.0197 31.81C58.1637 31.81 57.0677 32.682 56.7317 34.426H63.0197V34.258C62.9557 33.586 62.6277 33.01 62.0357 32.53C61.4437 32.05 60.7717 31.81 60.0197 31.81ZM67.7496 40.258C67.6056 40.066 67.5336 39.826 67.5336 39.538C67.5336 39.122 67.7416 38.77 68.1576 38.482C68.3816 38.338 68.6136 38.266 68.8536 38.266C69.1896 38.266 69.5096 38.418 69.8136 38.722C70.2936 39.218 70.7896 39.586 71.3016 39.826C71.8296 40.066 72.4616 40.186 73.1976 40.186C74.4456 40.138 75.0696 39.666 75.0696 38.77C75.0696 38.306 74.8536 37.954 74.4216 37.714C74.0056 37.474 73.3496 37.234 72.4536 36.994C71.5256 36.738 70.7656 36.482 70.1736 36.226C69.5976 35.97 69.0936 35.586 68.6616 35.074C68.2456 34.546 68.0376 33.842 68.0376 32.962C68.0376 32.194 68.2536 31.53 68.6856 30.97C69.1336 30.394 69.7096 29.954 70.4136 29.65C71.1336 29.33 71.8936 29.17 72.6936 29.17C73.5096 29.17 74.3256 29.322 75.1416 29.626C75.9576 29.93 76.5976 30.378 77.0616 30.97C77.2696 31.226 77.3736 31.514 77.3736 31.834C77.3736 32.202 77.2216 32.506 76.9176 32.746C76.6936 32.922 76.4376 33.01 76.1496 33.01C75.7976 33.01 75.5096 32.898 75.2856 32.674C74.9976 32.322 74.6216 32.042 74.1576 31.834C73.7096 31.626 73.1976 31.522 72.6216 31.522C71.4056 31.522 70.7976 31.962 70.7976 32.842C70.7976 33.194 70.9096 33.482 71.1336 33.706C71.3576 33.914 71.6376 34.082 71.9736 34.21C72.3256 34.322 72.8136 34.466 73.4376 34.642C74.3016 34.882 75.0216 35.13 75.5976 35.386C76.1736 35.642 76.6616 36.034 77.0616 36.562C77.4616 37.09 77.6616 37.786 77.6616 38.65C77.6616 39.434 77.4296 40.122 76.9656 40.714C76.5016 41.29 75.9016 41.73 75.1656 42.034C74.4456 42.338 73.7016 42.49 72.9336 42.49C71.8776 42.49 70.8936 42.314 69.9816 41.962C69.0696 41.61 68.3256 41.042 67.7496 40.258ZM90.6512 29.17C91.0672 29.17 91.4112 29.306 91.6832 29.578C91.9552 29.85 92.0912 30.202 92.0912 30.634V40.786C92.0912 41.202 91.9552 41.554 91.6832 41.842C91.4112 42.114 91.0672 42.25 90.6512 42.25C90.2352 42.25 89.8912 42.114 89.6192 41.842C89.3632 41.57 89.2272 41.226 89.2112 40.81C88.8112 41.274 88.2672 41.674 87.5792 42.01C86.9072 42.33 86.1952 42.49 85.4432 42.49C84.3392 42.49 83.3392 42.21 82.4432 41.65C81.5472 41.074 80.8352 40.282 80.3072 39.274C79.7952 38.266 79.5392 37.122 79.5392 35.842C79.5392 34.562 79.7952 33.418 80.3072 32.41C80.8192 31.386 81.5152 30.594 82.3952 30.034C83.2912 29.458 84.2752 29.17 85.3472 29.17C86.1152 29.17 86.8352 29.314 87.5072 29.602C88.1792 29.874 88.7472 30.226 89.2112 30.658V30.634C89.2112 30.218 89.3472 29.874 89.6192 29.602C89.8912 29.314 90.2352 29.17 90.6512 29.17ZM85.8032 39.85C86.8432 39.85 87.6912 39.474 88.3472 38.722C89.0032 37.954 89.3312 36.994 89.3312 35.842C89.3312 34.69 89.0032 33.73 88.3472 32.962C87.6912 32.194 86.8432 31.81 85.8032 31.81C84.7792 31.81 83.9392 32.194 83.2832 32.962C82.6272 33.73 82.2992 34.69 82.2992 35.842C82.2992 36.994 82.6192 37.954 83.2592 38.722C83.9152 39.474 84.7632 39.85 85.8032 39.85Z" fill="white"/>
</svg>
