<svg width="24" height="24" viewBox="0 0 24 24" fill="none" xmlns="http://www.w3.org/2000/svg">
<path d="M12 10C12.7911 10 13.5645 9.7654 14.2223 9.32588C14.8801 8.88635 15.3928 8.26164 15.6955 7.53073C15.9983 6.79983 16.0775 5.99556 15.9231 5.21964C15.7688 4.44372 15.3878 3.73098 14.8284 3.17157C14.269 2.61216 13.5563 2.2312 12.7804 2.07686C12.0044 1.92252 11.2002 2.00173 10.4693 2.30448C9.73836 2.60723 9.11365 3.11992 8.67412 3.77772C8.2346 4.43552 8 5.20888 8 6C8 7.06087 8.42143 8.07828 9.17157 8.82843C9.92172 9.57857 10.9391 10 12 10ZM12 3.14286C12.5651 3.14286 13.1175 3.31043 13.5873 3.62437C14.0572 3.93832 14.4234 4.38455 14.6397 4.90662C14.8559 5.42869 14.9125 6.00317 14.8022 6.5574C14.692 7.11163 14.4199 7.62073 14.0203 8.02031C13.6207 8.41988 13.1116 8.692 12.5574 8.80224C12.0032 8.91249 11.4287 8.85591 10.9066 8.63966C10.3845 8.42341 9.93832 8.0572 9.62437 7.58734C9.31043 7.11749 9.14286 6.56509 9.14286 6C9.14286 5.24224 9.44388 4.51551 9.97969 3.9797C10.5155 3.44388 11.2422 3.14286 12 3.14286Z" fill="black"/>
<path d="M20.633 15.4507C19.5228 14.3608 18.1849 13.4926 16.7011 12.8993C15.2173 12.306 13.6189 12 12.0034 12C10.388 12 8.78955 12.306 7.30577 12.8993C5.822 13.4926 4.48409 14.3608 3.37385 15.4507C3.13314 15.6895 2.99946 16.0045 3 16.3317V19.714C3 20.055 3.14588 20.3821 3.40555 20.6233C3.66521 20.8645 4.01739 21 4.38461 21H19.6154C19.9826 21 20.3348 20.8645 20.5944 20.6233C20.8541 20.3821 21 20.055 21 19.714V16.3317C21.0024 16.0054 20.8712 15.6905 20.633 15.4507ZM19.6154 19.714H4.38461V16.3252C5.36577 15.3656 6.54689 14.6015 7.85609 14.0793C9.16528 13.5572 10.5752 13.2879 12 13.2879C13.4248 13.2879 14.8347 13.5572 16.1439 14.0793C17.4531 14.6015 18.6342 15.3656 19.6154 16.3252V19.714Z" fill="black"/>
</svg>
