<svg width="24" height="23" viewBox="0 0 24 23" fill="none" xmlns="http://www.w3.org/2000/svg">
<path d="M20.73 15.5492C19.6176 14.4301 18.2676 13.537 16.7651 12.9262C15.2626 12.3153 13.6402 12 12 12C10.3598 12 8.73736 12.3153 7.23489 12.9262C5.73241 13.537 4.38244 14.4301 3.27 15.5492C3.09825 15.7255 3.00218 15.9542 3 16.192V20.0487C3.00364 20.3022 3.11465 20.5441 3.30901 20.7222C3.50337 20.9002 3.76543 21 4.03846 21H19.9615C20.237 21 20.5011 20.8984 20.6958 20.7176C20.8906 20.5368 21 20.2915 21 20.0358V16.1791C20.9945 15.9458 20.8986 15.7222 20.73 15.5492V15.5492Z" fill="#9B26B6"/>
<path d="M12 10C14.2091 10 16 8.20914 16 6C16 3.79086 14.2091 2 12 2C9.79086 2 8 3.79086 8 6C8 8.20914 9.79086 10 12 10Z" fill="#9B26B6"/>
</svg>
