<svg width="36" height="36" viewBox="0 0 36 36" fill="none" xmlns="http://www.w3.org/2000/svg">
<path d="M30.4616 23.1429H22.1541V20.5714H30.4616V23.1429Z" fill="black"/>
<path d="M36 33.4286H27.6924V30.8571H36V33.4286Z" fill="black"/>
<path d="M33.2308 28.2857H24.9232V25.7143H33.2308V28.2857Z" fill="black"/>
<path d="M18.0044 23.1429C17.9947 22.058 17.6831 20.9939 17.0998 20.0538C16.5166 19.1137 15.6816 18.3296 14.6759 17.7776L24.9232 1.28571L22.5279 0L12.0368 16.8763C10.7493 16.6092 9.41017 16.6461 8.14198 16.9837C6.87379 17.3213 5.71699 17.9488 4.77738 18.8087C-0.40654 23.4514 -0.00500692 34.3054 0.0143774 34.7657C0.0286901 35.0977 0.180861 35.4117 0.438988 35.6418C0.697115 35.8719 1.04115 36.0003 1.39897 36H22.1554C22.446 36 22.7293 35.9151 22.965 35.7573C23.2008 35.5995 23.3771 35.3769 23.469 35.1209C23.5609 34.8649 23.5637 34.5885 23.4771 34.3309C23.3904 34.0734 23.2187 33.8476 22.9862 33.6857C18.0847 30.2709 18.0044 23.2123 18.0044 23.1429ZM10.9804 19.2819C12.0886 19.2932 13.1494 19.7008 13.9422 20.4199C14.7349 21.1391 15.1986 22.1144 15.2366 23.1429C15.2366 23.1917 15.2394 23.4103 15.2602 23.7459L7.09104 20.3721C7.62915 19.9601 8.25011 19.6515 8.91781 19.4644C9.58551 19.2772 10.2866 19.2151 10.9804 19.2819ZM15.8541 33.4286C14.7474 32.3821 14.042 31.0268 13.8465 29.5714H11.0773C11.1765 30.9398 11.6368 32.2645 12.4176 33.4286H9.33962C8.77021 31.76 8.42377 30.0328 8.3081 28.2857H5.53891C5.6282 30.0275 5.93723 31.7536 6.45967 33.4286H2.76972C2.81264 31.068 3.17125 25.8531 5.26615 22.4319L15.6963 26.739C16.1974 29.1553 17.2658 31.4393 18.8255 33.4286H15.8541Z" fill="black"/>
</svg>
