<?xml version="1.0"?>
<svg xmlns="http://www.w3.org/2000/svg" xmlns:xlink="http://www.w3.org/1999/xlink" xmlns:svgjs="http://svgjs.com/svgjs" version="1.1" width="512" height="512" x="0" y="0" viewBox="0 0 60 52" style="enable-background:new 0 0 512 512" xml:space="preserve" class=""><g><g xmlns="http://www.w3.org/2000/svg" id="Page-1" fill="none" fill-rule="evenodd"><g id="022---Cash" fill="rgb(0,0,0)" fill-rule="nonzero" transform="translate(0 -1)"><path id="Shape" d="m58 12h-41c-.5522847 0-1 .4477153-1 1s.4477153 1 1 1h6.045c-4.4379108 2.8239389-7.1020984 7.7401119-7.045 13-.0570984 5.2598881 2.6070892 10.1760611 7.045 13h-21.045v-26h10c.5522847 0 1-.4477153 1-1s-.4477153-1-1-1h-10c-1.1045695 0-2 .8954305-2 2v26c0 1.1045695.8954305 2 2 2h56c1.1045695 0 2-.8954305 2-2v-26c0-1.1045695-.8954305-2-2-2zm-40 15c0-7.168 5.383-13 12-13s12 5.832 12 13-5.383 13-12 13-12-5.832-12-13zm40 13h-21.045c4.4379108-2.8239389 7.1020984-7.7401119 7.045-13 .0570984-5.2598881-2.6070892-10.1760611-7.045-13h21.045z" fill="#000000" data-original="#000000" style="" class=""/><path id="Shape" d="m52.736 1.21c-.4734207-.23692093-1.0214626-.27647776-1.524-.11l-21.54 7.219c-.5246705.17562655-.8076266.74332949-.632 1.268.1756266.5246705.7433295.8076266 1.268.632l21.534-7.219 2.21 6.589c.1134318.33940232.3993161.5925078.7499631.6639742.3506469.0714663.7127849-.049564.95-.31750005.2372151-.267936.3134687-.64207184.2000369-.98147415l-2.211-6.585c-.1647423-.50619768-.5272331-.92423433-1.005-1.159z" fill="#000000" data-original="#000000" style="" class=""/><path id="Shape" d="m29.692 43.782-21.534 7.218-2.21-6.589c-.17535041-.5246705-.74282949-.8078504-1.2675-.6325s-.80785041.7428295-.6325 1.2675l2.207 6.583c.16356944.5052833.52413035.9231734 1 1.159.27685751.1377021.58178849.2095713.891.21.21495723.0003078.42860579-.0334439.633-.1l21.54-7.219c.5246705-.1756266.8076266-.7433295.632-1.268s-.7433295-.8076266-1.268-.632z" fill="#000000" data-original="#000000" style="" class=""/><path id="Shape" d="m33 23.5c0 .5522847.4477153 1 1 1s1-.4477153 1-1c-.0965423-2.2415987-1.7783513-4.0953727-4-4.409v-.091c0-.5522847-.4477153-1-1-1s-1 .4477153-1 1v.091c-2.2216487.3136273-3.9034577 2.1674013-4 4.409.0965423 2.2415987 1.7783513 4.0953727 4 4.409v4.937c-1.1128409-.2524624-1.9267959-1.2072317-2-2.346 0-.5522847-.4477153-1-1-1s-1 .4477153-1 1c.0965423 2.2415987 1.7783513 4.0953727 4 4.409v.091c0 .5522847.4477153 1 1 1s1-.4477153 1-1v-.091c2.2216487-.3136273 3.9034577-2.1674013 4-4.409-.0965423-2.2415987-1.7783513-4.0953727-4-4.409v-4.937c1.1128409.2524624 1.9267959 1.2072317 2 2.346zm-6 0c.0732041-1.1387683.8871591-2.0935376 2-2.346v4.692c-1.1128409-.2524624-1.9267959-1.2072317-2-2.346zm6 7c-.0732041 1.1387683-.8871591 2.0935376-2 2.346v-4.692c1.1128409.2524624 1.9267959 1.2072317 2 2.346z" fill="#000000" data-original="#000000" style="" class=""/><path id="Shape" d="m51 38h4c.5522847 0 1-.4477153 1-1v-4c0-.5522847-.4477153-1-1-1s-1 .4477153-1 1v3h-3c-.5522847 0-1 .4477153-1 1s.4477153 1 1 1z" fill="#000000" data-original="#000000" style="" class=""/><path id="Shape" d="m5 32c-.55228475 0-1 .4477153-1 1v4c0 .5522847.44771525 1 1 1h4c.55228475 0 1-.4477153 1-1s-.44771525-1-1-1h-3v-3c0-.5522847-.44771525-1-1-1z" fill="#000000" data-original="#000000" style="" class=""/><path id="Shape" d="m9 16h-4c-.55228475 0-1 .4477153-1 1v4c0 .5522847.44771525 1 1 1s1-.4477153 1-1v-3h3c.55228475 0 1-.4477153 1-1s-.44771525-1-1-1z" fill="#000000" data-original="#000000" style="" class=""/><path id="Shape" d="m51 18h3v3c0 .5522847.4477153 1 1 1s1-.4477153 1-1v-4c0-.5522847-.4477153-1-1-1h-4c-.5522847 0-1 .4477153-1 1s.4477153 1 1 1z" fill="#000000" data-original="#000000" style="" class=""/></g></g></g></svg>
