<svg id="Capa_1" enable-background="new 0 0 512 512" height="512" viewBox="0 0 512 512" width="512" xmlns="http://www.w3.org/2000/svg"><g><path d="m510.847 311.23-50-120c-2.329-5.59-7.791-9.23-13.847-9.23h-65.619c12.924-44.391 19.619-90.615 19.619-136.804v-30.196c0-8.284-6.716-15-15-15-40.604 0-60.738 12.427-78.502 23.391-15.034 9.279-26.91 16.609-51.498 16.609s-36.463-7.33-51.499-16.609c-17.763-10.964-37.897-23.391-78.501-23.391-8.284 0-15 6.716-15 15v30.196c0 46.189 6.695 92.412 19.619 136.804h-65.619c-6.056 0-11.517 3.641-13.846 9.23l-50 120c-.762 1.829-1.154 3.79-1.154 5.77v80c0 21.624 12.549 40.365 30.742 49.345l-7.493 11.24c-7.174 10.76-7.839 24.527-1.737 35.929 6.102 11.403 17.926 18.486 30.858 18.486h407.26c12.933 0 24.757-7.083 30.859-18.485s5.436-25.169-1.738-35.929l-7.493-11.24c18.193-8.981 30.742-27.722 30.742-49.346v-80c0-1.98-.393-3.941-1.153-5.77zm-369.847-280.472c22.191 2.391 34.668 10.091 47.745 18.161 16.009 9.882 34.154 21.081 67.255 21.081s51.246-11.199 67.255-21.081c13.077-8.07 25.554-15.771 47.745-18.161v14.438c0 67.754-15.332 135.59-44.389 196.804h-27.164l21.238-101.94c1.689-8.11-3.515-16.055-11.625-17.744-8.106-1.685-16.055 3.515-17.744 11.625l-22.513 108.059h-25.606l-22.512-108.06c-1.689-8.109-9.637-13.315-17.744-11.625-8.11 1.689-13.315 9.634-11.625 17.744l21.237 101.941h-27.164c-29.058-61.215-44.389-129.05-44.389-196.804zm-66 181.242h65.396c3.67 10.132 7.683 20.137 12.015 30h-26.411c-8.284 0-15 6.716-15 15s6.716 15 15 15h260c8.284 0 15-6.716 15-15s-6.716-15-15-15h-26.412c4.332-9.863 8.345-19.868 12.015-30h65.397l37.5 90h-437zm389.038 267.359c-.527.986-1.802 2.641-4.408 2.641h-407.26c-2.606 0-3.88-1.654-4.408-2.641s-1.197-2.964.249-5.133l14.817-22.226h385.945l14.818 22.228c1.444 2.168.775 4.145.247 5.131zm-7.038-57.359h-402c-13.785 0-25-11.215-25-25v-65h452v65c0 13.785-11.215 25-25 25z"/></g></svg>