<svg width="24" height="24" viewBox="0 0 24 24" fill="none" xmlns="http://www.w3.org/2000/svg">
<path d="M7.23097 9.20085L7.28006 8.77101L6.86173 8.66066C5.55862 8.31693 4.5 6.91118 4.5 5.125C4.5 3.04257 5.91663 1.5 7.5 1.5C9.08337 1.5 10.5 3.04257 10.5 5.125C10.5 6.82615 9.53071 8.17992 8.30634 8.59653L7.93181 8.72396L7.9697 9.11776L9.0925 20.7888L9.09246 20.7888L9.09311 20.7947C9.09776 20.8377 9.1 20.8853 9.1 20.9375C9.1 21.7914 8.39159 22.5 7.5 22.5C6.60841 22.5 5.9 21.7914 5.9 20.9375C5.9 20.8765 5.9033 20.82 5.90985 20.7694L5.90991 20.7694L5.91077 20.7619L7.23097 9.20085Z" fill="white" stroke="black"/>
<path d="M16.2282 9.21737L16.2793 8.76969L15.8393 8.67241C14.4951 8.37521 13.5 7.20048 13.5 5.8125V1.6875C13.5 1.5926 13.5812 1.5 13.7 1.5C13.8188 1.5 13.9 1.5926 13.9 1.6875V5.125C13.9 5.7891 14.446 6.3125 15.1 6.3125C15.754 6.3125 16.3 5.7891 16.3 5.125V1.6875C16.3 1.5926 16.3812 1.5 16.5 1.5C16.6188 1.5 16.7 1.5926 16.7 1.6875V5.125C16.7 5.7891 17.246 6.3125 17.9 6.3125C18.554 6.3125 19.1 5.7891 19.1 5.125V1.6875C19.1 1.5926 19.1812 1.5 19.3 1.5C19.4188 1.5 19.5 1.5926 19.5 1.6875V5.8125C19.5 7.13557 18.5896 8.25836 17.3326 8.61804L16.9327 8.7325L16.9725 9.14663L18.0925 20.7888L18.0925 20.7888L18.0931 20.7947C18.0978 20.8377 18.1 20.8853 18.1 20.9375C18.1 21.7914 17.3916 22.5 16.5 22.5C15.6084 22.5 14.9 21.7914 14.9 20.9375C14.9 20.877 14.9032 20.8173 14.9095 20.7611C14.9095 20.7608 14.9095 20.7606 14.9095 20.7603L16.2282 9.21737Z" fill="white" stroke="black"/>
</svg>
