<svg width="24" height="24" viewBox="0 0 24 24" fill="none" xmlns="http://www.w3.org/2000/svg">
<path d="M3.9 3H20.1C20.3387 3 20.5676 3.10536 20.7364 3.29289C20.9052 3.48043 21 3.73478 21 4V20C21 20.2652 20.9052 20.5196 20.7364 20.7071C20.5676 20.8946 20.3387 21 20.1 21H3.9C3.66131 21 3.43239 20.8946 3.2636 20.7071C3.09482 20.5196 3 20.2652 3 20V4C3 3.73478 3.09482 3.48043 3.2636 3.29289C3.43239 3.10536 3.66131 3 3.9 3ZM3.9 4V20H20.1V4H3.9ZM8.85 14H13.8C13.9193 14 14.0338 13.9473 14.1182 13.8536C14.2026 13.7598 14.25 13.6326 14.25 13.5C14.25 13.3674 14.2026 13.2402 14.1182 13.1464C14.0338 13.0527 13.9193 13 13.8 13H10.2C9.60326 13 9.03097 12.7366 8.60901 12.2678C8.18705 11.7989 7.95 11.163 7.95 10.5C7.95 9.83696 8.18705 9.20107 8.60901 8.73223C9.03097 8.26339 9.60326 8 10.2 8H11.1V6H12.9V8H15.15V10H10.2C10.0807 10 9.96619 10.0527 9.8818 10.1464C9.79741 10.2402 9.75 10.3674 9.75 10.5C9.75 10.6326 9.79741 10.7598 9.8818 10.8536C9.96619 10.9473 10.0807 11 10.2 11H13.8C14.3967 11 14.969 11.2634 15.391 11.7322C15.8129 12.2011 16.05 12.837 16.05 13.5C16.05 14.163 15.8129 14.7989 15.391 15.2678C14.969 15.7366 14.3967 16 13.8 16H12.9V18H11.1V16H8.85V14Z" fill="black"/>
</svg>
