<svg width="24" height="24" viewBox="0 0 24 24" fill="none" xmlns="http://www.w3.org/2000/svg">
<path d="M11 5.125C11 2.84663 9.4334 1 7.5 1C5.5666 1 4 2.84663 4 5.125C4 7.09262 5.1704 8.73162 6.7342 9.14412L5.414 20.7051C5.4042 20.7808 5.4 20.8591 5.4 20.9375C5.4 22.076 6.3408 23 7.5 23C8.6592 23 9.6 22.076 9.6 20.9375C9.6 20.8715 9.5972 20.8055 9.5902 20.7409L8.4674 9.06987C9.9262 8.5735 11 7.00462 11 5.125Z" fill="#9B26B6"/>
<path d="M19.3 1C18.9136 1 18.6 1.308 18.6 1.6875V5.125C18.6 5.5045 18.2864 5.8125 17.9 5.8125C17.5136 5.8125 17.2 5.5045 17.2 5.125V1.6875C17.2 1.308 16.8864 1 16.5 1C16.1136 1 15.8 1.308 15.8 1.6875V5.125C15.8 5.5045 15.4864 5.8125 15.1 5.8125C14.7136 5.8125 14.4 5.5045 14.4 5.125V1.6875C14.4 1.308 14.0864 1 13.7 1C13.3136 1 13 1.308 13 1.6875V5.8125C13 7.44738 14.1704 8.8155 15.7314 9.16062L14.4126 20.7051C14.4042 20.7808 14.4 20.8591 14.4 20.9375C14.4 22.076 15.3408 23 16.5 23C17.6592 23 18.6 22.076 18.6 20.9375C18.6 20.8715 18.5972 20.8055 18.5902 20.7409L17.4702 9.09875C18.9262 8.68212 20 7.3745 20 5.8125V1.6875C20 1.308 19.6864 1 19.3 1Z" fill="#9B26B6"/>
</svg>
