<svg width="24" height="24" viewBox="0 0 24 24" fill="none" xmlns="http://www.w3.org/2000/svg">
<rect width="24" height="24" fill="#9B26B6"/>
<path d="M19.7963 3.50191H19.7965C20.465 3.50191 20.8724 3.66057 21.112 3.88351C21.3449 4.10032 21.5002 4.45388 21.5 5.02886V5.02898V19.0603C21.5 19.6219 21.3465 19.9495 21.1251 20.1469C20.8927 20.3542 20.4948 20.5 19.8411 20.5H4.15795C3.51015 20.5 3.11131 20.3486 2.87692 20.1367C2.65162 19.933 2.50002 19.6022 2.50002 19.0603V5.02898C2.50002 4.44921 2.66838 4.09651 2.91359 3.87975C3.16971 3.65335 3.59202 3.50191 4.24056 3.50191H5.48092L5.47934 3.50038C5.82089 3.50025 6.22223 3.50016 6.66935 3.5001C8.12744 3.4999 10.072 3.50003 12.0168 3.5003L17.3651 3.50131L19.1277 3.50173L19.6216 3.50186L19.7517 3.5019L19.7851 3.50191L19.7935 3.50191L19.7956 3.50191L19.7962 3.50191C19.7963 3.50191 19.7963 3.50191 19.7965 3.00191L19.7963 3.50191ZM13.7222 13.2539V13.7539H14.2222H14.2778V17.837C14.2778 18.5183 14.6841 19.1009 15.3275 19.1034C15.9767 19.1059 16.3812 18.5191 16.3812 17.8336L16.3815 6.29155C16.3815 5.33582 15.8576 4.57598 15.0519 4.57598C14.2462 4.57598 13.7222 5.33582 13.7222 6.29154V13.2539ZM10.8225 4.75324C10.8187 4.75637 10.815 4.75952 10.8112 4.76272C10.658 4.62713 10.4689 4.57138 10.2977 4.57143C10.1251 4.57148 9.93756 4.62809 9.78592 4.75986C9.78384 4.76167 9.78176 4.76349 9.7797 4.76532C9.77718 4.76313 9.77465 4.76095 9.77209 4.75878C9.61428 4.62501 9.42332 4.57466 9.2561 4.5757C9.08929 4.57674 8.90523 4.62891 8.7531 4.75333C8.74929 4.75645 8.74551 4.7596 8.74177 4.76279C8.58426 4.62586 8.39118 4.57076 8.21801 4.57071C8.04434 4.57067 7.85391 4.62582 7.69841 4.75719C7.53248 4.89737 7.43163 5.1046 7.43163 5.34104V9.43101C7.43163 10.1487 7.9062 10.6459 8.48605 10.8282V17.837C8.48605 18.2384 8.64344 18.5753 8.90601 18.8061C9.15896 19.0284 9.48117 19.1283 9.78626 19.1283C10.0914 19.1283 10.4136 19.0284 10.6665 18.8061C10.9291 18.5753 11.0865 18.2384 11.0865 17.837V10.8219C11.676 10.6208 12.1119 10.0818 12.1119 9.49376V5.34477C12.1119 5.11341 12.0175 4.90468 11.8493 4.76098C11.6923 4.62678 11.5014 4.57433 11.3323 4.57433C11.1637 4.57433 10.9768 4.62635 10.8225 4.75324Z" fill="#9B26B6" stroke="white"/>
</svg>
