<svg width="24" height="24" viewBox="0 0 24 24" fill="none" xmlns="http://www.w3.org/2000/svg">
<path d="M13.4304 19.9838L12.9728 20.0228V20.482V20.482V20.4821V20.4821V20.4822V20.4822V20.4823V20.4824V20.4825V20.4826V20.4828V20.4829V20.4831V20.4833V20.4834V20.4836V20.4838V20.4841V20.4843V20.4846V20.4848V20.4851V20.4854V20.4857V20.486V20.4863V20.4866V20.487V20.4873V20.4877V20.4881V20.4885V20.4889V20.4893V20.4898V20.4902V20.4907V20.4911V20.4916V20.4921V20.4926V20.4931V20.4937V20.4942V20.4948V20.4953V20.4959V20.4965V20.4971V20.4977V20.4983V20.499V20.4996V20.5003V20.501V20.5017V20.5024V20.5031V20.5038V20.5045V20.5053V20.506V20.5068V20.5076V20.5084V20.5092V20.51V20.5108V20.5116V20.5125V20.5134V20.5142V20.5151V20.516V20.5169V20.5178V20.5188V20.5197V20.5207V20.5216V20.5226V20.5236V20.5246V20.5256V20.5266V20.5276V20.5287V20.5297V20.5308V20.5319V20.533V20.5341V20.5352V20.5363V20.5374V20.5386V20.5397V20.5409V20.5421V20.5433V20.5445V20.5457V20.5469V20.5481V20.5494V20.5506V20.5519V20.5532V20.5544V20.5557V20.557V20.5584V20.5597V20.561V20.5624V20.5637V20.5651V20.5665V20.5679V20.5693V20.5707V20.5721V20.5736V20.575V20.5765V20.5779V20.5794V20.5809V20.5824V20.5839V20.5854V20.587V20.5885V20.59V20.5916V20.5932V20.5948V20.5963V20.5979V20.5996V20.6012V20.6028V20.6045V20.6061V20.6078V20.6094V20.6111V20.6128V20.6145V20.6162V20.618V20.6197V20.6214V20.6232V20.6249V20.6267V20.6285V20.6303V20.6321V20.6339V20.6357V20.6376V20.6394V20.6412V20.6431V20.645V20.6469V20.6487V20.6506V20.6525V20.6545V20.6564V20.6583V20.6603V20.6622V20.6642V20.6662V20.6682V20.6702V20.6722V20.6742V20.6762V20.6782V20.6803V20.6823V20.6844V20.6865V20.6885V20.6906V20.6927V20.6948V20.6969V20.6991V20.7012V20.7033V20.7055V20.7077V20.7098V20.712V20.7142V20.7164V20.7186V20.7208V20.723V20.7253V20.7275V20.7298V20.732V20.7343V20.7366V20.7389V20.7412V20.7435V20.7458V20.7481V20.7504V20.7528V20.7551V20.7575V20.7598V20.7622V20.7646V20.767V20.7694V20.7718V20.7742V20.7766V20.7791V20.7815V20.784V20.7864V20.7889V20.7914V20.7939V20.7964V20.7989V20.8014V20.8039V20.8064V20.8089V20.8115V20.814V20.8166V20.8192V20.8217V20.8243V20.8269V20.8295V20.8321V20.8347V20.8374V20.84V20.8426V20.8453V20.8479V20.8506V20.8533V20.856V20.8587V20.8614V20.8641V20.8668V20.8695V20.8722V20.875V20.8777V20.8804V20.8832V20.886V20.8888V20.8915V20.8943V20.8971V20.8999V20.9027V20.9056V20.9084V20.9112V20.9141V20.9169V20.9198V20.9226V20.9255V20.9284V20.9313V20.9342V20.9371V20.94V20.9429V20.9458V20.9488V20.9517V20.9546V20.9576V20.9606V20.9635V20.9665V20.9695V20.9725V20.9755V20.9785V20.9815V20.9845V20.9875V20.9906V20.9936V20.9966V20.9997V21.0028V21.0058V21.0089V21.012V21.0151V21.0182V21.0213V21.0244V21.0275V21.0306V21.0337V21.0369V21.04V21.0432V21.0463V21.0495V21.0526V21.0558V21.059V21.0622V21.0654V21.0686V21.0718V21.075V21.0782V21.0815V21.0847V21.0879V21.0912V21.0944V21.0977V21.101V21.1042V21.1075V21.1108V21.1141V21.1174V21.1207V21.124V21.1273V21.1306V21.134V21.1373V21.1406V21.144V21.1473V21.1507V21.1541V21.1574V21.1608V21.1642V21.1676V21.171V21.1744V21.1778V21.1812V21.1846V21.188V21.1915V21.1949V21.1983V21.2018V21.2052V21.2087V21.2122V21.2156V21.2191V21.2226V21.2261V21.2296V21.2331V21.2366V21.2401V21.2436V21.2471V21.2507V21.2542V21.2577V21.2613V21.2648V21.2684V21.2719V21.2755V21.2791V21.2826V21.2862V21.2898V21.2934V21.297V21.3006V21.3042V21.3078V21.3114V21.315V21.3187V21.3223V21.3259V21.3296V21.3332V21.3369V21.3405V21.3442V21.3479V21.3515V21.3552V21.3589V21.3626V21.3663V21.37V21.3737V21.3774V21.3811V21.3848V21.3885V21.3923V21.396V21.3997V21.4035V21.4072V21.411V21.4147V21.4185V21.4222V21.426V21.4298V21.4336V21.4373V21.4411V21.4449V21.4487V21.4525V21.4563V21.4601V21.4639V21.4677V21.4716V21.4754V21.4792V21.4831V21.4869V21.4907V21.4946V21.4984V21.5023V21.5061V21.51V21.5139V21.5177V21.5216V21.5255V21.5294V21.5333V21.5372V21.5411V21.545V21.5489V21.5528V21.5567V21.5606V21.5645V21.5684V21.5724V21.5763V21.5802V21.5842V21.5881V21.5921V21.596V21.6V21.6039V21.6079V21.6119V21.6158V21.6198V21.6238V21.6277V21.6317V21.6357V21.6397V21.6437V21.6477V21.6517V21.6557V21.6597V21.6637V21.6677V21.6717V21.6758V21.6798V21.6838V21.6878V21.6919V21.6959V21.7V21.704V21.708V21.7121V21.7162V21.7202V21.7243V21.7283V21.7324V21.7365V21.7405C12.9728 22.0998 12.6169 22.5 12.0344 22.5C11.4615 22.5 11.0959 22.0972 11.0953 21.7161C11.0953 21.7161 11.0953 21.716 11.0953 21.716C11.0953 21.7159 11.0953 21.7158 11.0953 21.7156L11.0953 20.4312V19.9765L10.6426 19.9334C8.78368 19.7565 6.93982 19.2694 5.31294 18.5268L5.31273 18.5267C4.47399 18.1443 4.26394 17.1737 4.77613 16.4711L4.7763 16.4709C5.28332 15.7745 6.38604 15.5662 7.36842 16.0319C8.47232 16.5557 9.56529 16.9014 10.6874 17.0695L11.2614 17.1554V16.575V13.4904V13.0858L10.8658 13.0014C8.65477 12.5297 7.06771 11.9569 6.03714 11.1583C5.04341 10.3883 4.54027 9.38797 4.54027 7.93926V7.88742C4.54027 6.51487 5.07248 5.37169 6.0796 4.52798C7.09852 3.67438 8.63862 3.09992 10.6844 2.96311L11.1511 2.93191V2.46423V2.46421V2.46419V2.46417V2.46413V2.46409V2.46404V2.46399V2.46392V2.46385V2.46377V2.46369V2.4636V2.4635V2.46339V2.46327V2.46315V2.46302V2.46288V2.46274V2.46259V2.46243V2.46226V2.46209V2.46191V2.46172V2.46153V2.46133V2.46112V2.4609V2.46068V2.46045V2.46021V2.45996V2.45971V2.45945V2.45919V2.45891V2.45863V2.45834V2.45805V2.45775V2.45744V2.45712V2.4568V2.45647V2.45614V2.45579V2.45544V2.45508V2.45472V2.45435V2.45397V2.45358V2.45319V2.45279V2.45239V2.45197V2.45155V2.45113V2.4507V2.45025V2.44981V2.44935V2.44889V2.44843V2.44795V2.44747V2.44698V2.44649V2.44599V2.44548V2.44497V2.44445V2.44392V2.44338V2.44284V2.4423V2.44174V2.44118V2.44061V2.44004V2.43946V2.43887V2.43828V2.43768V2.43707V2.43646V2.43584V2.43521V2.43458V2.43394V2.43329V2.43264V2.43198V2.43132V2.43064V2.42997V2.42928V2.42859V2.42789V2.42719V2.42648V2.42576V2.42504V2.42431V2.42358V2.42284V2.42209V2.42133V2.42057V2.41981V2.41903V2.41825V2.41747V2.41668V2.41588V2.41508V2.41426V2.41345V2.41263V2.4118V2.41096V2.41012V2.40927V2.40842V2.40756V2.4067V2.40583V2.40495V2.40407V2.40318V2.40228V2.40138V2.40047V2.39956V2.39864V2.39771V2.39678V2.39584V2.3949V2.39395V2.393V2.39204V2.39107V2.3901V2.38912V2.38813V2.38714V2.38615V2.38514V2.38414V2.38312V2.3821V2.38108V2.38005V2.37901V2.37797V2.37692V2.37587V2.37481V2.37374V2.37267V2.37159V2.37051V2.36942V2.36833V2.36723V2.36613V2.36502V2.3639V2.36278V2.36165V2.36052V2.35938V2.35824V2.35709V2.35593V2.35477V2.3536V2.35243V2.35126V2.35007V2.34889V2.34769V2.34649V2.34529V2.34408V2.34287V2.34165V2.34042V2.33919V2.33795V2.33671V2.33546V2.33421V2.33295V2.33169V2.33042V2.32915V2.32787V2.32659V2.3253V2.324V2.3227V2.3214V2.32009V2.31877V2.31745V2.31613V2.3148V2.31346V2.31212V2.31077V2.30942V2.30807V2.3067V2.30534V2.30397V2.30259V2.30121V2.29982V2.29843V2.29703V2.29563V2.29422V2.29281V2.2914V2.28997V2.28855V2.28712V2.28568V2.28424V2.28279V2.28134V2.27989V2.27843V2.27696V2.27549V2.27401V2.27253V2.27105V2.26956V2.26807V2.26657V2.26506V2.26355V2.26204V2.26052V2.259V2.25747V2.25594V2.2544V2.25286V2.25132V2.24976V2.24821V2.24665V2.24508V2.24351V2.24194V2.24036V2.23878V2.23719V2.2356V2.234V2.2324V2.2308V2.22919V2.22757V2.22595V2.22433V2.2227V2.22107V2.21943V2.21779V2.21614V2.21449V2.21284V2.21118V2.20952V2.20785V2.20618V2.2045V2.20282V2.20113V2.19944V2.19775V2.19605V2.19435V2.19264V2.19093V2.18922V2.1875V2.18578V2.18405V2.18232V2.18058V2.17884V2.1771V2.17535V2.1736V2.17184V2.17008V2.16831V2.16655V2.16477V2.163V2.16121V2.15943V2.15764V2.15585V2.15405V2.15225V2.15044V2.14863V2.14682V2.145V2.14318V2.14136V2.13953V2.1377V2.13586V2.13402V2.13218V2.13033V2.12847V2.12662V2.12476V2.1229V2.12103V2.11916V2.11728V2.1154V2.11352V2.11163V2.10974V2.10785V2.10595V2.10405V2.10215V2.10024V2.09833V2.09641V2.09449V2.09257V2.09064V2.08871V2.08678V2.08484V2.0829V2.08095V2.07901V2.07705V2.0751V2.07314V2.07118V2.06921V2.06724V2.06527V2.06329V2.06131V2.05933V2.05734V2.05535V2.05336V2.05136V2.04936V2.04736V2.04535V2.04334V2.04133V2.03931V2.03729V2.03527V2.03324V2.03121V2.02918V2.02714V2.0251V2.02306V2.02101V2.01896V2.01691V2.01485V2.01279V2.01073V2.00866V2.00659V2.00452V2.00245V2.00037V1.99829V1.9962V1.99411V1.99202V1.98993V1.98783V1.98573V1.98363V1.98152V1.97941V1.9773V1.97519V1.97307V1.97095V1.96882V1.9667V1.96457V1.96244V1.9603V1.95816V1.95602V1.95388V1.95173V1.94958V1.94743V1.94527V1.94311V1.94095V1.93879V1.93662V1.93445V1.93228V1.9301V1.92792V1.92574V1.92356V1.92137V1.91919V1.91699V1.9148V1.9126V1.9104V1.9082V1.906V1.90379V1.90158V1.89937V1.89715V1.89494V1.89272V1.89049V1.88827V1.88604V1.88381V1.88158V1.87934V1.8771V1.87486V1.87262V1.87037V1.86813V1.86588V1.86362V1.86137V1.85911V1.85685V1.85459V1.85233V1.85006V1.84779V1.84552V1.84324V1.84097V1.83869V1.83641V1.83413V1.83184V1.82955V1.82726V1.82497V1.82268V1.82038V1.81808V1.81578V1.81348V1.81118V1.80887V1.80656V1.80425V1.80193V1.79962V1.7973V1.79498V1.79266V1.79033V1.78801V1.78568V1.78335V1.78102V1.77868V1.77635V1.77401V1.77167V1.76933V1.76698V1.76464V1.76356C11.1651 1.7462 11.2037 1.70877 11.2992 1.66015C11.4758 1.57029 11.7545 1.5 12.0895 1.5C12.4208 1.5 12.6959 1.57312 12.8701 1.66655C12.9836 1.72737 13.0183 1.77316 13.0275 1.78897V2.54204V2.99382L13.477 3.03948C14.8337 3.17729 16.0544 3.4971 17.1646 3.95973C18.0267 4.31951 18.2716 5.29597 17.8121 5.99305L17.8119 5.99332C17.3405 6.70947 16.3605 6.94897 15.5097 6.5985C14.8421 6.32319 14.1598 6.11118 13.5005 5.96148L12.8898 5.8228V6.44907V9.43039V9.83385L13.2842 9.9191C15.4642 10.3904 17.0221 10.9748 18.0314 11.7832C19.0064 12.5642 19.5 13.5787 19.5 15.0329V15.0842C19.5 16.4963 18.9221 17.6203 17.8962 18.4437C16.8559 19.2787 15.3296 19.8221 13.4304 19.9838ZM11.144 1.7742C11.1439 1.77418 11.1442 1.77333 11.1452 1.77172C11.1445 1.77341 11.144 1.77422 11.144 1.7742ZM13.4906 13.419L12.8614 13.2506V13.902V16.7295V17.2828L13.4118 17.2269C14.0829 17.1589 14.6486 17.0045 15.057 16.7113C15.4969 16.3955 15.7148 15.9463 15.7148 15.4186V15.3668C15.7148 14.8924 15.5601 14.4711 15.1439 14.1314C14.7727 13.8284 14.2199 13.6142 13.4906 13.419ZM11.2888 6.21694V5.67766L10.751 5.71837C10.0272 5.77317 9.44913 5.94171 9.04095 6.24684C8.60872 6.56994 8.40799 7.01661 8.40799 7.50182V7.5531C8.40799 7.76826 8.43922 7.99022 8.53395 8.20639C8.62995 8.42545 8.77894 8.61066 8.97496 8.76845C9.34732 9.0682 9.90782 9.28188 10.6637 9.47715L11.2888 9.63861V8.99304V6.21694Z" fill="white" stroke="black"/>
</svg>
