<svg width="20" height="20" viewBox="0 0 20 20" fill="none" xmlns="http://www.w3.org/2000/svg">
<path fill-rule="evenodd" clip-rule="evenodd" d="M14.8151 17.605C13.4227 18.4884 11.7711 19 10 19C5.02944 19 1 14.9706 1 10C1 5.02944 5.02944 1 10 1C14.9706 1 19 5.02944 19 10C19 11.7711 18.4884 13.4226 17.605 14.815L19 19L14.8151 17.605Z" fill="#9B26B6"/>
<path d="M14.8151 17.605L14.9732 17.1307C14.8306 17.0831 14.6741 17.1023 14.5472 17.1828L14.8151 17.605ZM17.605 14.815L17.1828 14.5472C17.1023 14.6741 17.0831 14.8305 17.1307 14.9731L17.605 14.815ZM19 19L18.8419 19.4743C19.0216 19.5342 19.2196 19.4874 19.3536 19.3535C19.4875 19.2196 19.5342 19.0215 19.4743 18.8419L19 19ZM10 19.5C11.8687 19.5 13.6128 18.9599 15.0829 18.0272L14.5472 17.1828C13.2325 18.0169 11.6734 18.5 10 18.5V19.5ZM0.5 10C0.5 15.2467 4.75329 19.5 10 19.5V18.5C5.30558 18.5 1.5 14.6944 1.5 10H0.5ZM10 0.5C4.75329 0.5 0.5 4.75329 0.5 10H1.5C1.5 5.30558 5.30558 1.5 10 1.5V0.5ZM19.5 10C19.5 4.75329 15.2467 0.5 10 0.5V1.5C14.6944 1.5 18.5 5.30558 18.5 10H19.5ZM18.0272 15.0829C18.9599 13.6128 19.5 11.8687 19.5 10H18.5C18.5 11.6734 18.0169 13.2325 17.1828 14.5472L18.0272 15.0829ZM17.1307 14.9731L18.5257 19.1581L19.4743 18.8419L18.0794 14.6569L17.1307 14.9731ZM19.1581 18.5256L14.9732 17.1307L14.6569 18.0793L18.8419 19.4743L19.1581 18.5256Z" fill="#9B26B6"/>
</svg>
