<svg width="24" height="24" viewBox="0 0 24 24" fill="none" xmlns="http://www.w3.org/2000/svg">
<path d="M16.8151 19.605L17.0522 18.8935C16.8383 18.8222 16.6037 18.8509 16.4133 18.9717L16.8151 19.605ZM19.605 16.815L18.9717 16.4132C18.8509 16.6036 18.8222 16.8383 18.8935 17.0522L19.605 16.815ZM21 21L20.7628 21.7115C21.0323 21.8013 21.3295 21.7312 21.5303 21.5303C21.7312 21.3294 21.8013 21.0323 21.7115 20.7628L21 21ZM12 21.75C13.9175 21.75 15.7079 21.1957 17.2169 20.2383L16.4133 18.9717C15.1374 19.7812 13.6246 20.25 12 20.25V21.75ZM2.25 12C2.25 17.3848 6.61522 21.75 12 21.75V20.25C7.44365 20.25 3.75 16.5563 3.75 12H2.25ZM12 2.25C6.61522 2.25 2.25 6.61522 2.25 12H3.75C3.75 7.44365 7.44365 3.75 12 3.75V2.25ZM21.75 12C21.75 6.61522 17.3848 2.25 12 2.25V3.75C16.5563 3.75 20.25 7.44365 20.25 12H21.75ZM20.2383 17.2168C21.1957 15.7078 21.75 13.9175 21.75 12H20.25C20.25 13.6246 19.7812 15.1374 18.9717 16.4132L20.2383 17.2168ZM18.8935 17.0522L20.2885 21.2371L21.7115 20.7628L20.3165 16.5778L18.8935 17.0522ZM21.2372 20.2885L17.0522 18.8935L16.5779 20.3165L20.7628 21.7115L21.2372 20.2885Z" fill="black"/>
</svg>
