<svg width="24" height="24" viewBox="0 0 24 24" fill="none" xmlns="http://www.w3.org/2000/svg">
<path d="M12.0344 23C12.8283 23 13.4728 22.4365 13.4728 21.7405C13.4728 21.0455 13.4728 20.482 13.4728 20.482C17.4002 20.1477 20 18.22 20 15.0842V15.0329C20 11.8458 17.7873 10.381 13.3898 9.43039V6.44907C14.0229 6.59283 14.6785 6.79656 15.3192 7.06082C16.3504 7.48556 17.6035 7.21934 18.2296 6.26822C18.8561 5.31767 18.5177 3.98244 17.357 3.4982C16.2011 3.01657 14.9326 2.68477 13.5275 2.54204V1.77074C13.5275 1.34553 12.884 1 12.0895 1C11.2951 1 10.6511 1.32825 10.6511 1.7316C10.6511 2.13654 10.6511 2.46423 10.6511 2.46423C6.41864 2.74726 4.04027 4.85472 4.04027 7.88742V7.93926C4.04027 11.1259 6.30817 12.5403 10.7614 13.4904V16.575C9.69308 16.415 8.64714 16.0852 7.5826 15.5801C6.4486 15.0426 5.05937 15.2326 4.3721 16.1766C3.68432 17.12 3.96206 18.4604 5.10531 18.9816C6.78495 19.7483 8.68322 20.2492 10.5953 20.4312V21.7161C10.5959 22.4249 11.2399 23 12.0344 23ZM13.3614 13.902C14.8004 14.2871 15.2148 14.6733 15.2148 15.3668V15.4186C15.2148 16.164 14.6342 16.6004 13.3614 16.7295V13.902ZM8.90799 7.5531V7.50182C8.90799 6.83374 9.43393 6.31951 10.7888 6.21694V8.99304C9.29571 8.60734 8.90799 8.22118 8.90799 7.5531Z" fill="#9B26B6"/>
</svg>
