<svg width="24" height="24" viewBox="0 0 24 24" fill="none" xmlns="http://www.w3.org/2000/svg">
<path d="M19.7965 3.00191C19.7965 3.00191 4.23608 2.99761 4.24054 3.00191C2.80628 3.00191 2 3.66815 2 5.02898V19.0603C2 20.3335 2.72495 21 4.15794 21H19.8411C21.2741 21 22 20.3667 22 19.0603V5.02898C22.0003 3.7011 21.2744 3.00191 19.7965 3.00191ZM11.6119 9.49376C11.6119 9.93391 11.1657 10.4053 10.5865 10.4053V17.837C10.5865 18.8921 8.98603 18.8921 8.98603 17.837V10.4053C8.42247 10.4053 7.93162 10.0153 7.93162 9.43101V5.34104C7.93162 4.98514 8.50411 4.97139 8.50411 5.35508V8.37821H8.98348V5.327C8.98348 5.00004 9.53492 4.97912 9.53492 5.34104V8.37821H10.0302V5.3313C10.0302 4.98944 10.5654 4.97569 10.5654 5.34477V8.37821H11.0528V5.3313C11.0528 4.99316 11.6119 4.9797 11.6119 5.34477V9.49376ZM15.8812 17.8336C15.8812 18.8655 14.2775 18.85 14.2775 17.8336V13.2539H13.4237V6.29154C13.4237 4.67079 15.8815 4.67079 15.8815 6.29154L15.8812 17.8336Z" fill="#9B26B6"/>
</svg>
