<svg width="188" height="58" viewBox="0 0 188 58" fill="none" xmlns="http://www.w3.org/2000/svg">
<g filter="url(#filter0_d)">
<rect x="4" width="180" height="50" rx="10" fill="#9B26B6"/>
<path d="M28.567 15.3286C29.519 15.3286 30.4243 15.6179 31.283 16.1966C32.1417 16.7566 32.8323 17.5219 33.355 18.4926C33.8777 19.4446 34.139 20.4899 34.139 21.6286C34.139 22.7486 33.8777 23.7939 33.355 24.7646C32.8323 25.7353 32.1417 26.5099 31.283 27.0886C30.4243 27.6486 29.519 27.9286 28.567 27.9286H23.695V33.2206C23.695 33.7246 23.5457 34.1353 23.247 34.4526C22.9483 34.7699 22.5563 34.9286 22.071 34.9286C21.6043 34.9286 21.2217 34.7699 20.923 34.4526C20.6243 34.1166 20.475 33.7059 20.475 33.2206V17.0366C20.475 16.5513 20.6337 16.1499 20.951 15.8326C21.287 15.4966 21.6977 15.3286 22.183 15.3286H28.567ZM28.567 24.7366C28.9217 24.7366 29.267 24.5873 29.603 24.2886C29.9577 23.9899 30.2377 23.6073 30.443 23.1406C30.667 22.6553 30.779 22.1513 30.779 21.6286C30.779 21.1059 30.667 20.6113 30.443 20.1446C30.2377 19.6593 29.9577 19.2766 29.603 18.9966C29.267 18.6979 28.9217 18.5486 28.567 18.5486H23.695V24.7366H28.567ZM44.8501 19.6686C45.4101 19.6686 45.8768 19.8273 46.2501 20.1446C46.6421 20.4619 46.8381 20.8353 46.8381 21.2646C46.8381 21.8433 46.6888 22.2819 46.3901 22.5806C46.0914 22.8606 45.7368 23.0006 45.3261 23.0006C45.0461 23.0006 44.7288 22.9353 44.3741 22.8046C44.3181 22.7859 44.1874 22.7486 43.9821 22.6926C43.7954 22.6366 43.5901 22.6086 43.3661 22.6086C42.8808 22.6086 42.4141 22.7579 41.9661 23.0566C41.5181 23.3553 41.1448 23.8126 40.8461 24.4286C40.5661 25.0259 40.4261 25.7446 40.4261 26.5846V33.2206C40.4261 33.7059 40.2674 34.1166 39.9501 34.4526C39.6328 34.7699 39.2314 34.9286 38.7461 34.9286C38.2608 34.9286 37.8594 34.7699 37.5421 34.4526C37.2248 34.1166 37.0661 33.7059 37.0661 33.2206V21.6566C37.0661 21.1713 37.2248 20.7699 37.5421 20.4526C37.8594 20.1166 38.2608 19.9486 38.7461 19.9486C39.2314 19.9486 39.6328 20.1166 39.9501 20.4526C40.2674 20.7699 40.4261 21.1713 40.4261 21.6566V22.0206C40.8554 21.2553 41.4714 20.6766 42.2741 20.2846C43.0768 19.8739 43.9354 19.6686 44.8501 19.6686ZM62.0178 27.0886C61.9991 27.5366 61.8218 27.9006 61.4858 28.1806C61.1498 28.4606 60.7578 28.6006 60.3098 28.6006H51.0698C51.2938 29.7019 51.8071 30.5699 52.6098 31.2046C53.4125 31.8206 54.3178 32.1286 55.3258 32.1286C56.0911 32.1286 56.6885 32.0633 57.1178 31.9326C57.5471 31.7833 57.8831 31.6339 58.1258 31.4846C58.3871 31.3166 58.5645 31.2046 58.6578 31.1486C58.9938 30.9806 59.3111 30.8966 59.6098 30.8966C60.0018 30.8966 60.3378 31.0366 60.6178 31.3166C60.8978 31.5966 61.0378 31.9233 61.0378 32.2966C61.0378 32.8006 60.7765 33.2579 60.2538 33.6686C59.7311 34.0979 59.0311 34.4619 58.1538 34.7606C57.2765 35.0593 56.3898 35.2086 55.4938 35.2086C53.9258 35.2086 52.5538 34.8819 51.3778 34.2286C50.2205 33.5753 49.3245 32.6793 48.6898 31.5406C48.0551 30.3833 47.7378 29.0859 47.7378 27.6486C47.7378 26.0433 48.0738 24.6339 48.7458 23.4206C49.4178 22.2073 50.3045 21.2833 51.4058 20.6486C52.5071 19.9953 53.6831 19.6686 54.9338 19.6686C56.1658 19.6686 57.3231 20.0046 58.4058 20.6766C59.5071 21.3486 60.3845 22.2539 61.0378 23.3926C61.6911 24.5313 62.0178 25.7633 62.0178 27.0886ZM54.9338 22.7486C52.7685 22.7486 51.4898 23.7659 51.0978 25.8006H58.4338V25.6046C58.3591 24.8206 57.9765 24.1486 57.2858 23.5886C56.5951 23.0286 55.8111 22.7486 54.9338 22.7486ZM66.108 28.0126C65.6227 28.0126 65.212 27.8539 64.876 27.5366C64.5587 27.2193 64.4 26.8179 64.4 26.3326C64.4 25.8659 64.5587 25.4739 64.876 25.1566C65.212 24.8393 65.6227 24.6806 66.108 24.6806H70.98C71.4653 24.6806 71.8667 24.8486 72.184 25.1846C72.52 25.5019 72.688 25.9033 72.688 26.3886C72.688 26.8553 72.52 27.2473 72.184 27.5646C71.8667 27.8633 71.4653 28.0126 70.98 28.0126H66.108ZM90.3136 27.4526C90.3136 28.9459 89.9776 30.2899 89.3056 31.4846C88.6336 32.6606 87.7096 33.5753 86.5336 34.2286C85.3762 34.8819 84.0976 35.2086 82.6976 35.2086C81.2789 35.2086 79.9909 34.8819 78.8336 34.2286C77.6762 33.5753 76.7616 32.6606 76.0896 31.4846C75.4176 30.2899 75.0816 28.9459 75.0816 27.4526C75.0816 25.9593 75.4176 24.6246 76.0896 23.4486C76.7616 22.2539 77.6762 21.3299 78.8336 20.6766C79.9909 20.0046 81.2789 19.6686 82.6976 19.6686C84.0976 19.6686 85.3762 20.0046 86.5336 20.6766C87.7096 21.3299 88.6336 22.2539 89.3056 23.4486C89.9776 24.6246 90.3136 25.9593 90.3136 27.4526ZM86.9536 27.4526C86.9536 26.5379 86.7576 25.7259 86.3656 25.0166C85.9922 24.2886 85.4789 23.7286 84.8256 23.3366C84.1909 22.9446 83.4816 22.7486 82.6976 22.7486C81.9136 22.7486 81.1949 22.9446 80.5416 23.3366C79.9069 23.7286 79.3936 24.2886 79.0016 25.0166C78.6282 25.7259 78.4416 26.5379 78.4416 27.4526C78.4416 28.3673 78.6282 29.1793 79.0016 29.8886C79.3936 30.5979 79.9069 31.1486 80.5416 31.5406C81.1949 31.9326 81.9136 32.1286 82.6976 32.1286C83.4816 32.1286 84.1909 31.9326 84.8256 31.5406C85.4789 31.1486 85.9922 30.5979 86.3656 29.8886C86.7576 29.1793 86.9536 28.3673 86.9536 27.4526ZM100.905 19.6686C101.465 19.6686 101.931 19.8273 102.305 20.1446C102.697 20.4619 102.893 20.8353 102.893 21.2646C102.893 21.8433 102.743 22.2819 102.445 22.5806C102.146 22.8606 101.791 23.0006 101.381 23.0006C101.101 23.0006 100.783 22.9353 100.429 22.8046C100.373 22.7859 100.242 22.7486 100.037 22.6926C99.8501 22.6366 99.6448 22.6086 99.4208 22.6086C98.9354 22.6086 98.4688 22.7579 98.0208 23.0566C97.5728 23.3553 97.1994 23.8126 96.9008 24.4286C96.6208 25.0259 96.4808 25.7446 96.4808 26.5846V33.2206C96.4808 33.7059 96.3221 34.1166 96.0048 34.4526C95.6874 34.7699 95.2861 34.9286 94.8008 34.9286C94.3154 34.9286 93.9141 34.7699 93.5968 34.4526C93.2794 34.1166 93.1208 33.7059 93.1208 33.2206V21.6566C93.1208 21.1713 93.2794 20.7699 93.5968 20.4526C93.9141 20.1166 94.3154 19.9486 94.8008 19.9486C95.2861 19.9486 95.6874 20.1166 96.0048 20.4526C96.3221 20.7699 96.4808 21.1713 96.4808 21.6566V22.0206C96.9101 21.2553 97.5261 20.6766 98.3288 20.2846C99.1314 19.8739 99.9901 19.6686 100.905 19.6686ZM116.757 14.2086C117.242 14.2086 117.643 14.3673 117.961 14.6846C118.278 15.0019 118.437 15.4126 118.437 15.9166V33.2206C118.437 33.7059 118.278 34.1166 117.961 34.4526C117.643 34.7699 117.242 34.9286 116.757 34.9286C116.271 34.9286 115.87 34.7699 115.553 34.4526C115.254 34.1353 115.095 33.7339 115.077 33.2486C114.61 33.7899 113.975 34.2566 113.173 34.6486C112.389 35.0219 111.558 35.2086 110.681 35.2086C109.393 35.2086 108.226 34.8819 107.181 34.2286C106.135 33.5566 105.305 32.6326 104.689 31.4566C104.091 30.2806 103.793 28.9459 103.793 27.4526C103.793 25.9593 104.091 24.6246 104.689 23.4486C105.286 22.2539 106.098 21.3299 107.125 20.6766C108.17 20.0046 109.318 19.6686 110.569 19.6686C111.465 19.6686 112.305 19.8366 113.089 20.1726C113.873 20.4899 114.535 20.9006 115.077 21.4046V15.9166C115.077 15.4313 115.235 15.0299 115.553 14.7126C115.87 14.3766 116.271 14.2086 116.757 14.2086ZM111.101 32.1286C112.314 32.1286 113.303 31.6899 114.069 30.8126C114.834 29.9166 115.217 28.7966 115.217 27.4526C115.217 26.1086 114.834 24.9886 114.069 24.0926C113.303 23.1966 112.314 22.7486 111.101 22.7486C109.906 22.7486 108.926 23.1966 108.161 24.0926C107.395 24.9886 107.013 26.1086 107.013 27.4526C107.013 28.7966 107.386 29.9166 108.133 30.8126C108.898 31.6899 109.887 32.1286 111.101 32.1286ZM135.518 27.0886C135.499 27.5366 135.322 27.9006 134.986 28.1806C134.65 28.4606 134.258 28.6006 133.81 28.6006H124.57C124.794 29.7019 125.307 30.5699 126.11 31.2046C126.912 31.8206 127.818 32.1286 128.826 32.1286C129.591 32.1286 130.188 32.0633 130.618 31.9326C131.047 31.7833 131.383 31.6339 131.626 31.4846C131.887 31.3166 132.064 31.2046 132.158 31.1486C132.494 30.9806 132.811 30.8966 133.11 30.8966C133.502 30.8966 133.838 31.0366 134.118 31.3166C134.398 31.5966 134.538 31.9233 134.538 32.2966C134.538 32.8006 134.276 33.2579 133.754 33.6686C133.231 34.0979 132.531 34.4619 131.654 34.7606C130.776 35.0593 129.89 35.2086 128.994 35.2086C127.426 35.2086 126.054 34.8819 124.878 34.2286C123.72 33.5753 122.824 32.6793 122.19 31.5406C121.555 30.3833 121.238 29.0859 121.238 27.6486C121.238 26.0433 121.574 24.6339 122.246 23.4206C122.918 22.2073 123.804 21.2833 124.906 20.6486C126.007 19.9953 127.183 19.6686 128.434 19.6686C129.666 19.6686 130.823 20.0046 131.906 20.6766C133.007 21.3486 133.884 22.2539 134.538 23.3926C135.191 24.5313 135.518 25.7633 135.518 27.0886ZM128.434 22.7486C126.268 22.7486 124.99 23.7659 124.598 25.8006H131.934V25.6046C131.859 24.8206 131.476 24.1486 130.786 23.5886C130.095 23.0286 129.311 22.7486 128.434 22.7486ZM146.328 19.6686C148.232 19.6686 149.548 20.2379 150.276 21.3766C151.004 22.4966 151.368 24.0553 151.368 26.0526V33.2206C151.368 33.7059 151.209 34.1166 150.892 34.4526C150.575 34.7699 150.173 34.9286 149.688 34.9286C149.203 34.9286 148.801 34.7699 148.484 34.4526C148.167 34.1166 148.008 33.7059 148.008 33.2206V26.0526C148.008 25.0259 147.793 24.2233 147.364 23.6446C146.935 23.0473 146.197 22.7486 145.152 22.7486C144.069 22.7486 143.22 23.0659 142.604 23.7006C141.988 24.3166 141.68 25.1006 141.68 26.0526V33.2206C141.68 33.7059 141.521 34.1166 141.204 34.4526C140.887 34.7699 140.485 34.9286 140 34.9286C139.515 34.9286 139.113 34.7699 138.796 34.4526C138.479 34.1166 138.32 33.7059 138.32 33.2206V21.6566C138.32 21.1713 138.479 20.7699 138.796 20.4526C139.113 20.1166 139.515 19.9486 140 19.9486C140.485 19.9486 140.887 20.1166 141.204 20.4526C141.521 20.7699 141.68 21.1713 141.68 21.6566V22.1326C142.184 21.4606 142.837 20.8819 143.64 20.3966C144.461 19.9113 145.357 19.6686 146.328 19.6686ZM167.124 19.6686C167.609 19.6686 168.01 19.8273 168.328 20.1446C168.645 20.4619 168.804 20.8726 168.804 21.3766V33.2206C168.804 33.7059 168.645 34.1166 168.328 34.4526C168.01 34.7699 167.609 34.9286 167.124 34.9286C166.638 34.9286 166.237 34.7699 165.92 34.4526C165.621 34.1353 165.462 33.7339 165.444 33.2486C164.977 33.7899 164.342 34.2566 163.54 34.6486C162.756 35.0219 161.925 35.2086 161.048 35.2086C159.76 35.2086 158.593 34.8819 157.548 34.2286C156.502 33.5566 155.672 32.6326 155.056 31.4566C154.458 30.2806 154.16 28.9459 154.16 27.4526C154.16 25.9593 154.458 24.6246 155.056 23.4486C155.653 22.2539 156.465 21.3299 157.492 20.6766C158.537 20.0046 159.685 19.6686 160.936 19.6686C161.832 19.6686 162.672 19.8366 163.456 20.1726C164.24 20.4899 164.902 20.9006 165.444 21.4046V21.3766C165.444 20.8913 165.602 20.4899 165.92 20.1726C166.237 19.8366 166.638 19.6686 167.124 19.6686ZM161.468 32.1286C162.681 32.1286 163.67 31.6899 164.436 30.8126C165.201 29.9166 165.584 28.7966 165.584 27.4526C165.584 26.1086 165.201 24.9886 164.436 24.0926C163.67 23.1966 162.681 22.7486 161.468 22.7486C160.273 22.7486 159.293 23.1966 158.528 24.0926C157.762 24.9886 157.38 26.1086 157.38 27.4526C157.38 28.7966 157.753 29.9166 158.5 30.8126C159.265 31.6899 160.254 32.1286 161.468 32.1286Z" fill="#E6D9EF"/>
</g>
<defs>
<filter id="filter0_d" x="0" y="0" width="188" height="58" filterUnits="userSpaceOnUse" color-interpolation-filters="sRGB">
<feFlood flood-opacity="0" result="BackgroundImageFix"/>
<feColorMatrix in="SourceAlpha" type="matrix" values="0 0 0 0 0 0 0 0 0 0 0 0 0 0 0 0 0 0 127 0"/>
<feOffset dy="4"/>
<feGaussianBlur stdDeviation="2"/>
<feColorMatrix type="matrix" values="0 0 0 0 0 0 0 0 0 0 0 0 0 0 0 0 0 0 0.25 0"/>
<feBlend mode="normal" in2="BackgroundImageFix" result="effect1_dropShadow"/>
<feBlend mode="normal" in="SourceGraphic" in2="effect1_dropShadow" result="shape"/>
</filter>
</defs>
</svg>
