<svg width="316" height="10" viewBox="0 0 316 10" fill="none" xmlns="http://www.w3.org/2000/svg">
<path d="M154.648 4.69531C154.648 3.86719 154.809 3.1224 155.132 2.46094C155.46 1.79948 155.913 1.28906 156.491 0.929688C157.075 0.570312 157.739 0.390625 158.484 0.390625C159.635 0.390625 160.564 0.789062 161.273 1.58594C161.986 2.38281 162.343 3.44271 162.343 4.76562V4.86719C162.343 5.6901 162.184 6.42969 161.866 7.08594C161.554 7.73698 161.103 8.24479 160.515 8.60938C159.932 8.97396 159.26 9.15625 158.499 9.15625C157.353 9.15625 156.424 8.75781 155.71 7.96094C155.002 7.16406 154.648 6.10938 154.648 4.79688V4.69531ZM156.101 4.86719C156.101 5.80469 156.317 6.55729 156.749 7.125C157.187 7.69271 157.77 7.97656 158.499 7.97656C159.234 7.97656 159.817 7.6901 160.249 7.11719C160.682 6.53906 160.898 5.73177 160.898 4.69531C160.898 3.76823 160.676 3.01823 160.234 2.44531C159.796 1.86719 159.213 1.57812 158.484 1.57812C157.77 1.57812 157.195 1.86198 156.757 2.42969C156.32 2.9974 156.101 3.8099 156.101 4.86719Z" fill="#7C878E"/>
<path d="M0 4.5H141.001M174.999 4.5H316" stroke="#C8C9C7"/>
</svg>
