<svg width="209" height="18" viewBox="0 0 209 18" fill="none" xmlns="http://www.w3.org/2000/svg">
<path d="M2.276 13.118C2.276 13.37 2.186 13.58 2.006 13.748C1.826 13.916 1.616 14 1.376 14C1.112 14 0.896 13.916 0.728 13.748C0.572 13.58 0.494 13.37 0.494 13.118V2.264C0.494 2.024 0.578 1.82 0.746 1.652C0.914 1.484 1.13 1.4 1.394 1.4C1.634 1.4 1.838 1.484 2.006 1.652C2.186 1.82 2.276 2.024 2.276 2.264V13.118ZM9.84767 4.352C12.0077 4.352 13.0877 5.648 13.0877 8.24V13.136C13.0877 13.376 13.0037 13.58 12.8357 13.748C12.6797 13.916 12.4757 14 12.2237 14C11.9837 14 11.7797 13.916 11.6117 13.748C11.4557 13.58 11.3777 13.376 11.3777 13.136V8.258C11.3777 7.55 11.2157 6.986 10.8917 6.566C10.5677 6.146 10.0397 5.936 9.30767 5.936C8.82767 5.936 8.38967 6.044 7.99367 6.26C7.60967 6.464 7.30367 6.746 7.07567 7.106C6.85967 7.454 6.75167 7.838 6.75167 8.258V13.136C6.75167 13.376 6.66767 13.58 6.49967 13.748C6.34367 13.916 6.13967 14 5.88767 14C5.63567 14 5.43167 13.922 5.27567 13.766C5.11967 13.598 5.04167 13.388 5.04167 13.136V5.432C5.04167 5.192 5.11967 4.988 5.27567 4.82C5.44367 4.652 5.64767 4.568 5.88767 4.568C6.13967 4.568 6.34367 4.652 6.49967 4.82C6.66767 4.988 6.75167 5.192 6.75167 5.432V6.062C7.06367 5.582 7.49567 5.18 8.04767 4.856C8.61167 4.52 9.21167 4.352 9.84767 4.352ZM17.2613 13.136C17.2613 13.376 17.1773 13.58 17.0093 13.748C16.8533 13.916 16.6493 14 16.3973 14C16.1573 14 15.9533 13.916 15.7853 13.748C15.6293 13.58 15.5513 13.376 15.5513 13.136V5.342C15.5513 5.102 15.6293 4.898 15.7853 4.73C15.9533 4.562 16.1573 4.478 16.3973 4.478C16.6493 4.478 16.8533 4.562 17.0093 4.73C17.1773 4.898 17.2613 5.102 17.2613 5.342V13.136ZM16.3973 3.29C16.0493 3.29 15.7973 3.23 15.6413 3.11C15.4973 2.978 15.4253 2.774 15.4253 2.498V2.21C15.4253 1.922 15.5033 1.718 15.6593 1.598C15.8273 1.478 16.0793 1.418 16.4153 1.418C16.7513 1.418 16.9913 1.484 17.1353 1.616C17.2913 1.736 17.3693 1.934 17.3693 2.21V2.498C17.3693 2.786 17.2913 2.99 17.1353 3.11C16.9793 3.23 16.7333 3.29 16.3973 3.29ZM23.8234 4.352C24.7714 4.352 25.5574 4.502 26.1814 4.802C26.8174 5.102 27.1354 5.486 27.1354 5.954C27.1354 6.158 27.0694 6.344 26.9374 6.512C26.8054 6.668 26.6374 6.746 26.4334 6.746C26.2774 6.746 26.1514 6.722 26.0554 6.674C25.9714 6.626 25.8514 6.548 25.6954 6.44C25.6234 6.368 25.5094 6.284 25.3534 6.188C25.2094 6.116 25.0054 6.056 24.7414 6.008C24.4774 5.96 24.2374 5.936 24.0214 5.936C23.3974 5.936 22.8454 6.08 22.3654 6.368C21.8854 6.656 21.5134 7.058 21.2494 7.574C20.9854 8.078 20.8534 8.642 20.8534 9.266C20.8534 9.902 20.9794 10.472 21.2314 10.976C21.4954 11.48 21.8614 11.876 22.3294 12.164C22.7974 12.452 23.3314 12.596 23.9314 12.596C24.5554 12.596 25.0594 12.5 25.4434 12.308C25.5274 12.26 25.6414 12.182 25.7854 12.074C25.9054 11.978 26.0074 11.906 26.0914 11.858C26.1874 11.81 26.3014 11.786 26.4334 11.786C26.6734 11.786 26.8594 11.864 26.9914 12.02C27.1354 12.164 27.2074 12.356 27.2074 12.596C27.2074 12.848 27.0454 13.1 26.7214 13.352C26.4094 13.592 25.9834 13.79 25.4434 13.946C24.9154 14.102 24.3454 14.18 23.7334 14.18C22.8214 14.18 22.0174 13.97 21.3214 13.55C20.6254 13.118 20.0854 12.53 19.7014 11.786C19.3294 11.03 19.1434 10.19 19.1434 9.266C19.1434 8.342 19.3414 7.508 19.7374 6.764C20.1334 6.008 20.6854 5.42 21.3934 5C22.1014 4.568 22.9114 4.352 23.8234 4.352ZM30.5855 13.136C30.5855 13.376 30.5015 13.58 30.3335 13.748C30.1775 13.916 29.9735 14 29.7215 14C29.4815 14 29.2775 13.916 29.1095 13.748C28.9535 13.58 28.8755 13.376 28.8755 13.136V5.342C28.8755 5.102 28.9535 4.898 29.1095 4.73C29.2775 4.562 29.4815 4.478 29.7215 4.478C29.9735 4.478 30.1775 4.562 30.3335 4.73C30.5015 4.898 30.5855 5.102 30.5855 5.342V13.136ZM29.7215 3.29C29.3735 3.29 29.1215 3.23 28.9655 3.11C28.8215 2.978 28.7495 2.774 28.7495 2.498V2.21C28.7495 1.922 28.8275 1.718 28.9835 1.598C29.1515 1.478 29.4035 1.418 29.7395 1.418C30.0755 1.418 30.3155 1.484 30.4595 1.616C30.6155 1.736 30.6935 1.934 30.6935 2.21V2.498C30.6935 2.786 30.6155 2.99 30.4595 3.11C30.3035 3.23 30.0575 3.29 29.7215 3.29ZM40.6936 4.442C40.9456 4.442 41.1496 4.526 41.3056 4.694C41.4736 4.85 41.5576 5.06 41.5576 5.324V13.136C41.5576 13.376 41.4736 13.58 41.3056 13.748C41.1496 13.916 40.9456 14 40.6936 14C40.4416 14 40.2376 13.922 40.0816 13.766C39.9256 13.598 39.8476 13.388 39.8476 13.136V12.668C39.5356 13.088 39.1096 13.448 38.5696 13.748C38.0296 14.036 37.4476 14.18 36.8236 14.18C36.0076 14.18 35.2636 13.97 34.5916 13.55C33.9316 13.13 33.4096 12.548 33.0256 11.804C32.6536 11.048 32.4676 10.202 32.4676 9.266C32.4676 8.33 32.6536 7.49 33.0256 6.746C33.4096 5.99 33.9316 5.402 34.5916 4.982C35.2516 4.562 35.9776 4.352 36.7696 4.352C37.4056 4.352 37.9936 4.484 38.5336 4.748C39.0856 5.012 39.5236 5.348 39.8476 5.756V5.324C39.8476 5.072 39.9256 4.862 40.0816 4.694C40.2376 4.526 40.4416 4.442 40.6936 4.442ZM37.0216 12.596C37.5856 12.596 38.0836 12.452 38.5156 12.164C38.9596 11.876 39.3016 11.48 39.5416 10.976C39.7936 10.472 39.9196 9.902 39.9196 9.266C39.9196 8.642 39.7936 8.078 39.5416 7.574C39.3016 7.07 38.9596 6.674 38.5156 6.386C38.0836 6.086 37.5856 5.936 37.0216 5.936C36.4576 5.936 35.9536 6.08 35.5096 6.368C35.0776 6.656 34.7356 7.052 34.4836 7.556C34.2436 8.06 34.1236 8.63 34.1236 9.266C34.1236 9.902 34.2436 10.472 34.4836 10.976C34.7356 11.48 35.0776 11.876 35.5096 12.164C35.9536 12.452 36.4576 12.596 37.0216 12.596ZM48.7983 4.352C49.1103 4.352 49.3803 4.436 49.6083 4.604C49.8363 4.76 49.9503 4.958 49.9503 5.198C49.9503 5.486 49.8723 5.708 49.7163 5.864C49.5723 6.008 49.3923 6.08 49.1763 6.08C49.0683 6.08 48.9063 6.044 48.6903 5.972C48.4383 5.888 48.2403 5.846 48.0963 5.846C47.7243 5.846 47.3583 5.978 46.9983 6.242C46.6503 6.494 46.3623 6.848 46.1343 7.304C45.9183 7.748 45.8103 8.246 45.8103 8.798V13.136C45.8103 13.376 45.7263 13.58 45.5583 13.748C45.4023 13.916 45.1983 14 44.9463 14C44.6943 14 44.4903 13.922 44.3343 13.766C44.1783 13.598 44.1003 13.388 44.1003 13.136V5.432C44.1003 5.192 44.1783 4.988 44.3343 4.82C44.5023 4.652 44.7063 4.568 44.9463 4.568C45.1983 4.568 45.4023 4.652 45.5583 4.82C45.7263 4.988 45.8103 5.192 45.8103 5.432V6.35C46.0743 5.762 46.4703 5.288 46.9983 4.928C47.5263 4.556 48.1263 4.364 48.7983 4.352ZM55.988 12.524C55.88 12.356 55.826 12.194 55.826 12.038C55.826 11.798 55.952 11.594 56.204 11.426C56.324 11.342 56.462 11.3 56.618 11.3C56.834 11.3 57.032 11.39 57.212 11.57C57.572 11.978 57.956 12.284 58.364 12.488C58.784 12.692 59.282 12.794 59.858 12.794C60.314 12.782 60.716 12.68 61.064 12.488C61.412 12.284 61.586 11.96 61.586 11.516C61.586 11.108 61.406 10.796 61.046 10.58C60.698 10.364 60.182 10.166 59.498 9.986C58.826 9.806 58.268 9.62 57.824 9.428C57.38 9.224 57.002 8.936 56.69 8.564C56.39 8.18 56.24 7.682 56.24 7.07C56.24 6.53 56.39 6.056 56.69 5.648C57.002 5.24 57.41 4.922 57.914 4.694C58.43 4.466 58.988 4.352 59.588 4.352C60.164 4.352 60.734 4.46 61.298 4.676C61.874 4.892 62.342 5.222 62.702 5.666C62.846 5.834 62.918 6.008 62.918 6.188C62.918 6.38 62.822 6.566 62.63 6.746C62.51 6.854 62.36 6.908 62.18 6.908C61.964 6.908 61.79 6.836 61.658 6.692C61.406 6.404 61.094 6.182 60.722 6.026C60.362 5.87 59.96 5.792 59.516 5.792C59.06 5.792 58.67 5.888 58.346 6.08C58.034 6.26 57.878 6.572 57.878 7.016C57.89 7.436 58.07 7.748 58.418 7.952C58.778 8.156 59.324 8.354 60.056 8.546C60.692 8.714 61.22 8.894 61.64 9.086C62.06 9.278 62.414 9.566 62.702 9.95C62.99 10.322 63.134 10.814 63.134 11.426C63.134 11.99 62.972 12.482 62.648 12.902C62.324 13.31 61.898 13.628 61.37 13.856C60.854 14.072 60.302 14.18 59.714 14.18C58.958 14.18 58.256 14.048 57.608 13.784C56.972 13.52 56.432 13.1 55.988 12.524ZM73.3861 8.924C73.3741 9.14 73.2841 9.326 73.1161 9.482C72.9481 9.626 72.7501 9.698 72.5221 9.698H66.1861C66.2701 10.574 66.6001 11.276 67.1761 11.804C67.7641 12.332 68.4781 12.596 69.3181 12.596C69.8941 12.596 70.3621 12.512 70.7221 12.344C71.0821 12.176 71.4001 11.96 71.6761 11.696C71.8561 11.588 72.0301 11.534 72.1981 11.534C72.4021 11.534 72.5701 11.606 72.7021 11.75C72.8461 11.894 72.9181 12.062 72.9181 12.254C72.9181 12.506 72.7981 12.734 72.5581 12.938C72.2101 13.286 71.7481 13.58 71.1721 13.82C70.5961 14.06 70.0081 14.18 69.4081 14.18C68.4361 14.18 67.5781 13.976 66.8341 13.568C66.1021 13.16 65.5321 12.59 65.1241 11.858C64.7281 11.126 64.5301 10.298 64.5301 9.374C64.5301 8.366 64.7341 7.484 65.1421 6.728C65.5621 5.96 66.1081 5.372 66.7801 4.964C67.4641 4.556 68.1961 4.352 68.9761 4.352C69.7441 4.352 70.4641 4.55 71.1361 4.946C71.8081 5.342 72.3481 5.888 72.7561 6.584C73.1641 7.28 73.3741 8.06 73.3861 8.924ZM68.9761 5.936C68.3041 5.936 67.7221 6.128 67.2301 6.512C66.7381 6.884 66.4141 7.466 66.2581 8.258H71.5681V8.114C71.5081 7.478 71.2201 6.956 70.7041 6.548C70.2001 6.14 69.6241 5.936 68.9761 5.936ZM74.8318 12.524C74.7238 12.356 74.6698 12.194 74.6698 12.038C74.6698 11.798 74.7958 11.594 75.0478 11.426C75.1678 11.342 75.3058 11.3 75.4618 11.3C75.6778 11.3 75.8758 11.39 76.0558 11.57C76.4158 11.978 76.7998 12.284 77.2078 12.488C77.6278 12.692 78.1258 12.794 78.7018 12.794C79.1578 12.782 79.5598 12.68 79.9078 12.488C80.2558 12.284 80.4298 11.96 80.4298 11.516C80.4298 11.108 80.2498 10.796 79.8898 10.58C79.5418 10.364 79.0258 10.166 78.3418 9.986C77.6698 9.806 77.1118 9.62 76.6678 9.428C76.2238 9.224 75.8458 8.936 75.5338 8.564C75.2338 8.18 75.0838 7.682 75.0838 7.07C75.0838 6.53 75.2338 6.056 75.5338 5.648C75.8458 5.24 76.2538 4.922 76.7578 4.694C77.2738 4.466 77.8318 4.352 78.4318 4.352C79.0078 4.352 79.5778 4.46 80.1418 4.676C80.7178 4.892 81.1858 5.222 81.5458 5.666C81.6898 5.834 81.7618 6.008 81.7618 6.188C81.7618 6.38 81.6658 6.566 81.4738 6.746C81.3538 6.854 81.2038 6.908 81.0238 6.908C80.8078 6.908 80.6338 6.836 80.5018 6.692C80.2498 6.404 79.9378 6.182 79.5658 6.026C79.2058 5.87 78.8038 5.792 78.3598 5.792C77.9038 5.792 77.5138 5.888 77.1898 6.08C76.8778 6.26 76.7218 6.572 76.7218 7.016C76.7338 7.436 76.9138 7.748 77.2618 7.952C77.6218 8.156 78.1678 8.354 78.8998 8.546C79.5358 8.714 80.0638 8.894 80.4838 9.086C80.9038 9.278 81.2578 9.566 81.5458 9.95C81.8338 10.322 81.9778 10.814 81.9778 11.426C81.9778 11.99 81.8158 12.482 81.4918 12.902C81.1678 13.31 80.7418 13.628 80.2138 13.856C79.6978 14.072 79.1458 14.18 78.5578 14.18C77.8018 14.18 77.0998 14.048 76.4518 13.784C75.8158 13.52 75.2758 13.1 74.8318 12.524ZM85.5699 13.136C85.5699 13.376 85.4859 13.58 85.3179 13.748C85.1619 13.916 84.9579 14 84.7059 14C84.4659 14 84.2619 13.916 84.0939 13.748C83.9379 13.58 83.8599 13.376 83.8599 13.136V5.342C83.8599 5.102 83.9379 4.898 84.0939 4.73C84.2619 4.562 84.4659 4.478 84.7059 4.478C84.9579 4.478 85.1619 4.562 85.3179 4.73C85.4859 4.898 85.5699 5.102 85.5699 5.342V13.136ZM84.7059 3.29C84.3579 3.29 84.1059 3.23 83.9499 3.11C83.8059 2.978 83.7339 2.774 83.7339 2.498V2.21C83.7339 1.922 83.8119 1.718 83.9679 1.598C84.1359 1.478 84.3879 1.418 84.7239 1.418C85.0599 1.418 85.2999 1.484 85.4439 1.616C85.5999 1.736 85.6779 1.934 85.6779 2.21V2.498C85.6779 2.786 85.5999 2.99 85.4439 3.11C85.2879 3.23 85.0419 3.29 84.7059 3.29ZM96.956 9.284C96.956 10.22 96.746 11.06 96.326 11.804C95.906 12.548 95.33 13.13 94.598 13.55C93.878 13.97 93.08 14.18 92.204 14.18C91.328 14.18 90.524 13.97 89.792 13.55C89.072 13.13 88.502 12.548 88.082 11.804C87.662 11.06 87.452 10.22 87.452 9.284C87.452 8.348 87.662 7.502 88.082 6.746C88.502 5.99 89.072 5.402 89.792 4.982C90.524 4.562 91.328 4.352 92.204 4.352C93.08 4.352 93.878 4.562 94.598 4.982C95.33 5.402 95.906 5.99 96.326 6.746C96.746 7.502 96.956 8.348 96.956 9.284ZM95.246 9.284C95.246 8.636 95.108 8.06 94.832 7.556C94.568 7.04 94.202 6.644 93.734 6.368C93.278 6.08 92.768 5.936 92.204 5.936C91.64 5.936 91.124 6.08 90.656 6.368C90.2 6.644 89.834 7.04 89.558 7.556C89.294 8.06 89.162 8.636 89.162 9.284C89.162 9.92 89.294 10.49 89.558 10.994C89.834 11.498 90.2 11.894 90.656 12.182C91.124 12.458 91.64 12.596 92.204 12.596C92.768 12.596 93.278 12.458 93.734 12.182C94.202 11.894 94.568 11.498 94.832 10.994C95.108 10.49 95.246 9.92 95.246 9.284ZM92.168 3.848C92.072 3.848 91.97 3.806 91.862 3.722C91.754 3.638 91.706 3.524 91.718 3.38C91.718 3.284 91.754 3.176 91.826 3.056L92.888 1.274C92.984 1.106 93.098 0.968 93.23 0.86C93.374 0.752 93.536 0.698 93.716 0.698C93.98 0.698 94.178 0.769999 94.31 0.913999C94.454 1.046 94.52 1.226 94.508 1.454C94.508 1.67 94.418 1.88 94.238 2.084L92.888 3.56C92.696 3.752 92.456 3.848 92.168 3.848ZM103.75 4.352C105.91 4.352 106.99 5.648 106.99 8.24V13.136C106.99 13.376 106.906 13.58 106.738 13.748C106.582 13.916 106.378 14 106.126 14C105.886 14 105.682 13.916 105.514 13.748C105.358 13.58 105.28 13.376 105.28 13.136V8.258C105.28 7.55 105.118 6.986 104.794 6.566C104.47 6.146 103.942 5.936 103.21 5.936C102.73 5.936 102.292 6.044 101.896 6.26C101.512 6.464 101.206 6.746 100.978 7.106C100.762 7.454 100.654 7.838 100.654 8.258V13.136C100.654 13.376 100.57 13.58 100.402 13.748C100.246 13.916 100.042 14 99.79 14C99.538 14 99.334 13.922 99.178 13.766C99.022 13.598 98.944 13.388 98.944 13.136V5.432C98.944 5.192 99.022 4.988 99.178 4.82C99.346 4.652 99.55 4.568 99.79 4.568C100.042 4.568 100.246 4.652 100.402 4.82C100.57 4.988 100.654 5.192 100.654 5.432V6.062C100.966 5.582 101.398 5.18 101.95 4.856C102.514 4.52 103.114 4.352 103.75 4.352ZM118.64 4.352C119.588 4.352 120.374 4.502 120.998 4.802C121.634 5.102 121.952 5.486 121.952 5.954C121.952 6.158 121.886 6.344 121.754 6.512C121.622 6.668 121.454 6.746 121.25 6.746C121.094 6.746 120.968 6.722 120.872 6.674C120.788 6.626 120.668 6.548 120.512 6.44C120.44 6.368 120.326 6.284 120.17 6.188C120.026 6.116 119.822 6.056 119.558 6.008C119.294 5.96 119.054 5.936 118.838 5.936C118.214 5.936 117.662 6.08 117.182 6.368C116.702 6.656 116.33 7.058 116.066 7.574C115.802 8.078 115.67 8.642 115.67 9.266C115.67 9.902 115.796 10.472 116.048 10.976C116.312 11.48 116.678 11.876 117.146 12.164C117.614 12.452 118.148 12.596 118.748 12.596C119.372 12.596 119.876 12.5 120.26 12.308C120.344 12.26 120.458 12.182 120.602 12.074C120.722 11.978 120.824 11.906 120.908 11.858C121.004 11.81 121.118 11.786 121.25 11.786C121.49 11.786 121.676 11.864 121.808 12.02C121.952 12.164 122.024 12.356 122.024 12.596C122.024 12.848 121.862 13.1 121.538 13.352C121.226 13.592 120.8 13.79 120.26 13.946C119.732 14.102 119.162 14.18 118.55 14.18C117.638 14.18 116.834 13.97 116.138 13.55C115.442 13.118 114.902 12.53 114.518 11.786C114.146 11.03 113.96 10.19 113.96 9.266C113.96 8.342 114.158 7.508 114.554 6.764C114.95 6.008 115.502 5.42 116.21 5C116.918 4.568 117.728 4.352 118.64 4.352ZM132.71 9.284C132.71 10.22 132.5 11.06 132.08 11.804C131.66 12.548 131.084 13.13 130.352 13.55C129.632 13.97 128.834 14.18 127.958 14.18C127.082 14.18 126.278 13.97 125.546 13.55C124.826 13.13 124.256 12.548 123.836 11.804C123.416 11.06 123.206 10.22 123.206 9.284C123.206 8.348 123.416 7.502 123.836 6.746C124.256 5.99 124.826 5.402 125.546 4.982C126.278 4.562 127.082 4.352 127.958 4.352C128.834 4.352 129.632 4.562 130.352 4.982C131.084 5.402 131.66 5.99 132.08 6.746C132.5 7.502 132.71 8.348 132.71 9.284ZM131 9.284C131 8.636 130.862 8.06 130.586 7.556C130.322 7.04 129.956 6.644 129.488 6.368C129.032 6.08 128.522 5.936 127.958 5.936C127.394 5.936 126.878 6.08 126.41 6.368C125.954 6.644 125.588 7.04 125.312 7.556C125.048 8.06 124.916 8.636 124.916 9.284C124.916 9.92 125.048 10.49 125.312 10.994C125.588 11.498 125.954 11.894 126.41 12.182C126.878 12.458 127.394 12.596 127.958 12.596C128.522 12.596 129.032 12.458 129.488 12.182C129.956 11.894 130.322 11.498 130.586 10.994C130.862 10.49 131 9.92 131 9.284ZM139.504 4.352C141.664 4.352 142.744 5.648 142.744 8.24V13.136C142.744 13.376 142.66 13.58 142.492 13.748C142.336 13.916 142.132 14 141.88 14C141.64 14 141.436 13.916 141.268 13.748C141.112 13.58 141.034 13.376 141.034 13.136V8.258C141.034 7.55 140.872 6.986 140.548 6.566C140.224 6.146 139.696 5.936 138.964 5.936C138.484 5.936 138.046 6.044 137.65 6.26C137.266 6.464 136.96 6.746 136.732 7.106C136.516 7.454 136.408 7.838 136.408 8.258V13.136C136.408 13.376 136.324 13.58 136.156 13.748C136 13.916 135.796 14 135.544 14C135.292 14 135.088 13.922 134.932 13.766C134.776 13.598 134.698 13.388 134.698 13.136V5.432C134.698 5.192 134.776 4.988 134.932 4.82C135.1 4.652 135.304 4.568 135.544 4.568C135.796 4.568 136 4.652 136.156 4.82C136.324 4.988 136.408 5.192 136.408 5.432V6.062C136.72 5.582 137.152 5.18 137.704 4.856C138.268 4.52 138.868 4.352 139.504 4.352ZM159.758 7.376C159.998 7.376 160.196 7.46 160.352 7.628C160.52 7.796 160.604 8 160.604 8.24V12.29C160.604 12.614 160.46 12.866 160.172 13.046C159.62 13.406 159.014 13.688 158.354 13.892C157.694 14.084 157.016 14.18 156.32 14.18C155.12 14.18 154.016 13.892 153.008 13.316C152.012 12.74 151.226 11.96 150.65 10.976C150.074 9.98 149.786 8.888 149.786 7.7C149.786 6.512 150.074 5.426 150.65 4.442C151.226 3.446 152.012 2.66 153.008 2.084C154.016 1.508 155.12 1.22 156.32 1.22C156.92 1.22 157.496 1.286 158.048 1.418C158.612 1.55 159.116 1.748 159.56 2.012C159.704 2.096 159.812 2.198 159.884 2.318C159.956 2.438 159.992 2.57 159.992 2.714C159.992 2.954 159.908 3.164 159.74 3.344C159.584 3.512 159.392 3.596 159.164 3.596C158.984 3.596 158.828 3.554 158.696 3.47C157.916 3.11 157.124 2.93 156.32 2.93C155.456 2.93 154.664 3.14 153.944 3.56C153.236 3.98 152.672 4.556 152.252 5.288C151.844 6.02 151.64 6.824 151.64 7.7C151.64 8.576 151.844 9.38 152.252 10.112C152.672 10.832 153.236 11.408 153.944 11.84C154.664 12.26 155.456 12.47 156.32 12.47C156.728 12.47 157.154 12.422 157.598 12.326C158.054 12.23 158.444 12.104 158.768 11.948V9.086H156.59C156.35 9.086 156.146 9.008 155.978 8.852C155.81 8.684 155.726 8.48 155.726 8.24C155.726 7.988 155.81 7.784 155.978 7.628C156.146 7.46 156.35 7.376 156.59 7.376H159.758ZM171.733 9.284C171.733 10.22 171.523 11.06 171.103 11.804C170.683 12.548 170.107 13.13 169.375 13.55C168.655 13.97 167.857 14.18 166.981 14.18C166.105 14.18 165.301 13.97 164.569 13.55C163.849 13.13 163.279 12.548 162.859 11.804C162.439 11.06 162.229 10.22 162.229 9.284C162.229 8.348 162.439 7.502 162.859 6.746C163.279 5.99 163.849 5.402 164.569 4.982C165.301 4.562 166.105 4.352 166.981 4.352C167.857 4.352 168.655 4.562 169.375 4.982C170.107 5.402 170.683 5.99 171.103 6.746C171.523 7.502 171.733 8.348 171.733 9.284ZM170.023 9.284C170.023 8.636 169.885 8.06 169.609 7.556C169.345 7.04 168.979 6.644 168.511 6.368C168.055 6.08 167.545 5.936 166.981 5.936C166.417 5.936 165.901 6.08 165.433 6.368C164.977 6.644 164.611 7.04 164.335 7.556C164.071 8.06 163.939 8.636 163.939 9.284C163.939 9.92 164.071 10.49 164.335 10.994C164.611 11.498 164.977 11.894 165.433 12.182C165.901 12.458 166.417 12.596 166.981 12.596C167.545 12.596 168.055 12.458 168.511 12.182C168.979 11.894 169.345 11.498 169.609 10.994C169.885 10.49 170.023 9.92 170.023 9.284ZM182.649 9.284C182.649 10.22 182.439 11.06 182.019 11.804C181.599 12.548 181.023 13.13 180.291 13.55C179.571 13.97 178.773 14.18 177.897 14.18C177.021 14.18 176.217 13.97 175.485 13.55C174.765 13.13 174.195 12.548 173.775 11.804C173.355 11.06 173.145 10.22 173.145 9.284C173.145 8.348 173.355 7.502 173.775 6.746C174.195 5.99 174.765 5.402 175.485 4.982C176.217 4.562 177.021 4.352 177.897 4.352C178.773 4.352 179.571 4.562 180.291 4.982C181.023 5.402 181.599 5.99 182.019 6.746C182.439 7.502 182.649 8.348 182.649 9.284ZM180.939 9.284C180.939 8.636 180.801 8.06 180.525 7.556C180.261 7.04 179.895 6.644 179.427 6.368C178.971 6.08 178.461 5.936 177.897 5.936C177.333 5.936 176.817 6.08 176.349 6.368C175.893 6.644 175.527 7.04 175.251 7.556C174.987 8.06 174.855 8.636 174.855 9.284C174.855 9.92 174.987 10.49 175.251 10.994C175.527 11.498 175.893 11.894 176.349 12.182C176.817 12.458 177.333 12.596 177.897 12.596C178.461 12.596 178.971 12.458 179.427 12.182C179.895 11.894 180.261 11.498 180.525 10.994C180.801 10.49 180.939 9.92 180.939 9.284ZM192.521 4.442C192.773 4.442 192.977 4.526 193.133 4.694C193.301 4.85 193.385 5.06 193.385 5.324V13.244C193.385 14.216 193.175 15.026 192.755 15.674C192.347 16.334 191.789 16.82 191.081 17.132C190.373 17.444 189.575 17.6 188.687 17.6C188.207 17.6 187.643 17.516 186.995 17.348C186.359 17.18 185.951 17.006 185.771 16.826C185.399 16.634 185.213 16.394 185.213 16.106C185.213 16.034 185.237 15.938 185.285 15.818C185.417 15.518 185.639 15.368 185.951 15.368C186.107 15.368 186.275 15.404 186.455 15.476C187.415 15.848 188.165 16.034 188.705 16.034C189.665 16.034 190.397 15.8 190.901 15.332C191.417 14.876 191.675 14.246 191.675 13.442V12.47C191.423 12.938 190.997 13.34 190.397 13.676C189.809 14.012 189.185 14.18 188.525 14.18C187.697 14.18 186.941 13.97 186.257 13.55C185.573 13.13 185.033 12.548 184.637 11.804C184.253 11.048 184.061 10.202 184.061 9.266C184.061 8.33 184.253 7.49 184.637 6.746C185.033 5.99 185.567 5.402 186.239 4.982C186.923 4.562 187.673 4.352 188.489 4.352C189.149 4.352 189.761 4.502 190.325 4.802C190.901 5.102 191.351 5.468 191.675 5.9V5.324C191.675 5.072 191.753 4.862 191.909 4.694C192.065 4.526 192.269 4.442 192.521 4.442ZM188.723 12.596C189.311 12.596 189.833 12.458 190.289 12.182C190.745 11.894 191.099 11.498 191.351 10.994C191.615 10.478 191.747 9.902 191.747 9.266C191.747 8.63 191.615 8.06 191.351 7.556C191.099 7.052 190.745 6.656 190.289 6.368C189.833 6.08 189.311 5.936 188.723 5.936C188.147 5.936 187.631 6.08 187.175 6.368C186.719 6.656 186.359 7.058 186.095 7.574C185.843 8.078 185.717 8.642 185.717 9.266C185.717 9.89 185.843 10.46 186.095 10.976C186.359 11.48 186.719 11.876 187.175 12.164C187.631 12.452 188.147 12.596 188.723 12.596ZM197.777 13.136C197.777 13.376 197.693 13.58 197.525 13.748C197.357 13.916 197.153 14 196.913 14C196.673 14 196.469 13.916 196.301 13.748C196.145 13.58 196.067 13.376 196.067 13.136V1.544C196.067 1.304 196.151 1.1 196.319 0.932C196.487 0.764 196.691 0.68 196.931 0.68C197.171 0.68 197.369 0.764 197.525 0.932C197.693 1.1 197.777 1.304 197.777 1.544V13.136ZM208.579 8.924C208.567 9.14 208.477 9.326 208.309 9.482C208.141 9.626 207.943 9.698 207.715 9.698H201.379C201.463 10.574 201.793 11.276 202.369 11.804C202.957 12.332 203.671 12.596 204.511 12.596C205.087 12.596 205.555 12.512 205.915 12.344C206.275 12.176 206.593 11.96 206.869 11.696C207.049 11.588 207.223 11.534 207.391 11.534C207.595 11.534 207.763 11.606 207.895 11.75C208.039 11.894 208.111 12.062 208.111 12.254C208.111 12.506 207.991 12.734 207.751 12.938C207.403 13.286 206.941 13.58 206.365 13.82C205.789 14.06 205.201 14.18 204.601 14.18C203.629 14.18 202.771 13.976 202.027 13.568C201.295 13.16 200.725 12.59 200.317 11.858C199.921 11.126 199.723 10.298 199.723 9.374C199.723 8.366 199.927 7.484 200.335 6.728C200.755 5.96 201.301 5.372 201.973 4.964C202.657 4.556 203.389 4.352 204.169 4.352C204.937 4.352 205.657 4.55 206.329 4.946C207.001 5.342 207.541 5.888 207.949 6.584C208.357 7.28 208.567 8.06 208.579 8.924ZM204.169 5.936C203.497 5.936 202.915 6.128 202.423 6.512C201.931 6.884 201.607 7.466 201.451 8.258H206.761V8.114C206.701 7.478 206.413 6.956 205.897 6.548C205.393 6.14 204.817 5.936 204.169 5.936Z" fill="#7C878E"/>
</svg>
