<svg width="210" height="60" viewBox="0 0 210 60" fill="none" xmlns="http://www.w3.org/2000/svg">
<g clip-path="url(#clip0)">
<rect width="210" height="61.2245" fill="white"/>
<circle cx="26" cy="30" r="18.5" stroke="#32C755" stroke-width="3"/>
<path d="M38 30C38 36.6274 32.6274 42 26 42C19.3726 42 14 36.6274 14 30C14 23.3726 19.3726 18 26 18C32.6274 18 38 23.3726 38 30Z" fill="#32C755"/>
<path d="M54.14 49C52.44 49 51.59 48.15 51.59 46.45V23.653C51.59 21.953 52.44 21.103 54.14 21.103C55.84 21.103 56.69 21.953 56.69 23.653V24.622C57.71 23.432 58.951 22.497 60.413 21.817C61.909 21.137 63.524 20.797 65.258 20.797C67.298 20.797 68.811 21.137 69.797 21.817C70.817 22.463 71.208 23.245 70.97 24.163C70.8 24.877 70.46 25.353 69.95 25.591C69.44 25.795 68.845 25.829 68.165 25.693C65.989 25.251 64.034 25.217 62.3 25.591C60.566 25.965 59.189 26.662 58.169 27.682C57.183 28.702 56.69 29.994 56.69 31.558V46.45C56.69 48.15 55.84 49 54.14 49ZM86.9987 49.204C84.3467 49.204 81.9497 48.592 79.8077 47.368C77.6997 46.11 76.0167 44.41 74.7587 42.268C73.5347 40.126 72.9227 37.712 72.9227 35.026C72.9227 32.34 73.4837 29.943 74.6057 27.835C75.7617 25.693 77.3257 24.01 79.2977 22.786C81.2697 21.528 83.4967 20.899 85.9787 20.899C87.9847 20.899 89.8377 21.324 91.5377 22.174C93.2377 22.99 94.6657 24.112 95.8217 25.54V11.77C95.8217 10.988 96.0597 10.359 96.5357 9.883C97.0457 9.407 97.6747 9.169 98.4227 9.169C99.2047 9.169 99.8337 9.407 100.31 9.883C100.786 10.359 101.024 10.988 101.024 11.77V35.026C101.024 37.712 100.395 40.126 99.1367 42.268C97.9127 44.41 96.2467 46.11 94.1387 47.368C92.0307 48.592 89.6507 49.204 86.9987 49.204ZM86.9987 44.614C88.7327 44.614 90.2797 44.206 91.6397 43.39C92.9997 42.54 94.0707 41.384 94.8527 39.922C95.6347 38.46 96.0257 36.828 96.0257 35.026C96.0257 33.19 95.6347 31.558 94.8527 30.13C94.0707 28.702 92.9997 27.58 91.6397 26.764C90.2797 25.914 88.7327 25.489 86.9987 25.489C85.2987 25.489 83.7517 25.914 82.3577 26.764C80.9977 27.58 79.9097 28.702 79.0937 30.13C78.3117 31.558 77.9207 33.19 77.9207 35.026C77.9207 36.828 78.3117 38.46 79.0937 39.922C79.9097 41.384 80.9977 42.54 82.3577 43.39C83.7517 44.206 85.2987 44.614 86.9987 44.614ZM123.317 49.204C120.495 49.204 117.979 48.609 115.769 47.419C113.593 46.195 111.876 44.529 110.618 42.421C109.394 40.279 108.782 37.831 108.782 35.077C108.782 32.289 109.36 29.841 110.516 27.733C111.706 25.591 113.338 23.925 115.412 22.735C117.486 21.511 119.866 20.899 122.552 20.899C125.204 20.899 127.482 21.494 129.386 22.684C131.29 23.84 132.735 25.455 133.721 27.529C134.741 29.569 135.251 31.932 135.251 34.618C135.251 35.264 135.03 35.808 134.588 36.25C134.146 36.658 133.585 36.862 132.905 36.862H113.525C113.899 39.208 114.97 41.129 116.738 42.625C118.54 44.087 120.733 44.818 123.317 44.818C124.371 44.818 125.442 44.631 126.53 44.257C127.652 43.849 128.553 43.39 129.233 42.88C129.743 42.506 130.287 42.319 130.865 42.319C131.477 42.285 132.004 42.455 132.446 42.829C133.024 43.339 133.33 43.9 133.364 44.512C133.398 45.124 133.126 45.651 132.548 46.093C131.392 47.011 129.947 47.759 128.213 48.337C126.513 48.915 124.881 49.204 123.317 49.204ZM122.552 25.285C120.036 25.285 118.013 25.982 116.483 27.376C114.953 28.77 113.984 30.572 113.576 32.782H130.559C130.253 30.606 129.42 28.821 128.06 27.427C126.7 25.999 124.864 25.285 122.552 25.285ZM144.487 49.051C143.739 49.051 143.11 48.813 142.6 48.337C142.124 47.827 141.886 47.198 141.886 46.45V23.704C141.886 22.922 142.124 22.293 142.6 21.817C143.11 21.341 143.739 21.103 144.487 21.103C145.269 21.103 145.898 21.341 146.374 21.817C146.85 22.293 147.088 22.922 147.088 23.704V24.265C148.142 23.211 149.417 22.378 150.913 21.766C152.409 21.154 154.024 20.848 155.758 20.848C158.104 20.848 160.195 21.358 162.031 22.378C163.901 23.364 165.363 24.826 166.417 26.764C167.505 28.702 168.049 31.082 168.049 33.904V46.45C168.049 47.198 167.794 47.827 167.284 48.337C166.808 48.813 166.196 49.051 165.448 49.051C164.7 49.051 164.071 48.813 163.561 48.337C163.085 47.827 162.847 47.198 162.847 46.45V33.904C162.847 31.014 162.065 28.906 160.501 27.58C158.971 26.22 157.05 25.54 154.738 25.54C153.31 25.54 152.018 25.829 150.862 26.407C149.706 26.985 148.788 27.767 148.108 28.753C147.428 29.705 147.088 30.81 147.088 32.068V46.45C147.088 47.198 146.85 47.827 146.374 48.337C145.898 48.813 145.269 49.051 144.487 49.051ZM188.278 49.204C185.796 49.204 183.569 48.592 181.597 47.368C179.625 46.11 178.061 44.427 176.905 42.319C175.783 40.177 175.222 37.763 175.222 35.077C175.222 32.391 175.834 29.977 177.058 27.835C178.316 25.693 179.999 24.01 182.107 22.786C184.249 21.528 186.646 20.899 189.298 20.899C191.95 20.899 194.33 21.528 196.438 22.786C198.546 24.01 200.212 25.693 201.436 27.835C202.694 29.977 203.323 32.391 203.323 35.077V46.45C203.323 47.198 203.068 47.827 202.558 48.337C202.082 48.813 201.47 49.051 200.722 49.051C199.974 49.051 199.345 48.813 198.835 48.337C198.359 47.827 198.121 47.198 198.121 46.45V44.563C196.931 45.991 195.486 47.13 193.786 47.98C192.12 48.796 190.284 49.204 188.278 49.204ZM189.298 44.614C191.032 44.614 192.579 44.206 193.939 43.39C195.299 42.54 196.37 41.401 197.152 39.973C197.934 38.511 198.325 36.879 198.325 35.077C198.325 33.241 197.934 31.609 197.152 30.181C196.37 28.719 195.299 27.58 193.939 26.764C192.579 25.914 191.032 25.489 189.298 25.489C187.598 25.489 186.051 25.914 184.657 26.764C183.297 27.58 182.209 28.719 181.393 30.181C180.611 31.609 180.22 33.241 180.22 35.077C180.22 36.879 180.611 38.511 181.393 39.973C182.209 41.401 183.297 42.54 184.657 43.39C186.051 44.206 187.598 44.614 189.298 44.614Z" fill="#9B26B6"/>
</g>
<defs>
<clipPath id="clip0">
<rect width="210" height="60" fill="white"/>
</clipPath>
</defs>
</svg>
