<svg width="153" height="23" viewBox="0 0 153 23" fill="none" xmlns="http://www.w3.org/2000/svg">
<path d="M16.05 0.999999C16.59 0.999999 17.03 1.16 17.37 1.48C17.71 1.8 17.88 2.22 17.88 2.74C17.88 3.26 17.71 3.68 17.37 4C17.03 4.3 16.59 4.45 16.05 4.45H11.34V20.17C11.34 20.69 11.15 21.13 10.77 21.49C10.39 21.83 9.92 22 9.36 22C8.8 22 8.34 21.83 7.98 21.49C7.62 21.13 7.44 20.69 7.44 20.17V4.45H2.73C2.19 4.45 1.75 4.29 1.41 3.97C1.07 3.65 0.9 3.23 0.9 2.71C0.9 2.21 1.07 1.8 1.41 1.48C1.77 1.16 2.21 0.999999 2.73 0.999999H16.05ZM35.9393 0.969999C36.4593 0.969999 36.8793 1.14 37.1993 1.48C37.5193 1.82 37.6793 2.26 37.6793 2.8V13.66C37.6793 15.32 37.3293 16.79 36.6293 18.07C35.9293 19.35 34.9493 20.35 33.6893 21.07C32.4293 21.79 30.9893 22.15 29.3693 22.15C27.7493 22.15 26.2993 21.79 25.0193 21.07C23.7593 20.35 22.7793 19.35 22.0793 18.07C21.3793 16.79 21.0293 15.32 21.0293 13.66V2.8C21.0293 2.28 21.2093 1.85 21.5693 1.51C21.9293 1.15 22.3893 0.969999 22.9493 0.969999C23.4293 0.969999 23.8493 1.15 24.2093 1.51C24.5693 1.85 24.7493 2.28 24.7493 2.8V13.66C24.7493 14.62 24.9593 15.48 25.3793 16.24C25.7993 16.98 26.3593 17.55 27.0593 17.95C27.7793 18.35 28.5493 18.55 29.3693 18.55C30.2293 18.55 31.0293 18.35 31.7693 17.95C32.5293 17.55 33.1293 16.98 33.5693 16.24C34.0293 15.48 34.2593 14.62 34.2593 13.66V2.8C34.2593 2.26 34.4093 1.82 34.7093 1.48C35.0093 1.14 35.4193 0.969999 35.9393 0.969999ZM64.3898 0.999999C64.9298 0.999999 65.3698 1.16 65.7098 1.48C66.0498 1.8 66.2198 2.22 66.2198 2.74C66.2198 3.26 66.0498 3.68 65.7098 4C65.3698 4.3 64.9298 4.45 64.3898 4.45H59.6798V20.17C59.6798 20.69 59.4898 21.13 59.1098 21.49C58.7298 21.83 58.2598 22 57.6998 22C57.1398 22 56.6798 21.83 56.3198 21.49C55.9598 21.13 55.7798 20.69 55.7798 20.17V4.45H51.0698C50.5298 4.45 50.0898 4.29 49.7498 3.97C49.4098 3.65 49.2398 3.23 49.2398 2.71C49.2398 2.21 49.4098 1.8 49.7498 1.48C50.1098 1.16 50.5498 0.999999 51.0698 0.999999H64.3898ZM84.2791 0.969999C84.7991 0.969999 85.2191 1.14 85.5391 1.48C85.8591 1.82 86.0191 2.26 86.0191 2.8V13.66C86.0191 15.32 85.6691 16.79 84.9691 18.07C84.2691 19.35 83.2891 20.35 82.0291 21.07C80.7691 21.79 79.3291 22.15 77.7091 22.15C76.0891 22.15 74.6391 21.79 73.3591 21.07C72.0991 20.35 71.1191 19.35 70.4191 18.07C69.7191 16.79 69.3691 15.32 69.3691 13.66V2.8C69.3691 2.28 69.5491 1.85 69.9091 1.51C70.2691 1.15 70.7291 0.969999 71.2891 0.969999C71.7691 0.969999 72.1891 1.15 72.5491 1.51C72.9091 1.85 73.0891 2.28 73.0891 2.8V13.66C73.0891 14.62 73.2991 15.48 73.7191 16.24C74.1391 16.98 74.6991 17.55 75.3991 17.95C76.1191 18.35 76.8891 18.55 77.7091 18.55C78.5691 18.55 79.3691 18.35 80.1091 17.95C80.8691 17.55 81.4691 16.98 81.9091 16.24C82.3691 15.48 82.5991 14.62 82.5991 13.66V2.8C82.5991 2.26 82.7491 1.82 83.0491 1.48C83.3491 1.14 83.7591 0.969999 84.2791 0.969999ZM106.991 19.06C107.251 19.22 107.451 19.43 107.591 19.69C107.751 19.95 107.831 20.22 107.831 20.5C107.831 20.86 107.711 21.19 107.471 21.49C107.171 21.85 106.711 22.03 106.091 22.03C105.611 22.03 105.171 21.92 104.771 21.7C103.331 20.88 102.611 19.21 102.611 16.69C102.611 15.97 102.371 15.4 101.891 14.98C101.431 14.56 100.761 14.35 99.8815 14.35H94.2715V20.17C94.2715 20.71 94.1215 21.15 93.8215 21.49C93.5415 21.83 93.1615 22 92.6815 22C92.1015 22 91.5915 21.83 91.1515 21.49C90.7315 21.13 90.5215 20.69 90.5215 20.17V2.83C90.5215 2.31 90.6915 1.88 91.0315 1.54C91.3915 1.18 91.8315 0.999999 92.3515 0.999999H100.991C102.031 0.999999 103.011 1.28 103.931 1.84C104.851 2.4 105.581 3.17 106.121 4.15C106.681 5.13 106.961 6.23 106.961 7.45C106.961 8.45 106.691 9.43 106.151 10.39C105.611 11.33 104.911 12.08 104.051 12.64C105.311 13.52 106.001 14.7 106.121 16.18C106.181 16.5 106.211 16.81 106.211 17.11C106.291 17.73 106.371 18.18 106.451 18.46C106.531 18.72 106.711 18.92 106.991 19.06ZM100.841 11.26C101.201 11.26 101.551 11.09 101.891 10.75C102.231 10.41 102.511 9.96 102.731 9.4C102.951 8.82 103.061 8.2 103.061 7.54C103.061 6.98 102.951 6.47 102.731 6.01C102.511 5.53 102.231 5.15 101.891 4.87C101.551 4.59 101.201 4.45 100.841 4.45H94.2715V11.26H100.841ZM127.047 0.999999C127.527 0.999999 127.917 1.16 128.217 1.48C128.517 1.8 128.667 2.2 128.667 2.68V20.17C128.667 20.69 128.487 21.13 128.127 21.49C127.787 21.83 127.357 22 126.837 22C126.557 22 126.277 21.96 125.997 21.88C125.737 21.78 125.547 21.65 125.427 21.49L114.417 7.51V20.32C114.417 20.8 114.257 21.2 113.937 21.52C113.637 21.84 113.237 22 112.737 22C112.257 22 111.867 21.84 111.567 21.52C111.267 21.2 111.117 20.8 111.117 20.32V2.83C111.117 2.31 111.287 1.88 111.627 1.54C111.987 1.18 112.427 0.999999 112.947 0.999999C113.247 0.999999 113.537 1.06 113.817 1.18C114.117 1.3 114.337 1.46 114.477 1.66L125.397 15.58V2.68C125.397 2.2 125.547 1.8 125.847 1.48C126.167 1.16 126.567 0.999999 127.047 0.999999ZM152.498 11.5C152.498 13.48 152.058 15.3 151.178 16.96C150.298 18.6 149.078 19.9 147.518 20.86C145.978 21.82 144.238 22.3 142.298 22.3C140.358 22.3 138.608 21.82 137.048 20.86C135.508 19.9 134.298 18.6 133.418 16.96C132.558 15.3 132.128 13.48 132.128 11.5C132.128 9.52 132.558 7.71 133.418 6.07C134.298 4.41 135.508 3.1 137.048 2.14C138.608 1.18 140.358 0.699999 142.298 0.699999C144.238 0.699999 145.978 1.18 147.518 2.14C149.078 3.1 150.298 4.41 151.178 6.07C152.058 7.71 152.498 9.52 152.498 11.5ZM148.598 11.5C148.598 10.16 148.328 8.95 147.788 7.87C147.248 6.77 146.498 5.9 145.538 5.26C144.578 4.62 143.498 4.3 142.298 4.3C141.078 4.3 139.988 4.62 139.028 5.26C138.088 5.88 137.348 6.74 136.808 7.84C136.288 8.94 136.028 10.16 136.028 11.5C136.028 12.84 136.288 14.06 136.808 15.16C137.348 16.26 138.088 17.13 139.028 17.77C139.988 18.39 141.078 18.7 142.298 18.7C143.498 18.7 144.578 18.38 145.538 17.74C146.498 17.1 147.248 16.24 147.788 15.16C148.328 14.06 148.598 12.84 148.598 11.5Z" fill="#7C878E"/>
</svg>
