<svg width="448" height="448" viewBox="0 0 448 448" fill="none" xmlns="http://www.w3.org/2000/svg">
<g clip-path="url(#clip0)">
<path d="M420.361 192.229C418.531 191.932 416.679 191.795 414.826 191.819H99.305L106.185 188.619C112.91 185.436 119.028 181.104 124.265 175.819L212.745 87.3391C224.398 76.2151 226.356 58.3201 217.385 44.9391C206.944 30.6801 186.921 27.5841 172.661 38.0251C171.509 38.8691 170.414 39.7891 169.385 40.7791L9.38501 200.779C-3.11899 213.269 -3.12999 233.53 9.36001 246.034C9.36801 246.042 9.37701 246.051 9.38501 246.059L169.385 406.059C181.899 418.538 202.16 418.51 214.64 405.996C215.622 405.011 216.539 403.963 217.385 402.859C226.356 389.478 224.398 371.583 212.745 360.459L124.425 271.819C119.73 267.119 114.332 263.178 108.425 260.139L98.825 255.819H413.065C429.412 256.426 443.754 245.007 446.825 228.939C449.654 211.494 437.806 195.059 420.361 192.229Z" fill="black" fill-opacity="0.5"/>
</g>
<defs>
<clipPath id="clip0">
<rect width="447.243" height="447.243" fill="white"/>
</clipPath>
</defs>
</svg>
