<svg width="25" height="20" viewBox="0 0 25 20" fill="none" xmlns="http://www.w3.org/2000/svg">
<path fill-rule="evenodd" clip-rule="evenodd" d="M12.5017 13.2872L20.5931 19.5246C21.4048 20.1552 21.9329 20.1617 22.7595 19.5246L24.3829 18.2729C25.1782 17.66 25.2321 17.2577 24.3829 16.603L15.8165 10.0003L24.3837 3.39753C25.186 2.77696 25.2017 2.35815 24.3837 1.72699L22.7602 0.47586C21.9181 -0.173531 21.3977 -0.143532 20.5938 0.47586L12.5017 6.7133L4.41025 0.476448C3.60634 -0.142944 3.08603 -0.172943 2.24384 0.476448L0.620404 1.72758C-0.198345 2.35874 -0.183502 2.77755 0.620404 3.39812L9.18681 10.0003L0.620404 16.603C-0.228814 17.2577 -0.183502 17.66 0.620404 18.2729L2.24306 19.5246C3.06259 20.1617 3.59072 20.1552 4.40947 19.5246L12.5017 13.2872Z" fill="#9B26B6"/>
</svg>
