<svg width="160" height="50" viewBox="0 0 160 50" fill="none" xmlns="http://www.w3.org/2000/svg">
<rect width="160" height="50" rx="10" fill="#9B26B6"/>
<path d="M46.92 15C47.94 15 48.91 15.31 49.83 15.93C50.75 16.53 51.49 17.35 52.05 18.39C52.61 19.41 52.89 20.53 52.89 21.75C52.89 22.95 52.61 24.07 52.05 25.11C51.49 26.15 50.75 26.98 49.83 27.6C48.91 28.2 47.94 28.5 46.92 28.5H41.7V34.17C41.7 34.71 41.54 35.15 41.22 35.49C40.9 35.83 40.48 36 39.96 36C39.46 36 39.05 35.83 38.73 35.49C38.41 35.13 38.25 34.69 38.25 34.17V16.83C38.25 16.31 38.42 15.88 38.76 15.54C39.12 15.18 39.56 15 40.08 15H46.92ZM46.92 25.08C47.3 25.08 47.67 24.92 48.03 24.6C48.41 24.28 48.71 23.87 48.93 23.37C49.17 22.85 49.29 22.31 49.29 21.75C49.29 21.19 49.17 20.66 48.93 20.16C48.71 19.64 48.41 19.23 48.03 18.93C47.67 18.61 47.3 18.45 46.92 18.45H41.7V25.08H46.92ZM68.8697 19.65C69.3897 19.65 69.8197 19.82 70.1597 20.16C70.4997 20.5 70.6697 20.94 70.6697 21.48V34.17C70.6697 34.69 70.4997 35.13 70.1597 35.49C69.8197 35.83 69.3897 36 68.8697 36C68.3497 36 67.9197 35.83 67.5797 35.49C67.2597 35.15 67.0897 34.72 67.0697 34.2C66.5697 34.78 65.8897 35.28 65.0297 35.7C64.1897 36.1 63.2997 36.3 62.3597 36.3C60.9797 36.3 59.7297 35.95 58.6097 35.25C57.4897 34.53 56.5997 33.54 55.9397 32.28C55.2997 31.02 54.9797 29.59 54.9797 27.99C54.9797 26.39 55.2997 24.96 55.9397 23.7C56.5797 22.42 57.4497 21.43 58.5497 20.73C59.6697 20.01 60.8997 19.65 62.2397 19.65C63.1997 19.65 64.0997 19.83 64.9397 20.19C65.7797 20.53 66.4897 20.97 67.0697 21.51V21.48C67.0697 20.96 67.2397 20.53 67.5797 20.19C67.9197 19.83 68.3497 19.65 68.8697 19.65ZM62.8097 33C64.1097 33 65.1697 32.53 65.9897 31.59C66.8097 30.63 67.2197 29.43 67.2197 27.99C67.2197 26.55 66.8097 25.35 65.9897 24.39C65.1697 23.43 64.1097 22.95 62.8097 22.95C61.5297 22.95 60.4797 23.43 59.6597 24.39C58.8397 25.35 58.4297 26.55 58.4297 27.99C58.4297 29.43 58.8297 30.63 59.6297 31.59C60.4497 32.53 61.5097 33 62.8097 33ZM87.8611 19.65C88.3811 19.65 88.8111 19.82 89.1511 20.16C89.4911 20.5 89.6611 20.94 89.6611 21.48V34.83C89.6611 37.27 88.9011 39.07 87.3811 40.23C85.8811 41.41 83.9711 42 81.6511 42C81.0511 42 80.2211 41.9 79.1611 41.7C78.1211 41.5 77.3811 41.3 76.9411 41.1C75.9611 40.68 75.4711 40.1 75.4711 39.36C75.4711 39.22 75.5011 39.06 75.5611 38.88C75.6811 38.44 75.8811 38.1 76.1611 37.86C76.4611 37.64 76.7811 37.53 77.1211 37.53C77.3211 37.53 77.5111 37.56 77.6911 37.62C77.7711 37.64 78.2611 37.82 79.1611 38.16C80.0811 38.52 80.9111 38.7 81.6511 38.7C83.1311 38.7 84.2311 38.4 84.9511 37.8C85.6911 37.22 86.0611 36.39 86.0611 35.31V33.87C85.6211 34.49 84.9511 35.05 84.0511 35.55C83.1711 36.05 82.2211 36.3 81.2011 36.3C79.8011 36.3 78.5211 35.95 77.3611 35.25C76.2211 34.53 75.3211 33.54 74.6611 32.28C74.0011 31.02 73.6711 29.59 73.6711 27.99C73.6711 26.39 73.9911 24.96 74.6311 23.7C75.2911 22.42 76.1811 21.43 77.3011 20.73C78.4411 20.01 79.7011 19.65 81.0811 19.65C82.1011 19.65 83.0511 19.86 83.9311 20.28C84.8111 20.7 85.5211 21.21 86.0611 21.81V21.48C86.0611 20.96 86.2311 20.53 86.5711 20.19C86.9111 19.83 87.3411 19.65 87.8611 19.65ZM81.6511 33C82.9911 33 84.0811 32.53 84.9211 31.59C85.7811 30.63 86.2111 29.43 86.2111 27.99C86.2111 26.55 85.7811 25.35 84.9211 24.39C84.0811 23.43 82.9911 22.95 81.6511 22.95C80.3111 22.95 79.2211 23.43 78.3811 24.39C77.5411 25.35 77.1211 26.55 77.1211 27.99C77.1211 29.43 77.5411 30.63 78.3811 31.59C79.2211 32.53 80.3111 33 81.6511 33ZM106.399 19.65C106.919 19.65 107.349 19.82 107.689 20.16C108.029 20.5 108.199 20.94 108.199 21.48V34.17C108.199 34.69 108.029 35.13 107.689 35.49C107.349 35.83 106.919 36 106.399 36C105.879 36 105.449 35.83 105.109 35.49C104.789 35.15 104.619 34.72 104.599 34.2C104.099 34.78 103.419 35.28 102.559 35.7C101.719 36.1 100.829 36.3 99.889 36.3C98.509 36.3 97.259 35.95 96.139 35.25C95.019 34.53 94.129 33.54 93.469 32.28C92.829 31.02 92.509 29.59 92.509 27.99C92.509 26.39 92.829 24.96 93.469 23.7C94.109 22.42 94.979 21.43 96.079 20.73C97.199 20.01 98.429 19.65 99.769 19.65C100.729 19.65 101.629 19.83 102.469 20.19C103.309 20.53 104.019 20.97 104.599 21.51V21.48C104.599 20.96 104.769 20.53 105.109 20.19C105.449 19.83 105.879 19.65 106.399 19.65ZM100.339 33C101.639 33 102.699 32.53 103.519 31.59C104.339 30.63 104.749 29.43 104.749 27.99C104.749 26.55 104.339 25.35 103.519 24.39C102.699 23.43 101.639 22.95 100.339 22.95C99.059 22.95 98.009 23.43 97.189 24.39C96.369 25.35 95.959 26.55 95.959 27.99C95.959 29.43 96.359 30.63 97.159 31.59C97.979 32.53 99.039 33 100.339 33ZM120.44 19.65C121.04 19.65 121.54 19.82 121.94 20.16C122.36 20.5 122.57 20.9 122.57 21.36C122.57 21.98 122.41 22.45 122.09 22.77C121.77 23.07 121.39 23.22 120.95 23.22C120.65 23.22 120.31 23.15 119.93 23.01C119.87 22.99 119.73 22.95 119.51 22.89C119.31 22.83 119.09 22.8 118.85 22.8C118.33 22.8 117.83 22.96 117.35 23.28C116.87 23.6 116.47 24.09 116.15 24.75C115.85 25.39 115.7 26.16 115.7 27.06V34.17C115.7 34.69 115.53 35.13 115.19 35.49C114.85 35.83 114.42 36 113.9 36C113.38 36 112.95 35.83 112.61 35.49C112.27 35.13 112.1 34.69 112.1 34.17V21.78C112.1 21.26 112.27 20.83 112.61 20.49C112.95 20.13 113.38 19.95 113.9 19.95C114.42 19.95 114.85 20.13 115.19 20.49C115.53 20.83 115.7 21.26 115.7 21.78V22.17C116.16 21.35 116.82 20.73 117.68 20.31C118.54 19.87 119.46 19.65 120.44 19.65Z" fill="white"/>
</svg>
