<svg width="24" height="24" viewBox="0 0 24 24" fill="none" xmlns="http://www.w3.org/2000/svg">
<path d="M1 16.3214L4.92857 12.3929C4.96949 13.2522 5.16592 14.0789 5.51786 14.8728C5.86979 15.6667 6.36086 16.3787 6.99107 17.0089C7.62128 17.6391 8.33333 18.1302 9.12723 18.4821C9.92113 18.8341 10.7478 19.0305 11.6071 19.0714L7.67857 23C6.13988 22.3943 4.79762 21.5104 3.65179 20.3482C2.48958 19.2024 1.60565 17.8601 1 16.3214ZM23 16.3214L19.0714 12.3929C19.0305 13.2522 18.8341 14.0789 18.4821 14.8728C18.1302 15.6667 17.6391 16.3787 17.0089 17.0089C16.3787 17.6391 15.6667 18.1302 14.8728 18.4821C14.0789 18.8341 13.2522 19.0305 12.3929 19.0714L16.3214 23C17.8601 22.3943 19.2024 21.5104 20.3482 20.3482C21.5104 19.2024 22.3943 17.8601 23 16.3214ZM16.3214 1L13.0313 4.29018L12.3929 4.92857C13.2522 4.96949 14.0789 5.16592 14.8728 5.51786C15.6667 5.86979 16.3787 6.36086 17.0089 6.99107C17.6391 7.62128 18.1302 8.33333 18.4821 9.12723C18.8341 9.92113 19.0305 10.7478 19.0714 11.6071L23 7.67857C22.3943 6.13988 21.5104 4.79762 20.3482 3.65179C19.2024 2.48958 17.8601 1.60565 16.3214 1ZM7.67857 1L11.6071 4.92857C10.7478 4.96949 9.92113 5.16592 9.12723 5.51786C8.33333 5.86979 7.62128 6.36086 6.99107 6.99107C6.36086 7.62128 5.86979 8.33333 5.51786 9.12723C5.16592 9.92113 4.96949 10.7478 4.92857 11.6071L4.29018 10.9688L1 7.67857C1.60565 6.13988 2.48958 4.79762 3.65179 3.65179C4.79762 2.48958 6.13988 1.60565 7.67857 1Z" fill="#9B26B6"/>
</svg>
