<svg width="24" height="24" viewBox="0 0 24 24" fill="none" xmlns="http://www.w3.org/2000/svg">
<path d="M4.00784 19.9972L4.00787 19.9971L4.00282 19.9922C2.96748 18.9714 2.1632 17.7885 1.58875 16.4398L4.55548 13.4731C4.66157 14.0207 4.8301 14.5551 5.06076 15.0754C5.43829 15.927 5.96497 16.6899 6.63752 17.3625C7.31007 18.035 8.07296 18.5617 8.9246 18.9392C9.44493 19.1699 9.97927 19.3384 10.5269 19.4445L7.56022 22.4112C6.21153 21.8368 5.0286 21.0325 4.00784 19.9972ZM19.9972 19.9922L19.9971 19.9921L19.9922 19.9972C18.9714 21.0325 17.7885 21.8368 16.4398 22.4112L13.4731 19.4445C14.0207 19.3384 14.5551 19.1699 15.0754 18.9392C15.927 18.5617 16.6899 18.035 17.3625 17.3625C18.035 16.6899 18.5617 15.927 18.9392 15.0754C19.1699 14.5551 19.3384 14.0207 19.4445 13.4731L22.4112 16.4398C21.8368 17.7885 21.0325 18.9714 19.9972 19.9922ZM19.9922 4.00282L19.9921 4.00286L19.9972 4.00784C21.0325 5.0286 21.8368 6.21153 22.4112 7.56022L19.4445 10.5269C19.3384 9.97927 19.1699 9.44493 18.9392 8.9246C18.5617 8.07296 18.035 7.31007 17.3625 6.63752C16.6899 5.96497 15.927 5.43829 15.0754 5.06076C14.5551 4.8301 14.0207 4.66157 13.4731 4.55548L16.4398 1.58875C17.7885 2.1632 18.9714 2.96748 19.9922 4.00282ZM4.00282 4.00784L4.00286 4.00787L4.00784 4.00282C5.0286 2.96748 6.21153 2.1632 7.56022 1.58875L10.5269 4.55548C9.97926 4.66157 9.44493 4.8301 8.9246 5.06076C8.07296 5.43829 7.31007 5.96497 6.63752 6.63752C5.96497 7.31007 5.43829 8.07296 5.06076 8.9246C4.8301 9.44493 4.66157 9.97927 4.55548 10.5269L1.58875 7.56022C2.1632 6.21153 2.96748 5.0286 4.00282 4.00784Z" fill="white" stroke="black"/>
</svg>
