<svg width="24" height="24" viewBox="0 0 24 24" fill="none" xmlns="http://www.w3.org/2000/svg">
<path d="M9.75018 3.9375H5.25018C4.9022 3.9379 4.56859 4.07631 4.32254 4.32236C4.07648 4.56842 3.93807 4.90203 3.93768 5.25V9.75C3.93807 10.098 4.07648 10.4316 4.32254 10.6776C4.56859 10.9237 4.9022 11.0621 5.25018 11.0625H9.75018C10.0982 11.0621 10.4318 10.9237 10.6778 10.6776C10.9239 10.4316 11.0623 10.098 11.0627 9.75V5.25C11.0623 4.90203 10.9239 4.56842 10.6778 4.32236C10.4318 4.07631 10.0982 3.9379 9.75018 3.9375ZM9.93768 9.75C9.9376 9.79971 9.91782 9.84735 9.88268 9.8825C9.84753 9.91765 9.79988 9.93743 9.75018 9.9375H5.25018C5.20047 9.93743 5.15282 9.91765 5.11768 9.8825C5.08253 9.84735 5.06275 9.79971 5.06268 9.75V5.25C5.06275 5.20029 5.08253 5.15265 5.11768 5.1175C5.15282 5.08235 5.20047 5.06257 5.25018 5.0625H9.75018C9.79988 5.06257 9.84753 5.08235 9.88268 5.1175C9.91782 5.15265 9.9376 5.20029 9.93768 5.25V9.75ZM9.75018 12.9375H5.25018C4.9022 12.9379 4.56859 13.0763 4.32254 13.3224C4.07648 13.5684 3.93807 13.902 3.93768 14.25V18.75C3.93807 19.098 4.07648 19.4316 4.32254 19.6776C4.56859 19.9237 4.9022 20.0621 5.25018 20.0625H9.75018C10.0982 20.0621 10.4318 19.9237 10.6778 19.6776C10.9239 19.4316 11.0623 19.098 11.0627 18.75V14.25C11.0623 13.902 10.9239 13.5684 10.6778 13.3224C10.4318 13.0763 10.0982 12.9379 9.75018 12.9375ZM9.93768 18.75C9.9376 18.7997 9.91782 18.8474 9.88268 18.8825C9.84753 18.9176 9.79988 18.9374 9.75018 18.9375H5.25018C5.20047 18.9374 5.15282 18.9176 5.11768 18.8825C5.08253 18.8474 5.06275 18.7997 5.06268 18.75V14.25C5.06275 14.2003 5.08253 14.1526 5.11768 14.1175C5.15282 14.0824 5.20047 14.0626 5.25018 14.0625H9.75018C9.79988 14.0626 9.84753 14.0824 9.88268 14.1175C9.91782 14.1526 9.9376 14.2003 9.93768 14.25V18.75ZM18.7502 3.9375H14.2502C13.9022 3.9379 13.5686 4.07631 13.3225 4.32236C13.0765 4.56842 12.9381 4.90203 12.9377 5.25V9.75C12.9381 10.098 13.0765 10.4316 13.3225 10.6776C13.5686 10.9237 13.9022 11.0621 14.2502 11.0625H18.7502C19.0982 11.0621 19.4318 10.9237 19.6778 10.6776C19.9239 10.4316 20.0623 10.098 20.0627 9.75V5.25C20.0623 4.90203 19.9239 4.56842 19.6778 4.32236C19.4318 4.07631 19.0982 3.9379 18.7502 3.9375ZM18.9377 9.75C18.9376 9.79971 18.9178 9.84735 18.8827 9.8825C18.8475 9.91765 18.7999 9.93743 18.7502 9.9375H14.2502C14.2005 9.93743 14.1528 9.91765 14.1177 9.8825C14.0825 9.84735 14.0627 9.79971 14.0627 9.75V5.25C14.0627 5.20029 14.0825 5.15265 14.1177 5.1175C14.1528 5.08235 14.2005 5.06257 14.2502 5.0625H18.7502C18.7999 5.06257 18.8475 5.08235 18.8827 5.1175C18.9178 5.15265 18.9376 5.20029 18.9377 5.25V9.75ZM12.9377 16.5V13.5C12.9377 13.3508 12.9969 13.2077 13.1024 13.1023C13.2079 12.9968 13.351 12.9375 13.5002 12.9375C13.6494 12.9375 13.7924 12.9968 13.8979 13.1023C14.0034 13.2077 14.0627 13.3508 14.0627 13.5V16.5C14.0627 16.6492 14.0034 16.7923 13.8979 16.8977C13.7924 17.0032 13.6494 17.0625 13.5002 17.0625C13.351 17.0625 13.2079 17.0032 13.1024 16.8977C12.9969 16.7923 12.9377 16.6492 12.9377 16.5ZM20.0627 15C20.0627 15.1492 20.0034 15.2923 19.8979 15.3977C19.7924 15.5032 19.6494 15.5625 19.5002 15.5625H17.0627V19.5C17.0627 19.6492 17.0034 19.7923 16.8979 19.8977C16.7924 20.0032 16.6494 20.0625 16.5002 20.0625H13.5002C13.351 20.0625 13.2079 20.0032 13.1024 19.8977C12.9969 19.7923 12.9377 19.6492 12.9377 19.5C12.9377 19.3508 12.9969 19.2077 13.1024 19.1023C13.2079 18.9968 13.351 18.9375 13.5002 18.9375H15.9377V13.5C15.9377 13.3508 15.9969 13.2077 16.1024 13.1023C16.2079 12.9968 16.351 12.9375 16.5002 12.9375C16.6494 12.9375 16.7924 12.9968 16.8979 13.1023C17.0034 13.2077 17.0627 13.3508 17.0627 13.5V14.4375H19.5002C19.6494 14.4375 19.7924 14.4968 19.8979 14.6023C20.0034 14.7077 20.0627 14.8508 20.0627 15ZM20.0627 18V19.5C20.0627 19.6492 20.0034 19.7923 19.8979 19.8977C19.7924 20.0032 19.6494 20.0625 19.5002 20.0625C19.351 20.0625 19.2079 20.0032 19.1024 19.8977C18.9969 19.7923 18.9377 19.6492 18.9377 19.5V18C18.9377 17.8508 18.9969 17.7077 19.1024 17.6023C19.2079 17.4968 19.351 17.4375 19.5002 17.4375C19.6494 17.4375 19.7924 17.4968 19.8979 17.6023C20.0034 17.7077 20.0627 17.8508 20.0627 18Z" fill="black"/>
</svg>
